<svg width="1488" height="1920" viewBox="0 0 1488 1920" fill="none" xmlns="http://www.w3.org/2000/svg">
<rect width="756.893" height="1228.74" rx="20" transform="matrix(0.845728 0.533615 -0.689367 0.724413 847.055 625)" fill="#93FAA5"/>
<path d="M569.273 1516.48L575.89 1520.66L559.676 1537.7L564.06 1540.46L561.479 1543.18L557.095 1540.41L552.727 1545L549.317 1542.85L553.685 1538.26L540.532 1529.96L544.371 1525.93L569.273 1516.48ZM546.433 1528.67L546.036 1529.09L556.266 1535.55L571.289 1519.76L570.802 1519.45L546.433 1528.67ZM594.129 1532.17L600.746 1536.34L584.532 1553.38L588.917 1556.15L586.336 1558.86L581.951 1556.09L577.584 1560.68L574.174 1558.53L578.541 1553.94L565.389 1545.64L569.227 1541.61L594.129 1532.17ZM571.29 1544.36L570.893 1544.78L581.122 1551.23L596.145 1535.44L595.658 1535.14L571.29 1544.36ZM595.482 1572.76C594.047 1571.85 592.903 1570.87 592.048 1569.81C591.215 1568.73 590.655 1567.63 590.367 1566.52C590.102 1565.39 590.114 1564.29 590.404 1563.21C590.743 1562.12 591.365 1561.11 592.269 1560.16L592.667 1559.74C593.461 1558.9 594.315 1558.26 595.231 1557.79C596.146 1557.33 597.079 1557.01 598.029 1556.83C598.98 1556.65 599.921 1556.6 600.852 1556.67C601.81 1556.75 602.705 1556.93 603.536 1557.19L603.933 1556.77C603.465 1556.22 603.115 1555.61 602.882 1554.94C602.65 1554.28 602.527 1553.59 602.513 1552.87C602.526 1552.18 602.676 1551.47 602.961 1550.76C603.269 1550.03 603.743 1549.33 604.383 1548.65L604.78 1548.24C605.662 1547.31 606.684 1546.6 607.845 1546.11C609.028 1545.59 610.277 1545.31 611.591 1545.24C612.932 1545.2 614.288 1545.37 615.657 1545.75C617.075 1546.13 618.461 1546.74 619.814 1547.6L620.058 1547.75C621.384 1548.59 622.448 1549.52 623.248 1550.54C624.071 1551.54 624.61 1552.57 624.866 1553.62C625.148 1554.69 625.131 1555.75 624.814 1556.82C624.519 1557.85 623.93 1558.84 623.048 1559.76L622.651 1560.18C622.011 1560.85 621.294 1561.4 620.498 1561.83C619.725 1562.23 618.913 1562.52 618.061 1562.68C617.236 1562.87 616.385 1562.94 615.507 1562.91C614.657 1562.89 613.857 1562.78 613.108 1562.56L612.71 1562.98C613.233 1563.57 613.651 1564.22 613.964 1564.94C614.305 1565.67 614.487 1566.44 614.511 1567.23C614.535 1568.03 614.387 1568.84 614.067 1569.68C613.747 1570.52 613.19 1571.35 612.396 1572.19L611.999 1572.6C611.094 1573.55 610.026 1574.29 608.794 1574.81C607.611 1575.33 606.313 1575.62 604.9 1575.69C603.51 1575.74 602.067 1575.58 600.573 1575.19C599.1 1574.78 597.647 1574.12 596.212 1573.22L595.482 1572.76ZM598.605 1570.5C600.446 1571.66 602.32 1572.19 604.229 1572.1C606.165 1572.02 607.75 1571.33 608.986 1570.03L609.184 1569.83C610.552 1568.39 611.015 1566.9 610.575 1565.36C610.161 1563.84 609.02 1562.49 607.153 1561.31L606.909 1561.16C605.042 1559.98 603.138 1559.41 601.197 1559.44C599.283 1559.5 597.643 1560.24 596.275 1561.68L596.076 1561.89C594.841 1563.19 594.406 1564.6 594.77 1566.13C595.162 1567.68 596.278 1569.03 598.118 1570.19L598.605 1570.5ZM609.612 1558.52C611.317 1559.6 613.061 1560.09 614.845 1559.99C616.628 1559.89 618.072 1559.26 619.175 1558.1L619.373 1557.89C620.498 1556.71 620.875 1555.42 620.503 1554.04C620.181 1552.65 619.153 1551.41 617.421 1550.31C615.689 1549.22 613.943 1548.71 612.181 1548.79C610.469 1548.86 609.05 1549.48 607.925 1550.67L607.727 1550.88C606.624 1552.03 606.236 1553.33 606.564 1554.76C606.891 1556.19 607.907 1557.45 609.612 1558.52Z" fill="black"/>
<path d="M600.801 1472.63C599.837 1472.02 599.171 1471.28 598.802 1470.43C598.434 1469.57 598.375 1468.65 598.627 1467.67C598.89 1466.69 599.48 1465.72 600.398 1464.75C601.316 1463.79 602.323 1463.08 603.417 1462.63C604.53 1462.18 605.643 1461.99 606.756 1462.07C607.877 1462.14 608.92 1462.47 609.884 1463.08C610.625 1463.55 611.188 1464.09 611.574 1464.71C611.96 1465.33 612.164 1465.99 612.186 1466.7C612.208 1466.95 612.114 1467.14 611.904 1467.26C611.713 1467.37 611.491 1467.43 611.237 1467.42L611.152 1467.41C610.982 1467.4 610.805 1467.33 610.62 1467.2C610.454 1467.07 610.352 1466.88 610.314 1466.65C610.269 1465.69 609.75 1464.9 608.755 1464.27C608.065 1463.83 607.315 1463.6 606.506 1463.56C605.708 1463.53 604.905 1463.69 604.097 1464.04C603.298 1464.39 602.547 1464.93 601.844 1465.67C601.149 1466.4 600.693 1467.12 600.474 1467.85C600.264 1468.57 600.277 1469.23 600.513 1469.86C600.76 1470.49 601.228 1471.02 601.918 1471.45C602.892 1472.07 603.966 1472.28 605.139 1472.09C605.426 1472.06 605.659 1472.09 605.837 1472.17C606.027 1472.26 606.164 1472.39 606.25 1472.56L606.268 1472.59C606.366 1472.78 606.371 1472.97 606.283 1473.16C606.195 1473.36 606.005 1473.48 605.712 1473.53C604.862 1473.69 604.012 1473.7 603.161 1473.55C602.329 1473.4 601.542 1473.09 600.801 1472.63ZM610.095 1478.22C609.902 1478.1 609.761 1477.94 609.671 1477.74C609.599 1477.54 609.602 1477.34 609.678 1477.12L613.861 1467.09C614.113 1466.49 614.533 1466.37 615.122 1466.74C615.538 1467 615.65 1467.35 615.46 1467.77L611.705 1476.5L621.168 1471.37C621.633 1471.12 622.079 1471.13 622.505 1471.4C622.759 1471.56 622.869 1471.73 622.836 1471.92C622.814 1472.12 622.658 1472.3 622.37 1472.46L611.474 1478.25C611.246 1478.37 611.005 1478.43 610.752 1478.42C610.507 1478.41 610.288 1478.34 610.095 1478.22ZM619.652 1484.52C618.688 1483.91 618.022 1483.18 617.653 1482.32C617.285 1481.46 617.226 1480.54 617.478 1479.56C617.741 1478.58 618.331 1477.61 619.249 1476.65C620.167 1475.68 621.174 1474.98 622.268 1474.53C623.381 1474.07 624.494 1473.89 625.607 1473.96C626.728 1474.03 627.771 1474.37 628.735 1474.98C629.476 1475.44 630.039 1475.99 630.425 1476.61C630.811 1477.22 631.015 1477.89 631.038 1478.6C631.059 1478.85 630.965 1479.03 630.755 1479.15C630.564 1479.27 630.342 1479.32 630.088 1479.31L630.003 1479.3C629.833 1479.29 629.656 1479.22 629.471 1479.09C629.305 1478.96 629.203 1478.78 629.165 1478.54C629.12 1477.58 628.601 1476.79 627.606 1476.16C626.916 1475.73 626.167 1475.49 625.358 1475.45C624.559 1475.42 623.756 1475.58 622.948 1475.94C622.15 1476.28 621.398 1476.82 620.695 1477.56C620 1478.29 619.544 1479.02 619.325 1479.74C619.115 1480.46 619.128 1481.13 619.364 1481.75C619.611 1482.38 620.079 1482.91 620.769 1483.35C621.743 1483.96 622.817 1484.17 623.99 1483.98C624.277 1483.95 624.51 1483.98 624.689 1484.07C624.878 1484.16 625.015 1484.29 625.101 1484.45L625.119 1484.48C625.217 1484.67 625.222 1484.86 625.134 1485.06C625.046 1485.25 624.856 1485.38 624.563 1485.43C623.713 1485.59 622.863 1485.59 622.012 1485.45C621.18 1485.3 620.393 1484.99 619.652 1484.52Z" fill="black"/>
<path d="M699.769 1377.65L719.126 1357.31L718.639 1357L705.268 1363.2L701.899 1361.07L702.097 1360.86L717.143 1354L723.76 1358.17L703.179 1379.8L711.216 1384.87L708.635 1387.58L689.15 1375.29L691.731 1372.58L699.769 1377.65ZM735.789 1400.38L733.208 1403.09L713.966 1390.95L717.937 1386.77C718.995 1385.66 720.127 1384.84 721.332 1384.3C722.56 1383.74 723.841 1383.41 725.178 1383.33C726.563 1383.24 728.012 1383.36 729.523 1383.68C731.035 1384 732.64 1384.48 734.34 1385.1C737.189 1386.16 739.55 1386.59 741.422 1386.4C743.321 1386.22 744.866 1385.51 746.057 1384.26L746.255 1384.05C746.851 1383.43 747.314 1382.73 747.644 1381.98C747.974 1381.22 748.113 1380.44 748.062 1379.63C748.011 1378.82 747.712 1378.01 747.165 1377.22C746.667 1376.43 745.863 1375.68 744.754 1374.98C742.67 1373.66 740.527 1373.18 738.327 1373.54C736.153 1373.91 734.206 1375 732.486 1376.81L731.03 1378.34L727.62 1376.19L729.274 1374.45C730.333 1373.34 731.564 1372.41 732.968 1371.66C734.372 1370.91 735.868 1370.41 737.457 1370.15C739.046 1369.89 740.684 1369.93 742.37 1370.25C744.056 1370.57 745.711 1371.24 747.335 1372.27C748.985 1373.31 750.21 1374.43 751.009 1375.64C751.83 1376.83 752.304 1378.04 752.432 1379.27C752.582 1380.47 752.417 1381.65 751.935 1382.79C751.503 1383.93 750.845 1384.96 749.963 1385.89L749.367 1386.52C747.603 1388.37 745.415 1389.53 742.804 1390C740.216 1390.44 737.168 1390 733.662 1388.68C730.601 1387.53 728.075 1386.98 726.085 1387.02C724.117 1387.04 722.405 1387.81 720.949 1389.34L719.957 1390.39L735.789 1400.38ZM779.579 1387.49L781.693 1390.05L740.43 1413.54L738.275 1410.96L779.579 1387.49ZM785.502 1431.74L782.921 1434.45L763.679 1422.31L767.649 1418.14C768.708 1417.03 769.84 1416.2 771.045 1415.66C772.273 1415.1 773.554 1414.78 774.891 1414.7C776.276 1414.61 777.725 1414.72 779.236 1415.04C780.748 1415.37 782.353 1415.84 784.052 1416.47C786.902 1417.53 789.263 1417.96 791.135 1417.77C793.033 1417.59 794.578 1416.88 795.77 1415.63L795.968 1415.42C796.564 1414.79 797.027 1414.1 797.357 1413.34C797.687 1412.59 797.826 1411.8 797.775 1410.99C797.724 1410.18 797.425 1409.38 796.878 1408.59C796.38 1407.79 795.576 1407.05 794.466 1406.35C792.383 1405.03 790.24 1404.55 788.04 1404.91C785.866 1405.28 783.919 1406.37 782.199 1408.18L780.743 1409.71L777.333 1407.56L778.987 1405.82C780.046 1404.7 781.277 1403.77 782.681 1403.03C784.085 1402.28 785.581 1401.78 787.17 1401.52C788.759 1401.26 790.397 1401.29 792.083 1401.61C793.769 1401.94 795.424 1402.61 797.047 1403.63C798.698 1404.67 799.923 1405.8 800.722 1407.01C801.543 1408.19 802.017 1409.4 802.145 1410.63C802.295 1411.84 802.13 1413.02 801.648 1414.16C801.216 1415.3 800.558 1416.33 799.676 1417.26L799.08 1417.88C797.316 1419.74 795.128 1420.9 792.517 1421.37C789.929 1421.81 786.881 1421.37 783.375 1420.05C780.314 1418.9 777.788 1418.34 775.798 1418.38C773.83 1418.4 772.118 1419.18 770.662 1420.71L769.67 1421.75L785.502 1431.74ZM820.495 1430.56C821.929 1429.05 822.535 1427.51 822.313 1425.92C822.113 1424.31 821.052 1422.9 819.131 1421.68C818.21 1421.1 817.226 1420.71 816.176 1420.49C815.154 1420.29 814.104 1420.28 813.029 1420.45C812.002 1420.62 810.985 1420.96 809.976 1421.47C808.994 1422 808.095 1422.7 807.279 1423.56L803.838 1427.17L804.325 1427.48C805.945 1426.87 807.626 1426.65 809.369 1426.82C811.138 1427.01 812.767 1427.58 814.255 1428.51C815.555 1429.33 816.582 1430.28 817.339 1431.35C818.118 1432.4 818.569 1433.52 818.692 1434.71C818.842 1435.92 818.659 1437.15 818.143 1438.42C817.677 1439.69 816.848 1440.95 815.657 1442.2L815.26 1442.62C814.113 1443.82 812.808 1444.76 811.345 1445.43C809.909 1446.12 808.403 1446.54 806.826 1446.7C805.276 1446.87 803.705 1446.77 802.112 1446.4C800.546 1446.04 799.06 1445.42 797.652 1444.53C796.245 1443.64 795.12 1442.61 794.277 1441.45C793.461 1440.31 792.938 1439.1 792.707 1437.85C792.524 1436.58 792.639 1435.3 793.052 1434C793.513 1432.7 794.306 1431.45 795.431 1430.27L803.869 1421.4C805.083 1420.13 806.443 1419.13 807.95 1418.41C809.456 1417.7 810.998 1417.26 812.575 1417.1C814.174 1416.93 815.743 1417.01 817.282 1417.35C818.848 1417.7 820.307 1418.31 821.66 1419.16C823.014 1420.02 824.107 1420.98 824.939 1422.07C825.772 1423.15 826.288 1424.29 826.487 1425.49C826.709 1426.67 826.597 1427.88 826.153 1429.12C825.758 1430.36 825.008 1431.55 823.905 1432.71L820.495 1430.56ZM800.101 1441.95C801.075 1442.57 802.076 1443 803.104 1443.24C804.18 1443.47 805.234 1443.52 806.266 1443.4C807.298 1443.27 808.282 1442.96 809.219 1442.48C810.157 1441.99 811.012 1441.34 811.784 1440.53L812.181 1440.12C812.953 1439.3 813.496 1438.46 813.811 1437.58C814.126 1436.71 814.231 1435.84 814.126 1435C814.021 1434.15 813.684 1433.35 813.115 1432.58C812.595 1431.81 811.875 1431.13 810.954 1430.55C810.034 1429.97 809.049 1429.57 808 1429.35C806.95 1429.14 805.896 1429.08 804.837 1429.19C803.806 1429.32 802.819 1429.61 801.876 1430.05C800.934 1430.5 800.11 1431.09 799.404 1431.83L798.775 1432.49C798.047 1433.26 797.512 1434.07 797.17 1434.93C796.85 1435.77 796.743 1436.61 796.848 1437.45C796.953 1438.3 797.266 1439.11 797.786 1439.88C798.355 1440.65 799.127 1441.34 800.101 1441.95Z" fill="black"/>
<path d="M749.411 1310.29C748.934 1309.99 748.894 1309.63 749.291 1309.21L756.786 1301.34C757.183 1300.92 757.62 1300.86 758.097 1301.16L763.547 1304.6C764.034 1304.91 764.1 1305.25 763.744 1305.62C763.388 1306 762.967 1306.03 762.48 1305.72L757.7 1302.71L755.057 1305.49L759.365 1308.2C759.842 1308.5 759.898 1308.85 759.534 1309.23C759.178 1309.6 758.762 1309.64 758.285 1309.34L753.977 1306.62L751.148 1309.59L756.111 1312.72C756.598 1313.03 756.663 1313.37 756.308 1313.75C755.952 1314.12 755.531 1314.15 755.043 1313.85L749.411 1310.29ZM757.54 1315.42C757.185 1315.2 757.046 1314.98 757.124 1314.78C757.202 1314.58 757.403 1314.43 757.727 1314.33L764.56 1312.19L765.278 1306.91C765.315 1306.52 765.442 1306.31 765.659 1306.25C765.885 1306.18 766.17 1306.26 766.515 1306.48C766.901 1306.72 767.058 1307.04 766.986 1307.44L766.351 1311.59L771.111 1310.04C771.569 1309.89 771.991 1309.93 772.376 1310.17C773.056 1310.6 772.989 1310.96 772.174 1311.26L766.083 1313.15L765.247 1319.07C765.203 1319.39 765.065 1319.6 764.833 1319.69C764.619 1319.78 764.335 1319.71 763.979 1319.48C763.594 1319.24 763.437 1318.92 763.509 1318.52L764.279 1313.77L758.805 1315.55C758.347 1315.71 757.926 1315.66 757.54 1315.42ZM766.983 1321.38C766.526 1321.09 766.496 1320.74 766.893 1320.32L774.4 1312.43C774.789 1312.02 775.222 1311.97 775.699 1312.27L779.749 1314.82C780.753 1315.46 781.339 1316.15 781.507 1316.89C781.685 1317.65 781.36 1318.46 780.532 1319.33C779.697 1320.2 778.806 1320.67 777.859 1320.73C776.922 1320.79 775.951 1320.51 774.946 1319.87L771.567 1317.74L768.279 1321.19C767.882 1321.61 767.45 1321.67 766.983 1321.38ZM772.646 1316.6L775.858 1318.63C776.467 1319.02 777.033 1319.2 777.554 1319.18C778.094 1319.16 778.6 1318.9 779.071 1318.4C779.534 1317.92 779.707 1317.46 779.589 1317.04C779.481 1316.62 779.123 1316.22 778.514 1315.84L775.302 1313.81L772.646 1316.6ZM776.267 1327.24C775.81 1326.95 775.781 1326.6 776.178 1326.18L783.672 1318.3C784.069 1317.89 784.496 1317.82 784.953 1318.11C785.42 1318.4 785.455 1318.76 785.058 1319.18L777.563 1327.05C777.166 1327.47 776.734 1327.53 776.267 1327.24ZM779.694 1329.4C779.237 1329.11 779.207 1328.76 779.605 1328.34L787.112 1320.45C787.501 1320.04 787.933 1319.99 788.41 1320.29L792.46 1322.85C793.465 1323.48 794.051 1324.17 794.218 1324.91C794.396 1325.67 794.071 1326.48 793.244 1327.35C792.508 1328.12 791.727 1328.57 790.902 1328.71C790.076 1328.84 789.215 1328.68 788.316 1328.22L787.133 1332.92C787.048 1333.22 786.903 1333.41 786.7 1333.51C786.505 1333.59 786.291 1333.56 786.057 1333.41L785.844 1333.28C785.438 1333.02 785.303 1332.69 785.438 1332.27L786.805 1327.35L784.278 1325.76L780.99 1329.21C780.593 1329.63 780.161 1329.69 779.694 1329.4ZM785.358 1324.62L788.57 1326.65C789.179 1327.04 789.744 1327.22 790.265 1327.2C790.805 1327.18 791.311 1326.92 791.782 1326.42C792.246 1325.94 792.418 1325.48 792.3 1325.06C792.192 1324.65 791.834 1324.25 791.225 1323.86L788.013 1321.83L785.358 1324.62ZM791.928 1337.12C791.451 1336.82 791.411 1336.46 791.808 1336.04L794.91 1332.78L796.131 1326.35C796.192 1326.01 796.33 1325.81 796.546 1325.74C796.771 1325.67 797.041 1325.74 797.356 1325.93C797.569 1326.07 797.708 1326.21 797.774 1326.37C797.85 1326.52 797.869 1326.71 797.829 1326.92L796.866 1331.93L802.549 1329.9C803.025 1329.74 803.45 1329.78 803.826 1330.02C804.151 1330.22 804.288 1330.43 804.239 1330.63C804.198 1330.83 804.007 1330.99 803.666 1331.11L796.326 1333.67L793.224 1336.93C792.826 1337.35 792.394 1337.41 791.928 1337.12ZM802.092 1343.53C801.615 1343.23 801.575 1342.87 801.972 1342.45L809.467 1334.58C809.864 1334.16 810.301 1334.1 810.778 1334.4L813.335 1336.02C814.452 1336.72 815.212 1337.5 815.618 1338.35C816.033 1339.21 816.112 1340.11 815.855 1341.05C815.615 1341.98 815.053 1342.92 814.168 1343.85C813.291 1344.77 812.323 1345.44 811.264 1345.87C810.214 1346.31 809.126 1346.47 807.999 1346.36C806.882 1346.25 805.766 1345.85 804.649 1345.14L802.092 1343.53ZM803.829 1342.83L805.625 1343.97C806.477 1344.5 807.319 1344.8 808.15 1344.87C809 1344.93 809.811 1344.8 810.583 1344.46C811.364 1344.12 812.077 1343.61 812.722 1342.93C813.375 1342.25 813.804 1341.56 814.008 1340.87C814.212 1340.17 814.166 1339.5 813.871 1338.86C813.594 1338.21 813.029 1337.62 812.177 1337.08L810.38 1335.95L803.829 1342.83ZM810.671 1348.94C810.448 1348.8 810.344 1348.65 810.36 1348.48C810.395 1348.3 810.548 1348.14 810.82 1347.99L822.117 1342.27C822.53 1342.05 822.924 1342.07 823.3 1342.3L823.406 1342.37C823.782 1342.61 823.895 1342.92 823.746 1343.29L819.756 1353.63C819.647 1353.88 819.493 1354.04 819.296 1354.11C819.108 1354.18 818.897 1354.13 818.663 1353.99L818.435 1353.84C818.049 1353.6 817.94 1353.29 818.108 1352.91L819.073 1350.51L814.673 1347.73L812.049 1349.08C811.638 1349.31 811.245 1349.31 810.869 1349.07L810.671 1348.94ZM816.212 1346.91L819.668 1349.09L821.735 1344.05L816.212 1346.91ZM822.388 1356.34C821.911 1356.04 821.871 1355.68 822.268 1355.26L829.291 1347.88L826.673 1346.23C826.186 1345.92 826.12 1345.58 826.476 1345.2C826.831 1344.83 827.253 1344.8 827.74 1345.11L834.377 1349.29C834.854 1349.59 834.915 1349.93 834.559 1350.31C834.203 1350.68 833.787 1350.72 833.31 1350.41L830.692 1348.76L823.668 1356.14C823.271 1356.56 822.844 1356.62 822.388 1356.34ZM828.488 1360.19C828.011 1359.88 827.971 1359.53 828.368 1359.11L835.863 1351.23C836.26 1350.81 836.697 1350.76 837.174 1351.06L842.624 1354.5C843.111 1354.8 843.176 1355.14 842.821 1355.52C842.465 1355.89 842.044 1355.92 841.556 1355.62L836.776 1352.6L834.133 1355.38L838.442 1358.1C838.919 1358.4 838.975 1358.74 838.611 1359.12C838.255 1359.5 837.839 1359.53 837.362 1359.23L833.054 1356.51L830.225 1359.49L835.187 1362.62C835.675 1362.92 835.74 1363.27 835.385 1363.64C835.029 1364.01 834.607 1364.05 834.12 1363.74L828.488 1360.19Z" fill="black"/>
<path d="M1041.09 1022.42L1064.07 998.265L1063.5 997.9L1047.62 1005.26L1043.62 1002.74L1043.85 1002.49L1061.72 994.334L1069.58 999.292L1045.14 1024.98L1054.68 1031L1051.62 1034.22L1028.48 1019.62L1031.54 1016.4L1041.09 1022.42ZM1083.86 1049.41L1080.8 1052.63L1057.95 1038.21L1062.66 1033.26C1063.92 1031.94 1065.26 1030.96 1066.69 1030.32C1068.15 1029.65 1069.67 1029.27 1071.26 1029.17C1072.91 1029.06 1074.63 1029.2 1076.42 1029.58C1078.22 1029.96 1080.12 1030.53 1082.14 1031.27C1085.52 1032.53 1088.33 1033.04 1090.55 1032.81C1092.81 1032.61 1094.64 1031.76 1096.06 1030.27L1096.29 1030.02C1097 1029.28 1097.55 1028.46 1097.94 1027.56C1098.33 1026.66 1098.5 1025.73 1098.44 1024.77C1098.38 1023.81 1098.02 1022.85 1097.37 1021.92C1096.78 1020.97 1095.83 1020.08 1094.51 1019.25C1092.03 1017.69 1089.49 1017.12 1086.88 1017.54C1084.29 1017.98 1081.98 1019.28 1079.94 1021.43L1078.21 1023.24L1074.16 1020.69L1076.13 1018.62C1077.38 1017.3 1078.85 1016.2 1080.51 1015.31C1082.18 1014.42 1083.96 1013.83 1085.84 1013.52C1087.73 1013.21 1089.67 1013.25 1091.68 1013.63C1093.68 1014.01 1095.64 1014.81 1097.57 1016.03C1099.53 1017.27 1100.99 1018.6 1101.94 1020.04C1102.91 1021.45 1103.47 1022.88 1103.63 1024.34C1103.8 1025.78 1103.61 1027.17 1103.04 1028.53C1102.52 1029.88 1101.74 1031.11 1100.69 1032.21L1099.99 1032.95C1097.89 1035.15 1095.29 1036.53 1092.19 1037.09C1089.12 1037.61 1085.5 1037.09 1081.34 1035.52C1077.7 1034.15 1074.7 1033.5 1072.34 1033.55C1070 1033.57 1067.97 1034.49 1066.24 1036.31L1065.06 1037.55L1083.86 1049.41ZM1109.19 1047.55L1113.75 1042.76L1130.47 1043.66L1130.95 1043.17L1111.86 1031.12L1114.92 1027.9L1137.48 1042.14L1132.45 1047.42L1115.72 1046.52L1115.25 1047.01L1117.18 1048.23C1118.47 1049.04 1119.53 1050 1120.38 1051.11C1121.23 1052.21 1121.78 1053.4 1122.02 1054.65C1122.3 1055.93 1122.23 1057.25 1121.8 1058.61C1121.44 1059.97 1120.63 1061.31 1119.37 1062.63L1118.66 1063.37C1117.48 1064.61 1116.1 1065.58 1114.5 1066.29C1112.9 1067 1111.2 1067.43 1109.41 1067.58C1107.65 1067.7 1105.84 1067.55 1103.98 1067.13C1102.18 1066.69 1100.46 1065.96 1098.82 1064.93C1096.92 1063.73 1095.46 1062.41 1094.42 1060.96C1093.38 1059.51 1092.74 1058.03 1092.49 1056.5C1092.26 1054.95 1092.41 1053.42 1092.94 1051.9C1093.52 1050.37 1094.44 1048.94 1095.69 1047.62L1097.81 1045.39L1101.86 1047.95L1099.98 1049.93C1098.98 1050.97 1098.28 1052.03 1097.88 1053.1C1097.54 1054.16 1097.45 1055.21 1097.61 1056.23C1097.82 1057.25 1098.28 1058.22 1098.99 1059.15C1099.7 1060.08 1100.63 1060.92 1101.79 1061.65C1102.85 1062.31 1103.97 1062.78 1105.16 1063.05C1106.38 1063.33 1107.58 1063.43 1108.75 1063.33C1109.95 1063.2 1111.08 1062.91 1112.15 1062.43C1113.24 1061.93 1114.18 1061.27 1114.97 1060.44L1115.2 1060.2C1116.85 1058.46 1117.49 1056.71 1117.13 1054.93C1116.78 1053.13 1115.65 1051.62 1113.72 1050.4L1109.19 1047.55ZM1155.29 1053.37L1163.14 1058.33L1143.89 1078.56L1149.1 1081.84L1146.03 1085.07L1140.82 1081.78L1135.64 1087.23L1131.59 1084.68L1136.77 1079.23L1121.16 1069.37L1125.71 1064.58L1155.29 1053.37ZM1128.16 1067.84L1127.69 1068.34L1139.84 1076L1157.68 1057.26L1157.1 1056.89L1128.16 1067.84ZM1002.49 1047.5L1017.03 1032.22L1038.14 1045.54L1035.08 1048.76L1017.92 1037.93L1008.09 1048.26L1008.67 1048.62C1009.52 1048.27 1010.43 1048.01 1011.42 1047.84C1012.43 1047.64 1013.46 1047.57 1014.5 1047.61C1015.57 1047.67 1016.65 1047.86 1017.72 1048.19C1018.83 1048.49 1019.91 1048.97 1020.97 1049.64C1022.51 1050.61 1023.72 1051.73 1024.58 1052.98C1025.48 1054.25 1026.02 1055.58 1026.19 1056.97C1026.36 1058.35 1026.17 1059.77 1025.61 1061.23C1025.08 1062.7 1024.16 1064.12 1022.85 1065.5L1022.14 1066.24C1020.84 1067.62 1019.33 1068.76 1017.64 1069.68C1015.97 1070.57 1014.18 1071.18 1012.27 1071.51C1010.38 1071.82 1008.44 1071.78 1006.44 1071.4C1004.43 1071.02 1002.47 1070.22 1000.54 1069C998.581 1067.76 997.081 1066.42 996.042 1064.97C995.003 1063.52 994.389 1062.03 994.198 1060.51C994.008 1058.98 994.203 1057.45 994.783 1055.92C995.422 1054.38 996.409 1052.91 997.745 1051.51L998.845 1050.35L1002.89 1052.91L1002.03 1053.82C999.856 1056.1 998.958 1058.29 999.336 1060.38C999.772 1062.46 1001.2 1064.26 1003.61 1065.78C1004.89 1066.59 1006.2 1067.11 1007.53 1067.33C1008.92 1067.55 1010.25 1067.53 1011.52 1067.27C1012.85 1067.01 1014.1 1066.54 1015.26 1065.86C1016.44 1065.16 1017.49 1064.32 1018.41 1063.36L1018.65 1063.11C1019.46 1062.26 1020.04 1061.35 1020.39 1060.38C1020.78 1059.43 1020.93 1058.49 1020.84 1057.56C1020.79 1056.64 1020.47 1055.76 1019.89 1054.91C1019.37 1054.05 1018.61 1053.31 1017.62 1052.68C1016.94 1052.25 1016.24 1051.94 1015.5 1051.74C1014.8 1051.56 1014.1 1051.48 1013.43 1051.49C1012.77 1051.47 1012.14 1051.54 1011.54 1051.69C1010.97 1051.86 1010.49 1052.06 1010.11 1052.3L1002.49 1047.5ZM1056.61 1070.67C1058.31 1068.88 1059.03 1067.05 1058.76 1065.16C1058.53 1063.25 1057.27 1061.57 1054.99 1060.13C1053.89 1059.44 1052.72 1058.97 1051.48 1058.71C1050.26 1058.48 1049.02 1058.46 1047.74 1058.67C1046.52 1058.87 1045.31 1059.27 1044.11 1059.88C1042.95 1060.51 1041.88 1061.34 1040.91 1062.36L1036.83 1066.65L1037.4 1067.02C1039.33 1066.29 1041.32 1066.03 1043.39 1066.23C1045.49 1066.46 1047.43 1067.13 1049.2 1068.24C1050.74 1069.22 1051.96 1070.34 1052.86 1071.61C1053.78 1072.86 1054.32 1074.18 1054.46 1075.6C1054.64 1077.03 1054.43 1078.5 1053.81 1080.01C1053.26 1081.51 1052.27 1083.01 1050.86 1084.49L1050.39 1084.99C1049.03 1086.42 1047.48 1087.53 1045.74 1088.33C1044.03 1089.15 1042.25 1089.65 1040.37 1089.84C1038.53 1090.04 1036.67 1089.92 1034.78 1089.48C1032.92 1089.05 1031.15 1088.31 1029.48 1087.26C1027.81 1086.21 1026.47 1084.99 1025.47 1083.61C1024.5 1082.25 1023.88 1080.82 1023.61 1079.32C1023.39 1077.82 1023.53 1076.3 1024.02 1074.76C1024.56 1073.21 1025.51 1071.73 1026.84 1070.33L1036.86 1059.8C1038.3 1058.29 1039.92 1057.1 1041.71 1056.25C1043.5 1055.4 1045.33 1054.88 1047.2 1054.69C1049.1 1054.48 1050.96 1054.58 1052.79 1054.98C1054.65 1055.41 1056.38 1056.12 1057.99 1057.14C1059.6 1058.15 1060.89 1059.3 1061.88 1060.59C1062.87 1061.87 1063.48 1063.23 1063.72 1064.65C1063.98 1066.05 1063.85 1067.49 1063.32 1068.96C1062.85 1070.43 1061.97 1071.85 1060.66 1073.23L1056.61 1070.67ZM1032.39 1084.2C1033.54 1084.93 1034.73 1085.44 1035.95 1085.73C1037.23 1086 1038.48 1086.07 1039.71 1085.92C1040.93 1085.76 1042.1 1085.4 1043.22 1084.82C1044.33 1084.25 1045.34 1083.48 1046.26 1082.52L1046.73 1082.02C1047.65 1081.06 1048.29 1080.05 1048.67 1079.01C1049.04 1077.97 1049.17 1076.95 1049.04 1075.94C1048.92 1074.94 1048.52 1073.98 1047.84 1073.07C1047.22 1072.15 1046.37 1071.35 1045.28 1070.66C1044.18 1069.97 1043.01 1069.5 1041.77 1069.24C1040.52 1068.98 1039.27 1068.92 1038.01 1069.05C1036.79 1069.2 1035.62 1069.54 1034.5 1070.07C1033.38 1070.6 1032.4 1071.3 1031.56 1072.18L1030.81 1072.97C1029.95 1073.88 1029.31 1074.84 1028.91 1075.86C1028.53 1076.86 1028.4 1077.86 1028.52 1078.86C1028.65 1079.86 1029.02 1080.82 1029.64 1081.74C1030.31 1082.65 1031.23 1083.47 1032.39 1084.2ZM1075.77 1069.28L1098.33 1083.52L1093.54 1088.56L1061.79 1098C1060.28 1098.45 1059.05 1098.89 1058.09 1099.3C1057.13 1099.71 1056.34 1100.24 1055.71 1100.9L1054.53 1102.14L1050.58 1099.65L1052 1098.16C1052.47 1097.67 1052.96 1097.23 1053.48 1096.85C1054.02 1096.49 1054.62 1096.16 1055.26 1095.86C1055.97 1095.56 1056.73 1095.27 1057.55 1094.99C1058.44 1094.72 1059.45 1094.41 1060.59 1094.07L1091.33 1085.05L1091.8 1084.55L1072.71 1072.5L1075.77 1069.28ZM1088.08 1124.23C1086.38 1123.16 1085.02 1121.99 1084 1120.74C1083.01 1119.45 1082.35 1118.15 1082.01 1116.83C1081.69 1115.49 1081.71 1114.18 1082.05 1112.9C1082.45 1111.61 1083.19 1110.4 1084.27 1109.27L1084.74 1108.78C1085.68 1107.78 1086.7 1107.02 1087.78 1106.47C1088.87 1105.92 1089.98 1105.54 1091.11 1105.33C1092.23 1105.11 1093.35 1105.05 1094.46 1105.13C1095.6 1105.23 1096.66 1105.44 1097.64 1105.75L1098.12 1105.26C1097.56 1104.6 1097.14 1103.87 1096.87 1103.08C1096.59 1102.29 1096.45 1101.47 1096.43 1100.62C1096.45 1099.8 1096.62 1098.96 1096.96 1098.12C1097.33 1097.25 1097.89 1096.41 1098.65 1095.61L1099.12 1095.12C1100.17 1094.02 1101.38 1093.18 1102.76 1092.59C1104.17 1091.98 1105.65 1091.64 1107.21 1091.56C1108.8 1091.51 1110.41 1091.71 1112.04 1092.17C1113.72 1092.61 1115.37 1093.34 1116.98 1094.36L1117.26 1094.54C1118.84 1095.53 1120.1 1096.64 1121.05 1097.85C1122.03 1099.04 1122.67 1100.26 1122.97 1101.51C1123.31 1102.78 1123.29 1104.04 1122.91 1105.3C1122.56 1106.54 1121.86 1107.7 1120.81 1108.81L1120.34 1109.3C1119.58 1110.1 1118.73 1110.75 1117.79 1111.26C1116.87 1111.74 1115.9 1112.07 1114.89 1112.27C1113.91 1112.49 1112.9 1112.58 1111.86 1112.54C1110.85 1112.52 1109.9 1112.38 1109.01 1112.13L1108.54 1112.63C1109.16 1113.32 1109.66 1114.1 1110.03 1114.95C1110.43 1115.82 1110.65 1116.73 1110.68 1117.68C1110.71 1118.62 1110.53 1119.59 1110.15 1120.58C1109.77 1121.57 1109.11 1122.57 1108.17 1123.56L1107.69 1124.05C1106.62 1125.18 1105.35 1126.06 1103.89 1126.67C1102.48 1127.29 1100.94 1127.64 1099.26 1127.72C1097.61 1127.78 1095.9 1127.58 1094.13 1127.12C1092.38 1126.64 1090.65 1125.86 1088.95 1124.78L1088.08 1124.23ZM1091.79 1121.55C1093.97 1122.93 1096.2 1123.56 1098.47 1123.45C1100.77 1123.36 1102.65 1122.54 1104.12 1121L1104.35 1120.75C1105.98 1119.05 1106.53 1117.28 1106 1115.45C1105.51 1113.64 1104.16 1112.04 1101.94 1110.64L1101.65 1110.46C1099.43 1109.06 1097.17 1108.38 1094.87 1108.43C1092.59 1108.49 1090.65 1109.38 1089.02 1111.08L1088.79 1111.33C1087.32 1112.87 1086.8 1114.55 1087.24 1116.37C1087.7 1118.2 1089.03 1119.81 1091.21 1121.19L1091.79 1121.55ZM1104.86 1107.33C1106.88 1108.61 1108.96 1109.19 1111.07 1109.07C1113.19 1108.95 1114.91 1108.21 1116.22 1106.83L1116.45 1106.58C1117.79 1105.18 1118.23 1103.65 1117.79 1102.01C1117.41 1100.36 1116.19 1098.88 1114.13 1097.59C1112.08 1096.29 1110 1095.68 1107.91 1095.77C1105.88 1095.86 1104.19 1096.6 1102.86 1098L1102.62 1098.25C1101.31 1099.63 1100.85 1101.17 1101.24 1102.87C1101.63 1104.56 1102.84 1106.05 1104.86 1107.33ZM962.148 1096.45C960.446 1098.24 959.713 1100.09 959.951 1102.01C960.215 1103.89 961.488 1105.55 963.769 1106.99C964.862 1107.68 966.015 1108.15 967.23 1108.38C968.476 1108.64 969.709 1108.67 970.928 1108.47C972.205 1108.26 973.414 1107.86 974.553 1107.26C975.751 1106.65 976.847 1105.82 977.843 1104.77L981.929 1100.48L981.351 1100.11C979.459 1100.86 977.495 1101.14 975.458 1100.95C973.421 1100.77 971.487 1100.1 969.655 1098.94C968.08 1097.95 966.83 1096.83 965.906 1095.59C964.981 1094.34 964.416 1093.02 964.212 1091.61C964.034 1090.18 964.222 1088.71 964.775 1087.21C965.361 1085.73 966.362 1084.24 967.776 1082.76L968.248 1082.26C969.61 1080.83 971.144 1079.71 972.849 1078.89C974.58 1078.04 976.365 1077.52 978.206 1077.31C980.105 1077.1 981.984 1077.21 983.843 1077.63C985.761 1078.05 987.571 1078.79 989.275 1079.87C990.978 1080.94 992.301 1082.17 993.243 1083.56C994.244 1084.94 994.853 1086.38 995.069 1087.88C995.318 1089.41 995.168 1090.94 994.62 1092.49C994.072 1094.04 993.13 1095.52 991.794 1096.92L981.892 1107.33C980.425 1108.87 978.797 1110.06 977.007 1110.92C975.276 1111.76 973.461 1112.29 971.563 1112.51C969.722 1112.71 967.872 1112.6 966.013 1112.18C964.153 1111.75 962.404 1111.02 960.765 1109.99C959.126 1108.95 957.812 1107.79 956.823 1106.51C955.834 1105.22 955.208 1103.88 954.946 1102.48C954.709 1101.06 954.841 1099.62 955.343 1098.17C955.871 1096.7 956.789 1095.28 958.099 1093.9L962.148 1096.45ZM986.367 1082.92C985.21 1082.19 983.992 1081.69 982.714 1081.41C981.467 1081.15 980.219 1081.11 978.967 1081.29C977.716 1081.47 976.521 1081.86 975.382 1082.47C974.268 1083.04 973.266 1083.8 972.376 1084.73L971.904 1085.23C970.987 1086.19 970.342 1087.2 969.968 1088.24C969.62 1089.25 969.509 1090.26 969.633 1091.26C969.784 1092.24 970.182 1093.17 970.826 1094.07C971.469 1094.96 972.354 1095.76 973.479 1096.47C974.571 1097.16 975.728 1097.64 976.948 1097.93C978.194 1098.19 979.417 1098.25 980.616 1098.13C981.846 1098.02 983.022 1097.71 984.141 1097.18C985.26 1096.65 986.238 1095.95 987.077 1095.07L987.823 1094.28C988.688 1093.37 989.323 1092.41 989.729 1091.39C990.135 1090.37 990.276 1089.35 990.151 1088.35C990.053 1087.32 989.679 1086.33 989.029 1085.4C988.411 1084.48 987.524 1083.65 986.367 1082.92ZM995.695 1102.82C999.258 1099.07 1003.07 1096.83 1007.12 1096.08C1011.17 1095.34 1015.06 1096.14 1018.79 1098.49C1022.52 1100.84 1024.45 1103.71 1024.57 1107.09C1024.69 1110.48 1022.98 1114.04 1019.41 1117.78L1013.28 1124.22C1009.62 1128.08 1005.78 1130.35 1001.78 1131.04C997.778 1131.73 993.914 1130.9 990.186 1128.55C986.458 1126.2 984.506 1123.36 984.329 1120.03C984.152 1116.7 985.898 1113.11 989.565 1109.26L995.695 1102.82ZM993.172 1125.41C995.775 1127.06 998.453 1127.51 1001.21 1126.78C1004.02 1126.04 1006.77 1124.26 1009.47 1121.42L1015.13 1115.48C1016.38 1114.15 1017.36 1112.86 1018.06 1111.58C1018.79 1110.28 1019.18 1109.02 1019.24 1107.83C1019.36 1106.62 1019.13 1105.49 1018.55 1104.42C1018.01 1103.37 1017.09 1102.44 1015.81 1101.63C1014.49 1100.8 1013.14 1100.3 1011.75 1100.13C1010.37 1099.96 1008.96 1100.06 1007.53 1100.44C1006.15 1100.8 1004.78 1101.43 1003.41 1102.33C1002.07 1103.2 1000.77 1104.3 999.508 1105.62L993.85 1111.57C991.152 1114.4 989.699 1117.01 989.491 1119.39C989.342 1121.76 990.569 1123.77 993.172 1125.41ZM1001.4 1111.57C1002.08 1110.86 1002.98 1110.43 1004.09 1110.29C1005.2 1110.16 1006.17 1110.35 1007 1110.88C1007.84 1111.41 1008.31 1112.12 1008.43 1113.03C1008.54 1113.94 1008.26 1114.75 1007.57 1115.47C1006.89 1116.18 1006 1116.61 1004.89 1116.75C1003.78 1116.89 1002.81 1116.69 1001.97 1116.16C1001.14 1115.64 1000.66 1114.92 1000.55 1114.01C1000.44 1113.1 1000.72 1112.29 1001.4 1111.57ZM1025.21 1121.44C1028.77 1117.7 1032.58 1115.45 1036.64 1114.71C1040.69 1113.96 1044.58 1114.76 1048.31 1117.11C1052.04 1119.47 1053.96 1122.33 1054.09 1125.72C1054.21 1129.1 1052.49 1132.66 1048.93 1136.41L1042.8 1142.85C1039.13 1146.7 1035.3 1148.97 1031.3 1149.67C1027.3 1150.36 1023.43 1149.53 1019.7 1147.18C1015.97 1144.82 1014.02 1141.98 1013.85 1138.66C1013.67 1135.33 1015.41 1131.74 1019.08 1127.88L1025.21 1121.44ZM1022.69 1144.04C1025.29 1145.68 1027.97 1146.14 1030.72 1145.4C1033.53 1144.67 1036.29 1142.88 1038.99 1140.05L1044.64 1134.1C1045.9 1132.78 1046.88 1131.48 1047.58 1130.2C1048.31 1128.9 1048.7 1127.65 1048.76 1126.45C1048.88 1125.25 1048.65 1124.11 1048.07 1123.04C1047.52 1121.99 1046.61 1121.06 1045.32 1120.25C1044 1119.42 1042.65 1118.92 1041.27 1118.75C1039.89 1118.59 1038.48 1118.69 1037.04 1119.06C1035.67 1119.43 1034.3 1120.06 1032.93 1120.96C1031.58 1121.83 1030.28 1122.92 1029.03 1124.24L1023.37 1130.19C1020.67 1133.03 1019.22 1135.63 1019.01 1138.01C1018.86 1140.39 1020.09 1142.39 1022.69 1144.04ZM1030.92 1130.2C1031.6 1129.48 1032.5 1129.06 1033.6 1128.92C1034.71 1128.78 1035.69 1128.98 1036.52 1129.5C1037.36 1130.03 1037.83 1130.75 1037.94 1131.66C1038.06 1132.56 1037.77 1133.38 1037.09 1134.09C1036.41 1134.81 1035.52 1135.23 1034.41 1135.37C1033.3 1135.51 1032.33 1135.31 1031.49 1134.79C1030.66 1134.26 1030.18 1133.54 1030.07 1132.63C1029.96 1131.73 1030.24 1130.91 1030.92 1130.2ZM1051.05 1160.87L1074.04 1136.72L1073.46 1136.35L1057.58 1143.72L1053.58 1141.19L1053.82 1140.94L1071.68 1132.79L1079.54 1137.75L1055.1 1163.43L1064.65 1169.45L1061.58 1172.67L1038.44 1158.07L1041.51 1154.85L1051.05 1160.87ZM936.463 1154.66L933.398 1157.88L910.548 1143.46L915.263 1138.51C916.521 1137.19 917.865 1136.21 919.296 1135.57C920.753 1134.9 922.276 1134.52 923.862 1134.42C925.508 1134.31 927.228 1134.45 929.023 1134.83C930.818 1135.22 932.724 1135.78 934.742 1136.52C938.126 1137.78 940.93 1138.29 943.152 1138.06C945.407 1137.86 947.242 1137.01 948.656 1135.52L948.892 1135.27C949.599 1134.53 950.149 1133.71 950.541 1132.81C950.933 1131.91 951.098 1130.98 951.038 1130.02C950.977 1129.06 950.622 1128.11 949.972 1127.17C949.381 1126.22 948.426 1125.33 947.109 1124.5C944.634 1122.94 942.09 1122.37 939.477 1122.79C936.896 1123.23 934.584 1124.53 932.541 1126.68L930.812 1128.49L926.762 1125.94L928.727 1123.87C929.985 1122.55 931.447 1121.45 933.113 1120.56C934.78 1119.67 936.557 1119.08 938.444 1118.77C940.331 1118.46 942.276 1118.5 944.278 1118.88C946.28 1119.26 948.245 1120.06 950.174 1121.28C952.134 1122.52 953.588 1123.85 954.537 1125.29C955.512 1126.7 956.075 1128.13 956.227 1129.59C956.405 1131.03 956.209 1132.42 955.637 1133.78C955.123 1135.13 954.343 1136.36 953.295 1137.46L952.588 1138.2C950.492 1140.4 947.894 1141.78 944.794 1142.34C941.72 1142.86 938.101 1142.34 933.938 1140.77C930.302 1139.41 927.303 1138.75 924.94 1138.8C922.603 1138.82 920.57 1139.74 918.841 1141.56L917.662 1142.8L936.463 1154.66ZM961.79 1152.8L966.348 1148.01L983.076 1148.91L983.548 1148.42L964.458 1136.37L967.523 1133.15L990.083 1147.39L985.054 1152.67L968.326 1151.77L967.854 1152.26L969.783 1153.48C971.068 1154.29 972.135 1155.25 972.984 1156.36C973.832 1157.46 974.379 1158.65 974.624 1159.9C974.901 1161.18 974.828 1162.5 974.405 1163.86C974.041 1165.22 973.23 1166.56 971.972 1167.88L971.265 1168.62C970.086 1169.86 968.697 1170.83 967.097 1171.54C965.496 1172.25 963.802 1172.68 962.014 1172.83C960.252 1172.95 958.442 1172.8 956.582 1172.38C954.781 1171.94 953.061 1171.21 951.422 1170.18C949.526 1168.98 948.059 1167.66 947.02 1166.21C945.981 1164.76 945.337 1163.28 945.088 1161.75C944.866 1160.2 945.016 1158.67 945.538 1157.15C946.118 1155.62 947.036 1154.19 948.294 1152.87L950.416 1150.64L954.465 1153.2L952.579 1155.18C951.584 1156.23 950.886 1157.28 950.486 1158.35C950.144 1159.41 950.051 1160.46 950.208 1161.48C950.423 1162.5 950.885 1163.47 951.593 1164.4C952.301 1165.34 953.234 1166.17 954.391 1166.9C955.451 1167.56 956.575 1168.03 957.764 1168.3C958.984 1168.58 960.18 1168.68 961.353 1168.58C962.551 1168.45 963.684 1168.16 964.751 1167.68C965.844 1167.18 966.783 1166.52 967.569 1165.69L967.805 1165.45C969.455 1163.71 970.096 1161.96 969.728 1160.18C969.385 1158.38 968.25 1156.87 966.321 1155.66L961.79 1152.8ZM1007.89 1158.62L1015.74 1163.58L996.49 1183.81L1001.7 1187.1L998.631 1190.32L993.425 1187.03L988.238 1192.48L984.189 1189.93L989.376 1184.48L973.757 1174.62L978.315 1169.83L1007.89 1158.62ZM980.764 1173.09L980.293 1173.59L992.441 1181.26L1010.28 1162.51L1009.7 1162.14L980.764 1173.09ZM1012.45 1185.95L1026.99 1170.67L1048.11 1184L1045.04 1187.22L1027.88 1176.39L1018.06 1186.71L1018.63 1187.08C1019.48 1186.73 1020.39 1186.47 1021.38 1186.3C1022.39 1186.1 1023.42 1186.02 1024.46 1186.06C1025.53 1186.12 1026.61 1186.32 1027.69 1186.64C1028.79 1186.94 1029.87 1187.43 1030.93 1188.1C1032.48 1189.07 1033.68 1190.18 1034.55 1191.43C1035.45 1192.71 1035.98 1194.03 1036.15 1195.42C1036.33 1196.81 1036.13 1198.23 1035.57 1199.68C1035.04 1201.15 1034.13 1202.58 1032.82 1203.95L1032.11 1204.7C1030.8 1206.07 1029.3 1207.22 1027.6 1208.13C1025.94 1209.02 1024.15 1209.63 1022.23 1209.97C1020.35 1210.27 1018.4 1210.24 1016.4 1209.85C1014.4 1209.47 1012.43 1208.67 1010.5 1207.46C1008.54 1206.22 1007.04 1204.88 1006.01 1203.43C1004.97 1201.98 1004.35 1200.49 1004.16 1198.96C1003.97 1197.43 1004.17 1195.9 1004.75 1194.37C1005.39 1192.84 1006.37 1191.37 1007.71 1189.96L1008.81 1188.81L1012.86 1191.36L1011.99 1192.27C1009.82 1194.56 1008.92 1196.74 1009.3 1198.83C1009.74 1200.91 1011.16 1202.71 1013.57 1204.23C1014.85 1205.05 1016.16 1205.56 1017.49 1205.79C1018.88 1206 1020.21 1205.98 1021.48 1205.73C1022.81 1205.46 1024.06 1204.99 1025.22 1204.32C1026.4 1203.61 1027.46 1202.78 1028.37 1201.81L1028.61 1201.56C1029.42 1200.71 1030 1199.8 1030.36 1198.84C1030.74 1197.89 1030.89 1196.95 1030.81 1196.01C1030.75 1195.1 1030.43 1194.21 1029.86 1193.36C1029.33 1192.51 1028.58 1191.76 1027.58 1191.13C1026.9 1190.71 1026.2 1190.4 1025.46 1190.2C1024.76 1190.02 1024.07 1189.93 1023.39 1189.94C1022.73 1189.93 1022.11 1189.99 1021.5 1190.14C1020.93 1190.31 1020.45 1190.52 1020.07 1190.76L1012.45 1185.95Z" fill="black"/>
<path d="M1089.27 959.321C1088.31 958.713 1087.64 957.98 1087.27 957.121C1086.91 956.262 1086.85 955.342 1087.1 954.36C1087.36 953.385 1087.95 952.415 1088.87 951.45C1089.79 950.485 1090.79 949.777 1091.89 949.327C1093 948.875 1094.11 948.686 1095.23 948.763C1096.35 948.83 1097.39 949.168 1098.36 949.777C1099.1 950.244 1099.66 950.787 1100.05 951.406C1100.43 952.025 1100.64 952.689 1100.66 953.399C1100.68 953.65 1100.59 953.834 1100.38 953.952C1100.19 954.068 1099.96 954.122 1099.71 954.115L1099.62 954.103C1099.45 954.093 1099.28 954.023 1099.09 953.893C1098.93 953.76 1098.82 953.578 1098.79 953.345C1098.74 952.385 1098.22 951.591 1097.23 950.963C1096.54 950.528 1095.79 950.291 1094.98 950.254C1094.18 950.223 1093.38 950.384 1092.57 950.737C1091.77 951.082 1091.02 951.624 1090.32 952.362C1089.62 953.093 1089.16 953.82 1088.95 954.545C1088.74 955.261 1088.75 955.93 1088.99 956.552C1089.23 957.18 1089.7 957.712 1090.39 958.148C1091.36 958.763 1092.44 958.974 1093.61 958.782C1093.9 958.754 1094.13 958.783 1094.31 958.868C1094.5 958.959 1094.64 959.088 1094.72 959.254L1094.74 959.286C1094.84 959.473 1094.84 959.664 1094.76 959.859C1094.67 960.054 1094.48 960.177 1094.18 960.229C1093.33 960.388 1092.48 960.394 1091.63 960.247C1090.8 960.097 1090.01 959.789 1089.27 959.321ZM1094.8 962.496C1094.58 962.355 1094.47 962.2 1094.49 962.029C1094.53 961.856 1094.68 961.695 1094.95 961.547L1106.25 955.819C1106.66 955.607 1107.05 955.619 1107.43 955.856L1107.54 955.924C1107.91 956.161 1108.03 956.468 1107.88 956.847L1103.89 967.185C1103.78 967.436 1103.62 967.597 1103.43 967.667C1103.24 967.729 1103.03 967.686 1102.79 967.539L1102.56 967.395C1102.18 967.151 1102.07 966.839 1102.24 966.458L1103.2 964.062L1098.8 961.286L1096.18 962.635C1095.77 962.863 1095.37 962.858 1095 962.621L1094.8 962.496ZM1100.34 960.462L1103.8 962.643L1105.87 957.603L1100.34 960.462ZM1105.34 969.146C1104.88 968.857 1104.85 968.505 1105.25 968.087L1112.76 960.199C1113.15 959.79 1113.58 959.736 1114.06 960.037L1118.11 962.592C1119.11 963.226 1119.7 963.916 1119.86 964.662C1120.04 965.414 1119.72 966.224 1118.89 967.094C1118.15 967.867 1117.37 968.321 1116.55 968.454C1115.72 968.587 1114.86 968.426 1113.96 967.97L1112.78 972.67C1112.69 972.965 1112.55 973.159 1112.35 973.253C1112.15 973.339 1111.94 973.308 1111.7 973.16L1111.49 973.026C1111.08 972.77 1110.95 972.434 1111.08 972.019L1112.45 967.101L1109.92 965.506L1106.64 968.962C1106.24 969.379 1105.81 969.44 1105.34 969.146ZM1111 964.372L1114.22 966.398C1114.82 966.783 1115.39 966.965 1115.91 966.946C1116.45 966.925 1116.96 966.667 1117.43 966.171C1117.89 965.685 1118.06 965.23 1117.95 964.808C1117.84 964.392 1117.48 963.992 1116.87 963.608L1113.66 961.581L1111 964.372ZM1114.82 975.126C1114.34 974.825 1114.3 974.466 1114.7 974.049L1122.19 966.173C1122.59 965.756 1123.03 965.697 1123.5 965.998L1126.06 967.612C1127.18 968.316 1127.94 969.096 1128.34 969.95C1128.76 970.81 1128.84 971.709 1128.58 972.645C1128.34 973.579 1127.78 974.511 1126.89 975.441C1126.02 976.363 1125.05 977.039 1123.99 977.47C1122.94 977.907 1121.85 978.069 1120.73 977.956C1119.61 977.849 1118.49 977.444 1117.38 976.74L1114.82 975.126ZM1116.55 974.427L1118.35 975.561C1119.2 976.098 1120.05 976.4 1120.88 976.465C1121.73 976.528 1122.54 976.393 1123.31 976.06C1124.09 975.717 1124.8 975.207 1125.45 974.529C1126.1 973.842 1126.53 973.153 1126.73 972.461C1126.94 971.768 1126.89 971.1 1126.6 970.454C1126.32 969.806 1125.76 969.214 1124.9 968.676L1123.11 967.542L1116.55 974.427ZM1128.69 983.877C1128.23 983.589 1128.2 983.236 1128.6 982.819L1136.09 974.943C1136.49 974.526 1136.92 974.462 1137.37 974.75L1137.53 974.846C1137.89 975.076 1138.05 975.394 1138.01 975.797L1136.85 985.668L1142.94 979.266C1143.34 978.848 1143.78 978.79 1144.25 979.091C1144.71 979.379 1144.74 979.732 1144.34 980.149L1136.85 988.025C1136.45 988.442 1136.03 988.51 1135.58 988.228L1135.48 988.161C1135.08 987.911 1134.92 987.594 1134.99 987.209L1136.2 977.161L1129.98 983.693C1129.59 984.111 1129.15 984.172 1128.69 983.877ZM1141.96 992.499C1140.67 991.686 1139.97 990.76 1139.87 989.723C1139.78 988.677 1140.31 987.549 1141.46 986.341L1146.22 981.334C1146.62 980.917 1147.06 980.858 1147.53 981.159C1148 981.454 1148.03 981.81 1147.64 982.227L1142.92 987.182C1142.12 988.025 1141.73 988.797 1141.77 989.499C1141.81 990.206 1142.24 990.82 1143.06 991.338C1143.88 991.857 1144.71 992.041 1145.56 991.89C1146.4 991.74 1147.22 991.243 1148.02 990.4L1152.74 985.445C1153.13 985.027 1153.57 984.969 1154.05 985.27C1154.52 985.565 1154.55 985.921 1154.15 986.338L1149.39 991.345C1148.24 992.553 1147.03 993.252 1145.76 993.44C1144.5 993.619 1143.23 993.306 1141.96 992.499ZM1148.67 996.485C1148.2 996.19 1148.17 995.834 1148.56 995.417L1156.06 987.541C1156.28 987.306 1156.5 987.187 1156.72 987.183C1156.95 987.177 1157.2 987.261 1157.48 987.434C1157.85 987.671 1158 987.989 1157.93 988.389L1157.05 994.408L1163.95 992.206C1164.23 992.102 1164.47 992.072 1164.67 992.116C1164.89 992.158 1165.11 992.252 1165.35 992.4C1165.83 992.707 1165.88 993.069 1165.48 993.487L1157.99 1001.36C1157.59 1001.78 1157.15 1001.84 1156.68 1001.54C1156.2 1001.24 1156.16 1000.88 1156.56 1000.46L1162.67 994.031L1156.65 995.987C1156.21 996.157 1155.85 996.152 1155.56 995.973C1155.29 995.8 1155.19 995.513 1155.26 995.113L1156.08 989.872L1149.97 996.301C1149.57 996.718 1149.14 996.779 1148.67 996.485ZM1160.08 1003.68C1159.64 1003.41 1159.61 1003.08 1159.97 1002.7L1167.56 994.716C1167.93 994.334 1168.33 994.28 1168.76 994.556L1172.33 996.803C1173.27 997.399 1173.82 998.063 1173.96 998.796C1174.13 999.526 1173.86 1000.27 1173.14 1001.01C1172.66 1001.53 1172.11 1001.87 1171.51 1002.04C1170.9 1002.22 1170.31 1002.24 1169.73 1002.09C1170.2 1002.57 1170.41 1003.14 1170.36 1003.81C1170.33 1004.47 1170.04 1005.1 1169.47 1005.69C1168.7 1006.51 1167.83 1006.94 1166.87 1006.99C1165.93 1007.05 1164.91 1006.73 1163.84 1006.06L1160.08 1003.68ZM1161.88 1003.02L1164.74 1004.83C1165.43 1005.26 1166.04 1005.46 1166.58 1005.43C1167.13 1005.38 1167.64 1005.11 1168.12 1004.6C1168.58 1004.12 1168.75 1003.62 1168.64 1003.11C1168.52 1002.61 1168.17 1002.17 1167.59 1001.81L1164.74 1000.01L1161.88 1003.02ZM1165.82 998.876L1168.5 1000.57C1169.04 1000.91 1169.57 1001.04 1170.09 1000.97C1170.62 1000.89 1171.08 1000.65 1171.48 1000.23C1172.34 999.328 1172.18 998.507 1171.02 997.771L1168.43 996.138L1165.82 998.876ZM1169.48 1009.62C1169.01 1009.32 1168.97 1008.96 1169.36 1008.54L1176.86 1000.66C1177.26 1000.25 1177.69 1000.19 1178.17 1000.49L1183.62 1003.93C1184.11 1004.24 1184.17 1004.58 1183.82 1004.95C1183.46 1005.32 1183.04 1005.36 1182.55 1005.05L1177.77 1002.03L1175.13 1004.81L1179.44 1007.53C1179.91 1007.83 1179.97 1008.17 1179.61 1008.55C1179.25 1008.93 1178.83 1008.96 1178.36 1008.66L1174.05 1005.95L1171.22 1008.92L1176.18 1012.05C1176.67 1012.36 1176.74 1012.7 1176.38 1013.07C1176.02 1013.45 1175.6 1013.48 1175.12 1013.17L1169.48 1009.62ZM1178.02 1015.01C1177.57 1014.72 1177.54 1014.36 1177.93 1013.95L1185.44 1006.06C1185.83 1005.65 1186.26 1005.6 1186.74 1005.9L1190.79 1008.45C1191.79 1009.09 1192.38 1009.78 1192.55 1010.52C1192.73 1011.27 1192.4 1012.08 1191.57 1012.95C1190.84 1013.73 1190.06 1014.18 1189.23 1014.31C1188.41 1014.45 1187.54 1014.29 1186.65 1013.83L1185.46 1018.53C1185.38 1018.82 1185.23 1019.02 1185.03 1019.11C1184.83 1019.2 1184.62 1019.17 1184.39 1019.02L1184.17 1018.89C1183.77 1018.63 1183.63 1018.29 1183.77 1017.88L1185.13 1012.96L1182.61 1011.37L1179.32 1014.82C1178.92 1015.24 1178.49 1015.3 1178.02 1015.01ZM1183.69 1010.23L1186.9 1012.26C1187.51 1012.64 1188.07 1012.83 1188.59 1012.81C1189.13 1012.79 1189.64 1012.53 1190.11 1012.03C1190.58 1011.54 1190.75 1011.09 1190.63 1010.67C1190.52 1010.25 1190.16 1009.85 1189.55 1009.47L1186.34 1007.44L1183.69 1010.23Z" fill="black"/>
<rect width="141.716" height="1228.74" transform="matrix(0.845728 0.533615 -0.689367 0.724413 917.878 669.686)" fill="#222222"/>
<g filter="url(#filter0_b_6_2)">
<rect width="756.893" height="1228.74" rx="20" transform="matrix(0.845728 0.533615 -0.689367 0.724413 847.055 477)" fill="url(#paint0_linear_6_2)"/>
</g>
<g filter="url(#filter1_b_6_2)">
<rect width="756.893" height="1228.74" rx="20" transform="matrix(0.845728 0.533615 -0.689367 0.724413 847.055 343)" fill="url(#paint1_linear_6_2)"/>
</g>
<g filter="url(#filter2_b_6_2)">
<rect width="756.893" height="1228.74" rx="20" transform="matrix(0.845728 0.533615 -0.689367 0.724413 847.055 191)" fill="url(#paint2_linear_6_2)"/>
</g>
<rect width="756.893" height="1228.74" rx="20" transform="matrix(0.845728 0.533615 -0.689367 0.724413 847.055 0)" fill="#93FAA5"/>
<path d="M981.532 433.99C960.156 477.094 928.682 513.516 896.874 550.852C831.241 627.893 766.603 705.568 701.847 783.136C656.79 837.107 612.343 891.578 573.573 949.18C558.748 971.205 545.029 993.825 533.112 1017.37C529.908 1023.7 518.41 1040.65 526.481 1037.73C556.553 1026.85 568.753 982.319 581.786 961.475C627.929 887.676 671.484 812.571 714.362 737.062C760.085 656.543 805.601 575.657 845.441 492.182C855.413 471.287 865.864 449.973 871.72 427.18C873.161 421.568 875.679 410.954 862.926 415.774C829.159 428.538 810.251 458.646 787.796 479.658C746.891 517.933 705.311 555.674 665.235 594.499C663.073 596.593 624.727 633.846 636.211 623.324C672.244 590.309 698.2 549.132 722.612 509.374C744.74 473.335 764.893 435.821 778.159 395.481C780.604 388.046 798.465 328.521 768.53 353.704C711.439 401.734 674.491 465.434 629.888 521.156C562.334 605.551 490.391 687.279 418.774 769.229" stroke="black" stroke-width="3" stroke-linecap="round"/>
<path d="M370.795 500.472L1010.92 904.362L653.913 1279.52C646.299 1287.52 632.553 1289.23 623.211 1283.33L16.9147 900.79C7.57308 894.896 6.17297 883.631 13.7875 875.629L370.795 500.472Z" fill="#2E3339"/>
<path d="M837.437 135.073C835.403 133.789 834.058 132.345 833.401 130.741C832.744 129.136 832.982 127.739 834.114 126.549C834.701 125.933 835.342 125.572 836.038 125.467C836.778 125.356 837.471 125.504 838.116 125.911C838.612 126.224 838.933 126.596 839.078 127.028C839.223 127.46 839.188 127.914 838.973 128.39C837.942 128.556 837.153 128.925 836.607 129.499C835.98 130.158 835.782 130.951 836.011 131.878C836.241 132.805 836.939 133.636 838.105 134.372C839.667 135.358 841.228 135.866 842.787 135.898C844.365 135.907 845.64 135.402 846.611 134.382C847.177 133.787 847.391 133.208 847.252 132.645C847.113 132.081 846.618 131.224 845.767 130.075L841.816 124.777C840.255 122.704 840.354 120.743 842.114 118.894C843.549 117.385 845.33 116.536 847.456 116.347C849.601 116.137 851.741 116.704 853.874 118.05C855.636 119.162 856.803 120.459 857.376 121.943C857.994 123.422 857.697 124.798 856.483 126.073C855.998 126.583 855.443 126.896 854.817 127.011C854.211 127.105 853.648 126.988 853.127 126.659C852.606 126.33 852.283 125.939 852.158 125.487C852.078 125.028 852.241 124.586 852.645 124.161C853.17 124.152 853.605 124.07 853.952 123.915C854.318 123.738 854.664 123.48 854.987 123.14C855.553 122.545 855.708 121.86 855.452 121.086C855.221 120.328 854.472 119.55 853.207 118.752C852.116 118.063 851.031 117.617 849.954 117.414C848.922 117.205 847.986 117.209 847.144 117.426C846.302 117.643 845.649 117.996 845.183 118.484C844.698 118.994 844.525 119.531 844.663 120.095C844.827 120.674 845.32 121.512 846.142 122.609L849.835 127.49C850.687 128.639 851.099 129.75 851.072 130.821C851.045 131.892 850.516 132.97 849.485 134.053C848.009 135.605 846.215 136.53 844.103 136.83C841.991 137.13 839.769 136.544 837.437 135.073ZM854.167 145.629C852.53 144.596 851.549 143.416 851.224 142.088C850.924 140.777 851.501 139.356 852.957 137.826L863.877 126.351L861.538 124.365L862.145 123.728L864.787 125.395L867.304 122.749L871.784 124.3L868.508 127.743L873.346 130.795L872.739 131.432L867.598 128.699L856.739 140.11C854.596 142.362 854.467 144.083 856.352 145.273C856.749 145.523 857.172 145.705 857.62 145.818C858.093 145.946 858.48 146.02 858.779 146.039C859.104 146.074 859.311 146.086 859.401 146.074L859.399 146.89C857.474 147.035 855.73 146.615 854.167 145.629ZM866.621 153.487C864.835 152.36 863.785 151.085 863.471 149.663C863.182 148.256 863.755 146.798 865.191 145.29L875.959 133.974L873.657 132.012L874.264 131.374L880.59 135.366L868.973 147.574C867.942 148.657 867.393 149.672 867.328 150.617C867.262 151.562 867.775 152.378 868.867 153.067C870.008 153.787 871.403 154.157 873.052 154.177C874.745 154.191 876.456 153.979 878.185 153.539L888.983 142.192L886.682 140.23L887.288 139.592L893.614 143.584L878.812 159.138L881.114 161.1L880.507 161.738L874.181 157.746L877.093 154.687C875.189 155.186 873.321 155.333 871.49 155.13C869.683 154.942 868.06 154.395 866.621 153.487ZM889.315 167.805C887.28 166.522 885.935 165.078 885.278 163.473C884.622 161.868 884.859 160.471 885.992 159.281C886.578 158.665 887.219 158.304 887.915 158.199C888.656 158.088 889.348 158.236 889.993 158.643C890.49 158.956 890.81 159.329 890.955 159.76C891.1 160.192 891.065 160.646 890.85 161.122C889.819 161.288 889.031 161.658 888.485 162.231C887.858 162.89 887.659 163.683 887.889 164.61C888.118 165.537 888.816 166.368 889.982 167.104C891.545 168.09 893.106 168.599 894.664 168.63C896.243 168.64 897.517 168.135 898.488 167.115C899.054 166.52 899.268 165.94 899.129 165.377C898.991 164.813 898.496 163.957 897.644 162.807L893.693 157.509C892.133 155.436 892.232 153.475 893.991 151.626C895.427 150.117 897.207 149.268 899.333 149.079C901.479 148.869 903.618 149.437 905.752 150.783C907.513 151.894 908.68 153.192 909.254 154.675C909.872 156.154 909.574 157.53 908.361 158.805C907.875 159.315 907.32 159.628 906.694 159.743C906.088 159.837 905.525 159.72 905.004 159.391C904.483 159.062 904.16 158.672 904.035 158.219C903.956 157.76 904.118 157.319 904.522 156.894C905.047 156.885 905.483 156.802 905.829 156.647C906.196 156.47 906.541 156.212 906.864 155.872C907.431 155.277 907.586 154.592 907.329 153.819C907.098 153.06 906.35 152.282 905.085 151.484C903.993 150.795 902.909 150.349 901.832 150.146C900.8 149.937 899.863 149.941 899.021 150.158C898.179 150.375 897.526 150.728 897.061 151.216C896.576 151.726 896.402 152.263 896.541 152.827C896.704 153.406 897.197 154.244 898.019 155.341L901.712 160.222C902.564 161.371 902.976 162.482 902.949 163.553C902.923 164.624 902.393 165.702 901.362 166.786C899.886 168.337 898.092 169.262 895.98 169.562C893.868 169.862 891.647 169.276 889.315 167.805ZM906.045 178.361C904.407 177.328 903.426 176.148 903.101 174.82C902.801 173.509 903.379 172.088 904.835 170.558L915.754 159.083L913.416 157.097L914.022 156.46L916.664 158.127L919.182 155.481L923.661 157.032L920.385 160.475L925.223 163.527L924.616 164.165L919.475 161.431L908.617 172.842C906.473 175.094 906.344 176.816 908.229 178.005C908.626 178.256 909.049 178.437 909.498 178.55C909.971 178.679 910.357 178.752 910.657 178.771C910.981 178.806 911.188 178.818 911.278 178.807L911.277 179.622C909.352 179.767 907.608 179.347 906.045 178.361Z" fill="black"/>
<path d="M381.043 617.049C380.231 616.537 380.178 615.91 380.884 615.168L394.208 601.166C394.914 600.425 395.672 600.31 396.484 600.822C397.314 601.346 397.376 601.979 396.67 602.72L391.001 608.678L404.151 606.921C404.752 606.805 405.23 606.773 405.586 606.824C405.959 606.887 406.344 607.043 406.741 607.294C407.301 607.647 407.489 608.025 407.306 608.43C407.139 608.818 406.769 609.055 406.198 609.14L393.06 610.793L393.834 623.042C393.825 623.507 393.612 623.867 393.195 624.123C392.811 624.375 392.303 624.302 391.671 623.904C391.238 623.631 390.944 623.333 390.787 623.012C390.649 622.702 390.591 622.369 390.613 622.012L390.119 609.605L383.346 616.722C382.64 617.464 381.872 617.573 381.043 617.049ZM390.2 630.506C390.055 630.415 389.909 630.311 389.762 630.193C389.617 630.102 389.48 630.003 389.351 629.897C388.983 629.615 388.796 629.311 388.788 628.985C388.766 628.675 388.902 628.365 389.197 628.056C389.77 627.453 390.315 627.351 390.83 627.75C391.11 628.002 391.431 628.241 391.792 628.469C392.478 628.901 393.066 629.087 393.557 629.026C394.048 628.965 394.709 628.726 395.538 628.31L397.413 627.341L402.242 614.62C402.429 614.12 402.689 613.802 403.021 613.665C403.386 613.524 403.758 613.573 404.137 613.812L404.272 613.898C405.012 614.365 405.22 614.966 404.895 615.701L400.873 625.48L411.363 619.782C412.139 619.331 412.905 619.345 413.663 619.823C414.078 620.085 414.247 620.377 414.171 620.7C414.128 621.019 413.841 621.32 413.311 621.604L397.027 630.251C395.732 630.943 394.551 631.335 393.481 631.427C392.43 631.53 391.336 631.224 390.2 630.506ZM407.572 633.788C406.76 633.276 406.707 632.649 407.413 631.907L421.134 617.488C421.825 616.762 422.577 616.655 423.389 617.167C424.201 617.679 424.261 618.299 423.57 619.025L409.849 633.444C409.143 634.185 408.384 634.3 407.572 633.788ZM413.083 637.265C412.271 636.753 412.218 636.126 412.924 635.384L426.645 620.965C427.336 620.239 428.088 620.132 428.9 620.644C429.712 621.156 429.772 621.776 429.081 622.502L415.36 636.921C414.654 637.663 413.895 637.777 413.083 637.265ZM419.027 641.015C418.215 640.503 418.162 639.876 418.868 639.134L427.361 630.21C428.052 629.483 428.804 629.376 429.616 629.888C430.409 630.389 430.461 631.003 429.77 631.729L421.277 640.654C420.571 641.396 419.821 641.516 419.027 641.015ZM431.574 627.785C431.123 627.5 430.86 627.124 430.785 626.657C430.743 626.185 430.906 625.756 431.274 625.37C431.641 624.983 432.104 624.755 432.66 624.686C433.25 624.613 433.77 624.719 434.221 625.003C434.654 625.277 434.892 625.649 434.934 626.121C435.008 626.588 434.862 627.015 434.494 627.402C434.127 627.788 433.648 628.018 433.058 628.091C432.502 628.16 432.007 628.058 431.574 627.785ZM431.346 648.788C430.48 648.241 430.363 647.636 430.995 646.971L431.238 646.716C431.488 646.454 431.744 646.245 432.008 646.089C432.304 645.93 432.652 645.791 433.053 645.673L453.361 639.899L445.215 634.76C444.367 634.225 444.259 633.625 444.892 632.96C445.524 632.296 446.264 632.231 447.112 632.766L457.017 639.016C457.883 639.562 458 640.168 457.368 640.832L457.147 641.064C456.691 641.543 456.086 641.891 455.331 642.107L435.002 647.904L443.662 653.368C444.51 653.903 444.618 654.503 443.985 655.168C443.353 655.832 442.613 655.897 441.765 655.362L431.346 648.788ZM450.63 661.363C449.439 660.612 448.595 659.709 448.098 658.653C447.634 657.593 447.543 656.46 447.825 655.253C448.14 654.042 448.864 652.842 449.996 651.652C451.143 650.446 452.39 649.576 453.737 649.041C455.117 648.501 456.487 648.29 457.848 648.407C459.243 648.52 460.535 648.952 461.726 649.703C462.52 650.204 463.102 650.806 463.472 651.51C463.86 652.225 464.022 652.995 463.958 653.82L469.495 648.002C470.187 647.275 470.929 647.163 471.723 647.664C472.535 648.176 472.595 648.795 471.904 649.521L458.183 663.94C457.477 664.682 456.772 664.831 456.068 664.387C455.347 663.932 455.139 663.528 455.444 663.177L456.427 662.053C455.432 662.34 454.421 662.432 453.393 662.328C452.399 662.22 451.478 661.898 450.63 661.363ZM452.52 659.514C453.62 660.208 454.853 660.43 456.219 660.178C457.602 659.938 458.875 659.208 460.037 657.987C461.213 656.75 461.772 655.557 461.712 654.406C461.67 653.267 461.099 652.35 459.998 651.655C458.897 650.961 457.655 650.734 456.272 650.974C454.888 651.214 453.608 651.952 452.432 653.188C451.27 654.409 450.719 655.595 450.779 656.746C450.839 657.897 451.419 658.819 452.52 659.514ZM461.437 667.774C460.625 667.262 460.572 666.635 461.278 665.893L469.771 656.969C470.463 656.242 471.232 656.147 472.08 656.682C472.369 656.864 472.563 657.085 472.661 657.345C472.76 657.605 472.648 657.906 472.324 658.246L471.508 659.103C472.443 658.728 473.447 658.583 474.522 658.667C475.614 658.763 476.585 659.079 477.433 659.614C478.533 660.308 478.723 661.034 478.003 661.791C477.694 662.116 477.358 662.287 476.994 662.305C476.663 662.319 476.379 662.238 476.141 662.063C476.029 661.968 475.892 661.869 475.73 661.767C475.582 661.649 475.418 661.533 475.238 661.419C474.228 660.782 473.099 660.527 471.851 660.655C470.618 660.767 469.567 661.279 468.7 662.191L463.714 667.43C463.008 668.172 462.249 668.287 461.437 667.774ZM473.653 675.779C472.307 674.979 471.458 674.035 471.107 672.948C470.788 671.856 471.122 670.793 472.107 669.758C472.827 669 473.732 668.52 474.821 668.317C475.928 668.124 477.07 668.153 478.248 668.402C479.459 668.646 480.543 669.07 481.499 669.673C482.088 669.995 482.558 670.366 482.909 670.786C483.276 671.19 483.527 671.608 483.664 672.041L484.988 670.65C485.811 669.785 486.131 669.084 485.948 668.548C485.783 668.024 485.259 667.482 484.375 666.925C483.816 666.572 483.154 666.266 482.39 666.006C481.659 665.743 480.92 665.549 480.173 665.423C479.676 665.308 479.307 665.149 479.066 664.948C478.84 664.731 478.754 664.442 478.809 664.08C478.878 663.704 479.068 663.428 479.379 663.253C479.723 663.074 480.15 663.035 480.661 663.135C481.594 663.278 482.538 663.515 483.493 663.846C484.467 664.188 485.342 664.604 486.118 665.093C487.777 666.141 488.741 667.206 489.009 668.29C489.292 669.359 488.727 670.635 487.315 672.119L481.999 677.705C481.763 677.953 481.627 678.126 481.589 678.226C481.585 678.322 481.651 678.45 481.787 678.611C481.945 678.809 482.128 679.011 482.336 679.217C482.559 679.407 482.612 679.564 482.494 679.688C482.009 680.198 481.408 680.313 480.692 680.034C480.221 679.861 479.824 679.672 479.499 679.467C478.922 679.103 478.595 678.748 478.519 678.404C478.443 678.059 478.588 677.618 478.953 677.082C478.069 677.192 477.161 677.114 476.231 676.848C475.3 676.583 474.441 676.226 473.653 675.779ZM475.423 673.965C476.196 674.427 476.969 674.767 477.745 674.984C478.553 675.197 479.291 675.255 479.961 675.158C480.646 675.046 481.19 674.747 481.595 674.26C481.971 673.805 482.004 673.331 481.693 672.838C481.4 672.357 480.869 671.898 480.1 671.462C479.418 671.056 478.702 670.777 477.951 670.625C477.215 670.458 476.529 670.421 475.892 670.513C475.273 670.618 474.78 670.863 474.412 671.249C474.018 671.693 473.91 672.157 474.086 672.639C474.277 673.106 474.723 673.548 475.423 673.965ZM488.276 684.746C487.97 684.552 487.747 684.301 487.609 683.991C487.485 683.665 487.499 683.303 487.648 682.903L492.121 671.33C492.326 670.841 492.595 670.528 492.927 670.392C493.292 670.251 493.7 670.323 494.151 670.607C494.909 671.085 495.126 671.692 494.801 672.427L490.924 681.964L501.242 676.491C502.072 676.075 502.838 676.089 503.542 676.533C503.939 676.783 504.09 677.064 503.996 677.376C503.935 677.683 503.639 677.979 503.109 678.263L490.625 684.781C490.205 685.01 489.777 685.111 489.341 685.084C488.938 685.052 488.583 684.939 488.276 684.746ZM497.342 690.429C496.548 689.928 496.475 689.337 497.122 688.657L511.02 674.053C511.652 673.389 512.365 673.307 513.159 673.808L513.213 673.842C514.007 674.343 514.088 674.925 513.455 675.59L504.808 684.677L513.198 683.552C513.668 683.453 514.08 683.429 514.436 683.48C514.81 683.543 515.114 683.648 515.348 683.796C515.799 684.081 515.977 684.44 515.881 684.875C515.786 685.309 515.29 685.602 514.394 685.754L506.743 686.603L507.117 694.63C507.101 695.164 506.852 695.501 506.37 695.643C505.922 695.78 505.49 695.718 505.075 695.456C504.696 695.217 504.435 694.991 504.292 694.777C504.164 694.547 504.116 694.295 504.148 694.018L503.948 685.581L499.558 690.194C498.911 690.874 498.19 690.964 497.396 690.463L497.342 690.429ZM513.124 700.794C511.933 700.043 511.096 699.132 510.614 698.061C510.165 696.986 510.088 695.837 510.385 694.614C510.7 693.403 511.409 692.218 512.512 691.059C513.615 689.9 514.84 689.053 516.187 688.518C517.567 687.978 518.944 687.759 520.32 687.861C521.729 687.958 523.029 688.383 524.22 689.134C525.411 689.885 526.231 690.799 526.68 691.874C527.163 692.945 527.246 694.086 526.931 695.297C526.649 696.504 525.956 697.687 524.853 698.846C523.75 700.005 522.509 700.854 521.129 701.393C519.768 701.944 518.383 702.171 516.974 702.073C515.598 701.972 514.314 701.545 513.124 700.794ZM514.933 698.893C516.033 699.588 517.257 699.803 518.605 699.541C519.985 699.274 521.256 698.53 522.417 697.309C523.579 696.088 524.139 694.908 524.097 693.769C524.074 692.64 523.511 691.729 522.411 691.035C521.31 690.34 520.077 690.119 518.712 690.37C517.364 690.633 516.11 691.375 514.948 692.596C513.786 693.817 513.21 694.999 513.219 696.143C513.261 697.282 513.832 698.199 514.933 698.893Z" fill="white"/>
<path d="M136.292 861.076C135.656 860.674 135.603 860.196 136.132 859.639L146.125 849.138C146.655 848.582 147.238 848.504 147.873 848.906L151.283 851.057C152.772 851.996 153.786 853.035 154.327 854.174C154.881 855.321 154.986 856.519 154.643 857.768C154.324 859.013 153.574 860.256 152.394 861.496C151.225 862.725 149.934 863.626 148.521 864.201C147.122 864.783 145.671 864.999 144.169 864.849C142.679 864.707 141.191 864.166 139.702 863.227L136.292 861.076ZM138.608 860.144L141.003 861.655C142.14 862.372 143.262 862.774 144.371 862.862C145.503 862.946 146.585 862.765 147.614 862.32C148.655 861.864 149.605 861.184 150.466 860.28C151.337 859.364 151.909 858.445 152.181 857.522C152.452 856.599 152.391 855.707 151.998 854.847C151.628 853.983 150.875 853.193 149.739 852.475L147.344 850.964L138.608 860.144ZM152.345 871.51C151.425 870.93 150.773 870.249 150.389 869.469C150.005 868.689 149.926 867.851 150.151 866.954C150.388 866.046 150.947 865.128 151.829 864.201C152.679 863.309 153.608 862.662 154.619 862.26C155.64 861.847 156.659 861.674 157.678 861.742C158.71 861.818 159.673 862.138 160.566 862.701C161.459 863.265 162.04 863.928 162.31 864.692C162.604 865.453 162.643 866.219 162.427 866.992C162.225 867.774 161.837 868.466 161.263 869.068C160.944 869.404 160.647 869.579 160.375 869.593C160.113 869.594 159.827 869.497 159.515 869.301L153.467 865.484C152.611 866.429 152.209 867.307 152.26 868.118C152.336 868.926 152.806 869.603 153.672 870.15C154.701 870.799 155.815 870.936 157.016 870.562C157.42 870.502 157.744 870.502 157.989 870.564C158.244 870.614 158.42 870.771 158.515 871.035C158.624 871.307 158.598 871.551 158.437 871.765C158.29 871.988 157.998 872.147 157.561 872.242C156.596 872.505 155.676 872.573 154.8 872.447C153.948 872.318 153.13 872.006 152.345 871.51ZM154.759 864.297L159.874 867.524C160.34 866.853 160.532 866.195 160.452 865.551C160.372 864.907 160.001 864.376 159.338 863.958C158.634 863.514 157.887 863.32 157.096 863.378C156.316 863.424 155.537 863.73 154.759 864.297ZM163.112 878.304C161.8 877.476 161.266 876.341 161.511 874.9L160.865 875.579C160.656 875.799 160.42 875.91 160.159 875.912C159.908 875.902 159.654 875.816 159.397 875.654C158.856 875.312 158.85 874.863 159.379 874.307L169.67 863.493C170.189 862.948 170.752 862.868 171.361 863.252C171.97 863.636 172.015 864.101 171.497 864.646L167.344 869.009C168.068 868.817 168.779 868.765 169.476 868.852C170.172 868.939 170.825 869.175 171.434 869.559C172.327 870.122 172.948 870.801 173.296 871.596C173.655 872.379 173.717 873.225 173.48 874.133C173.269 875.038 172.733 875.943 171.872 876.847C171.023 877.74 170.081 878.388 169.046 878.793C168.036 879.194 167.015 879.357 165.983 879.281C164.962 879.193 164.005 878.867 163.112 878.304ZM164.408 876.84C165.233 877.361 166.165 877.531 167.202 877.351C168.24 877.171 169.195 876.623 170.066 875.707C170.948 874.78 171.367 873.885 171.322 873.022C171.277 872.159 170.842 871.467 170.017 870.946C169.191 870.425 168.26 870.255 167.222 870.435C166.198 870.623 165.245 871.181 164.362 872.109C163.491 873.024 163.071 873.909 163.102 874.764C163.147 875.627 163.582 876.319 164.408 876.84ZM170.934 882.933C170.325 882.549 170.285 882.078 170.814 881.522L177.184 874.828C177.703 874.284 178.266 874.203 178.875 874.588C179.471 874.963 179.509 875.424 178.991 875.968L172.621 882.662C172.092 883.218 171.529 883.309 170.934 882.933ZM180.344 873.01C180.006 872.797 179.809 872.515 179.752 872.164C179.721 871.81 179.843 871.488 180.119 871.199C180.395 870.909 180.741 870.738 181.159 870.686C181.601 870.631 181.991 870.71 182.329 870.924C182.654 871.129 182.832 871.408 182.864 871.762C182.92 872.113 182.81 872.433 182.534 872.723C182.258 873.012 181.9 873.185 181.457 873.24C181.04 873.292 180.669 873.215 180.344 873.01ZM178.158 887.797C177.238 887.217 176.685 886.626 176.498 886.026C176.322 885.414 176.648 884.674 177.475 883.805L182.19 878.85L181.175 878.209C180.54 877.808 180.437 877.381 180.867 876.929C181.087 876.698 181.315 876.572 181.55 876.553C181.809 876.531 182.114 876.631 182.466 876.853L183.481 877.494L185.549 875.32C186.067 874.776 186.631 874.695 187.24 875.08C187.835 875.455 187.874 875.915 187.355 876.46L185.287 878.633L187.155 879.812C187.791 880.213 187.894 880.64 187.463 881.092C187.033 881.544 186.5 881.569 185.864 881.168L183.997 879.989L179.596 884.614C179.166 885.066 178.988 885.446 179.064 885.753C179.164 886.058 179.451 886.359 179.925 886.658C179.952 886.675 179.992 886.701 180.047 886.735C180.412 886.965 180.689 887.187 180.877 887.398C181.077 887.598 181.028 887.855 180.73 888.168C180.399 888.515 180.005 888.61 179.549 888.452C179.096 888.315 178.632 888.096 178.158 887.797ZM192.851 897.179C191.566 896.368 190.677 895.39 190.186 894.245C189.694 893.1 189.617 891.873 189.953 890.564C190.302 889.264 191.089 887.97 192.314 886.684C193.538 885.397 194.88 884.454 196.339 883.853C197.823 883.25 199.307 882.999 200.791 883.101C202.286 883.191 203.676 883.642 204.962 884.453C205.95 885.076 206.701 885.8 207.215 886.625C207.729 887.451 208.001 888.337 208.032 889.283C208.061 889.617 207.935 889.862 207.655 890.02C207.4 890.174 207.104 890.247 206.766 890.238L206.652 890.221C206.426 890.208 206.19 890.115 205.943 889.941C205.722 889.764 205.586 889.521 205.535 889.21C205.475 887.93 204.783 886.871 203.456 886.035C202.536 885.454 201.537 885.139 200.458 885.089C199.393 885.048 198.322 885.263 197.246 885.734C196.181 886.193 195.179 886.915 194.242 887.901C193.315 888.874 192.706 889.844 192.415 890.81C192.135 891.765 192.152 892.657 192.467 893.486C192.796 894.325 193.42 895.034 194.34 895.614C195.639 896.434 197.071 896.716 198.635 896.46C199.017 896.423 199.328 896.461 199.566 896.574C199.818 896.696 200.002 896.868 200.116 897.089L200.141 897.132C200.271 897.381 200.278 897.636 200.161 897.896C200.043 898.155 199.789 898.32 199.399 898.389C198.266 898.601 197.132 898.609 195.997 898.413C194.888 898.214 193.839 897.802 192.851 897.179ZM203.053 903.421C202.043 902.821 201.406 902.113 201.143 901.298C200.904 900.479 201.154 899.682 201.893 898.905C202.433 898.337 203.112 897.977 203.928 897.824C204.759 897.68 205.615 897.701 206.499 897.888C207.407 898.072 208.22 898.389 208.937 898.842C209.379 899.083 209.731 899.362 209.995 899.676C210.269 899.979 210.458 900.293 210.561 900.618L211.553 899.575C212.171 898.925 212.411 898.4 212.274 897.998C212.15 897.605 211.757 897.199 211.094 896.78C210.674 896.516 210.178 896.286 209.605 896.092C209.057 895.894 208.503 895.748 207.942 895.654C207.57 895.568 207.293 895.449 207.112 895.298C206.942 895.135 206.878 894.918 206.919 894.647C206.971 894.365 207.114 894.158 207.347 894.027C207.605 893.893 207.925 893.863 208.309 893.938C209.008 894.045 209.716 894.223 210.433 894.471C211.163 894.728 211.819 895.04 212.401 895.407C213.646 896.192 214.369 896.992 214.57 897.805C214.781 898.606 214.358 899.563 213.299 900.676L209.312 904.866C209.135 905.051 209.033 905.182 209.005 905.257C209.001 905.329 209.051 905.425 209.153 905.545C209.271 905.694 209.408 905.845 209.565 906C209.732 906.142 209.772 906.26 209.684 906.353C209.32 906.735 208.869 906.822 208.332 906.613C207.979 906.483 207.681 906.341 207.437 906.187C207.004 905.914 206.759 905.648 206.702 905.39C206.645 905.131 206.753 904.801 207.028 904.399C206.364 904.481 205.684 904.423 204.986 904.223C204.287 904.024 203.643 903.756 203.053 903.421ZM204.38 902.06C204.959 902.407 205.54 902.662 206.121 902.825C206.727 902.985 207.281 903.028 207.784 902.956C208.297 902.871 208.705 902.647 209.009 902.282C209.291 901.941 209.315 901.585 209.082 901.215C208.863 900.854 208.465 900.51 207.888 900.183C207.376 899.879 206.839 899.67 206.276 899.556C205.724 899.43 205.21 899.402 204.732 899.472C204.268 899.55 203.898 899.734 203.622 900.024C203.327 900.357 203.245 900.704 203.377 901.066C203.521 901.416 203.855 901.748 204.38 902.06ZM211.632 908.612C211.023 908.227 210.983 907.757 211.513 907.201L217.883 900.507C218.401 899.962 218.978 899.891 219.614 900.292C219.831 900.429 219.976 900.594 220.05 900.79C220.124 900.985 220.04 901.21 219.797 901.465L219.185 902.108C219.886 901.827 220.639 901.718 221.445 901.781C222.265 901.853 222.993 902.09 223.629 902.491C224.454 903.012 224.597 903.556 224.056 904.124C223.824 904.368 223.572 904.496 223.3 904.509C223.051 904.52 222.838 904.459 222.66 904.328C222.576 904.257 222.473 904.183 222.352 904.106C222.241 904.018 222.118 903.931 221.982 903.845C221.225 903.367 220.378 903.176 219.442 903.272C218.517 903.356 217.729 903.74 217.079 904.424L213.34 908.353C212.81 908.91 212.241 908.996 211.632 908.612ZM221.922 915.41C221.029 914.846 220.396 914.169 220.023 913.377C219.675 912.582 219.606 911.732 219.818 910.827C220.054 909.919 220.597 909.019 221.447 908.126C222.307 907.222 223.242 906.569 224.252 906.168C225.287 905.763 226.315 905.605 227.336 905.693C228.381 905.777 229.351 906.101 230.244 906.665C230.839 907.04 231.276 907.492 231.553 908.02C231.844 908.556 231.966 909.133 231.918 909.753L236.071 905.389C236.589 904.844 237.146 904.759 237.742 905.135C238.351 905.519 238.396 905.984 237.877 906.528L227.587 917.343C227.057 917.899 226.528 918.011 226.001 917.678C225.459 917.336 225.303 917.034 225.533 916.77L226.27 915.927C225.523 916.143 224.765 916.211 223.994 916.133C223.249 916.052 222.558 915.811 221.922 915.41ZM223.339 914.023C224.165 914.544 225.089 914.71 226.113 914.521C227.151 914.341 228.106 913.793 228.977 912.877C229.859 911.95 230.278 911.055 230.233 910.192C230.202 909.337 229.773 908.65 228.948 908.129C228.122 907.608 227.191 907.438 226.153 907.618C225.116 907.798 224.156 908.351 223.273 909.279C222.402 910.194 221.989 911.084 222.034 911.947C222.079 912.81 222.514 913.502 223.339 914.023Z" fill="white"/>
<circle r="41.3239" transform="matrix(0.845728 0.533615 -0.689367 0.724413 554.535 1130.5)" fill="white" stroke="white"/>
<circle r="39.3239" transform="matrix(0.845728 0.533615 -0.689367 0.724413 591.717 1153.96)" stroke="white" stroke-width="3"/>
<path d="M1288.58 449.697C1287.55 450.78 1287.74 452.306 1289.01 453.104C1290.27 453.902 1292.13 453.671 1293.16 452.587C1294.2 451.503 1294.01 449.978 1292.74 449.18C1291.48 448.382 1289.61 448.613 1288.58 449.697Z" fill="black"/>
<path d="M1302.33 458.368C1304.74 455.829 1305.92 452.663 1305.6 449.537C1305.53 448.896 1305.16 448.315 1304.56 447.922C1303.96 447.529 1303.19 447.357 1302.4 447.443C1301.62 447.528 1300.9 447.865 1300.39 448.379C1299.89 448.893 1299.64 449.542 1299.7 450.183C1299.84 452.048 1299.11 453.921 1297.67 455.432C1296.24 456.943 1294.19 457.982 1291.94 458.344C1291.16 458.453 1290.45 458.81 1289.96 459.337C1289.48 459.864 1289.26 460.519 1289.35 461.157C1289.45 461.794 1289.84 462.363 1290.46 462.737C1291.08 463.111 1291.86 463.261 1292.64 463.153C1296.44 462.622 1299.91 460.907 1302.33 458.368V458.368ZM1313.78 465.594C1316.03 463.223 1317.7 460.526 1318.7 457.662C1319.69 454.798 1319.98 451.827 1319.56 448.926C1319.51 448.607 1319.38 448.303 1319.19 448.031C1318.99 447.758 1318.73 447.523 1318.42 447.339C1318.11 447.154 1317.75 447.024 1317.37 446.955C1316.99 446.886 1316.6 446.88 1316.21 446.938C1315.42 447.054 1314.71 447.421 1314.23 447.957C1313.99 448.223 1313.81 448.523 1313.71 448.839C1313.61 449.156 1313.58 449.482 1313.63 449.801C1313.96 452.061 1313.74 454.376 1312.96 456.607C1312.19 458.838 1310.88 460.939 1309.13 462.785C1307.37 464.631 1305.2 466.184 1302.74 467.351C1300.28 468.518 1297.58 469.275 1294.81 469.577C1294.42 469.623 1294.04 469.731 1293.7 469.895C1293.35 470.06 1293.05 470.278 1292.8 470.537C1292.44 470.921 1292.21 471.38 1292.16 471.855C1292.1 472.331 1292.21 472.803 1292.48 473.213C1292.75 473.623 1293.16 473.953 1293.67 474.163C1294.17 474.372 1294.75 474.452 1295.33 474.392C1298.9 474 1302.38 473.019 1305.55 471.507C1308.72 469.995 1311.52 467.983 1313.78 465.594Z" fill="black"/>
<path d="M1298.08 486.21C1308.72 484.729 1318.45 479.925 1325.22 472.812C1331.99 465.698 1335.27 456.828 1334.38 448.07C1334.26 447.468 1333.87 446.935 1333.29 446.578C1332.7 446.221 1331.96 446.067 1331.22 446.146C1330.48 446.225 1329.78 446.532 1329.28 447.005C1328.78 447.478 1328.5 448.082 1328.5 448.696C1329.28 456.212 1326.46 463.827 1320.65 469.932C1314.84 476.038 1306.49 480.158 1297.36 481.422C1296.6 481.527 1295.91 481.867 1295.43 482.371C1295.18 482.636 1294.99 482.937 1294.89 483.257C1294.78 483.577 1294.75 483.908 1294.8 484.232C1294.89 484.866 1295.29 485.43 1295.91 485.801C1296.53 486.171 1297.31 486.319 1298.08 486.21V486.21Z" fill="black"/>
<defs>
<filter id="filter0_b_6_2" x="0.879395" y="476.165" width="1485.42" height="1295.68" filterUnits="userSpaceOnUse" color-interpolation-filters="sRGB">
<feFlood flood-opacity="0" result="BackgroundImageFix"/>
<feGaussianBlur in="BackgroundImage" stdDeviation="4"/>
<feComposite in2="SourceAlpha" operator="in" result="effect1_backgroundBlur_6_2"/>
<feBlend mode="normal" in="SourceGraphic" in2="effect1_backgroundBlur_6_2" result="shape"/>
</filter>
<filter id="filter1_b_6_2" x="-14.1206" y="327.165" width="1515.42" height="1325.68" filterUnits="userSpaceOnUse" color-interpolation-filters="sRGB">
<feFlood flood-opacity="0" result="BackgroundImageFix"/>
<feGaussianBlur in="BackgroundImage" stdDeviation="11.5"/>
<feComposite in2="SourceAlpha" operator="in" result="effect1_backgroundBlur_6_2"/>
<feBlend mode="normal" in="SourceGraphic" in2="effect1_backgroundBlur_6_2" result="shape"/>
</filter>
<filter id="filter2_b_6_2" x="-37.1206" y="152.165" width="1561.42" height="1371.68" filterUnits="userSpaceOnUse" color-interpolation-filters="sRGB">
<feFlood flood-opacity="0" result="BackgroundImageFix"/>
<feGaussianBlur in="BackgroundImage" stdDeviation="23"/>
<feComposite in2="SourceAlpha" operator="in" result="effect1_backgroundBlur_6_2"/>
<feBlend mode="normal" in="SourceGraphic" in2="effect1_backgroundBlur_6_2" result="shape"/>
</filter>
<linearGradient id="paint0_linear_6_2" x1="0" y1="0" x2="594.16" y2="1303.45" gradientUnits="userSpaceOnUse">
<stop stop-color="white" stop-opacity="0.4"/>
<stop offset="1" stop-color="white" stop-opacity="0"/>
</linearGradient>
<linearGradient id="paint1_linear_6_2" x1="0" y1="0" x2="594.16" y2="1303.45" gradientUnits="userSpaceOnUse">
<stop stop-color="white" stop-opacity="0.4"/>
<stop offset="1" stop-color="white" stop-opacity="0"/>
</linearGradient>
<linearGradient id="paint2_linear_6_2" x1="0" y1="0" x2="594.16" y2="1303.45" gradientUnits="userSpaceOnUse">
<stop stop-color="white" stop-opacity="0.4"/>
<stop offset="1" stop-color="white" stop-opacity="0"/>
</linearGradient>
</defs>
</svg>
