<svg width="470" height="763" viewBox="0 0 470 763" fill="none" xmlns="http://www.w3.org/2000/svg">
<rect width="470" height="763" rx="20" fill="#D3FE57"/>
<path d="M251.164 187C260.176 217.311 261.637 247.455 263.345 278.201C266.868 341.644 271.126 405.091 275.282 468.519C278.173 512.653 281.563 556.848 288.924 600.802C291.739 617.608 295.32 634.36 300.13 650.996C301.424 655.468 303.549 668.433 305.977 664.142C315.024 648.152 301.181 620.179 298.06 604.611C287.01 549.491 274.203 494.546 260.908 439.613C246.732 381.035 232.3 322.331 214.134 264.158C209.587 249.597 205.077 234.65 197.812 220.463C196.024 216.97 192.545 210.434 188.799 217.325C178.879 235.573 183.35 258.088 182.221 276.931C180.165 311.254 177.566 345.52 176.131 379.858C176.053 381.71 174.725 414.621 175.4 405.105C177.517 375.246 171.448 344.419 165.29 314.875C159.707 288.095 152.576 261.192 141.05 235.103C138.926 230.294 121.132 192.376 118.394 215.981C113.171 260.999 124.03 307.602 127.895 352.521C133.748 420.552 136.422 488.638 139.345 556.732" stroke="black" stroke-width="3" stroke-linecap="round"/>
<path d="M0 429H470V743C470 754.046 461.046 763 450 763H20C8.9543 763 0 754.046 0 743V429Z" fill="#2E3339"/>
<path d="M58.56 92.44C56.1547 92.44 54.1453 91.9267 52.532 90.9C50.9187 89.8733 50.112 88.5387 50.112 86.896C50.112 86.0453 50.332 85.3853 50.772 84.916C51.2413 84.4173 51.8573 84.168 52.62 84.168C53.2067 84.168 53.7053 84.3147 54.116 84.608C54.5267 84.9013 54.82 85.312 54.996 85.84C54.3507 86.544 54.028 87.292 54.028 88.084C54.028 88.9933 54.4387 89.7853 55.26 90.46C56.0813 91.1347 57.1813 91.472 58.56 91.472C60.408 91.472 61.9187 91.0613 63.092 90.24C64.2653 89.3893 64.852 88.26 64.852 86.852C64.852 86.0307 64.6027 85.4147 64.104 85.004C63.6053 84.5933 62.6373 84.124 61.2 83.596L54.556 81.176C51.9453 80.2373 50.64 78.492 50.64 75.94C50.64 73.8573 51.3587 72.156 52.796 70.836C54.2333 69.4867 56.2133 68.812 58.736 68.812C60.8187 68.812 62.5933 69.296 64.06 70.264C65.556 71.2027 66.304 72.552 66.304 74.312C66.304 75.016 66.1133 75.588 65.732 76.028C65.3507 76.4387 64.852 76.644 64.236 76.644C63.62 76.644 63.1067 76.4827 62.696 76.16C62.3147 75.808 62.124 75.3387 62.124 74.752C62.5053 74.4587 62.7693 74.1507 62.916 73.828C63.0627 73.476 63.136 73.0653 63.136 72.596C63.136 71.7747 62.7693 71.1 62.036 70.572C61.332 70.044 60.232 69.78 58.736 69.78C57.4453 69.78 56.3307 69.9853 55.392 70.396C54.4827 70.7773 53.7933 71.2907 53.324 71.936C52.8547 72.5813 52.62 73.2413 52.62 73.916C52.62 74.62 52.8693 75.1773 53.368 75.588C53.896 75.9987 54.8493 76.4533 56.228 76.952L62.388 79.152C63.8253 79.68 64.9107 80.4133 65.644 81.352C66.3773 82.2907 66.744 83.508 66.744 85.004C66.744 87.1453 66.0693 88.92 64.72 90.328C63.3707 91.736 61.3173 92.44 58.56 92.44ZM78.3418 92.44C76.4058 92.44 74.8511 91.956 73.6778 90.988C72.5338 90.02 71.9618 88.48 71.9618 86.368V70.528L68.8378 70.088V69.208H71.9618V65.556L76.3618 64.456V69.208H82.0818V70.088L76.3618 70.528V86.28C76.3618 89.3893 77.4764 90.944 79.7058 90.944C80.1751 90.944 80.6151 90.8707 81.0258 90.724C81.4658 90.5773 81.8031 90.4307 82.0378 90.284C82.3018 90.1373 82.4631 90.0347 82.5218 89.976L83.0938 90.68C81.7738 91.8533 80.1898 92.44 78.3418 92.44ZM93.0677 92.44C90.9557 92.44 89.2837 91.912 88.0517 90.856C86.849 89.8 86.2477 88.2307 86.2477 86.148V70.528L83.1677 70.088V69.208H90.6477V86.06C90.6477 87.556 90.9557 88.7293 91.5717 89.58C92.1877 90.4307 93.141 90.856 94.4317 90.856C95.781 90.856 97.0717 90.416 98.3037 89.536C99.565 88.6267 100.68 87.512 101.648 86.192V70.528L98.5677 70.088V69.208H106.048V90.68L109.128 91.12V92H101.648V87.776C100.592 89.2427 99.3157 90.3867 97.8197 91.208C96.353 92.0293 94.769 92.44 93.0677 92.44ZM119.9 92.44C117.495 92.44 115.486 91.9267 113.872 90.9C112.259 89.8733 111.452 88.5387 111.452 86.896C111.452 86.0453 111.672 85.3853 112.112 84.916C112.582 84.4173 113.198 84.168 113.96 84.168C114.547 84.168 115.046 84.3147 115.456 84.608C115.867 84.9013 116.16 85.312 116.336 85.84C115.691 86.544 115.368 87.292 115.368 88.084C115.368 88.9933 115.779 89.7853 116.6 90.46C117.422 91.1347 118.522 91.472 119.9 91.472C121.748 91.472 123.259 91.0613 124.432 90.24C125.606 89.3893 126.192 88.26 126.192 86.852C126.192 86.0307 125.943 85.4147 125.444 85.004C124.946 84.5933 123.978 84.124 122.54 83.596L115.896 81.176C113.286 80.2373 111.98 78.492 111.98 75.94C111.98 73.8573 112.699 72.156 114.136 70.836C115.574 69.4867 117.554 68.812 120.076 68.812C122.159 68.812 123.934 69.296 125.4 70.264C126.896 71.2027 127.644 72.552 127.644 74.312C127.644 75.016 127.454 75.588 127.072 76.028C126.691 76.4387 126.192 76.644 125.576 76.644C124.96 76.644 124.447 76.4827 124.036 76.16C123.655 75.808 123.464 75.3387 123.464 74.752C123.846 74.4587 124.11 74.1507 124.256 73.828C124.403 73.476 124.476 73.0653 124.476 72.596C124.476 71.7747 124.11 71.1 123.376 70.572C122.672 70.044 121.572 69.78 120.076 69.78C118.786 69.78 117.671 69.9853 116.732 70.396C115.823 70.7773 115.134 71.2907 114.664 71.936C114.195 72.5813 113.96 73.2413 113.96 73.916C113.96 74.62 114.21 75.1773 114.708 75.588C115.236 75.9987 116.19 76.4533 117.568 76.952L123.728 79.152C125.166 79.68 126.251 80.4133 126.984 81.352C127.718 82.2907 128.084 83.508 128.084 85.004C128.084 87.1453 127.41 88.92 126.06 90.328C124.711 91.736 122.658 92.44 119.9 92.44ZM139.682 92.44C137.746 92.44 136.192 91.956 135.018 90.988C133.874 90.02 133.302 88.48 133.302 86.368V70.528L130.178 70.088V69.208H133.302V65.556L137.702 64.456V69.208H143.422V70.088L137.702 70.528V86.28C137.702 89.3893 138.817 90.944 141.046 90.944C141.516 90.944 141.956 90.8707 142.366 90.724C142.806 90.5773 143.144 90.4307 143.378 90.284C143.642 90.1373 143.804 90.0347 143.862 89.976L144.434 90.68C143.114 91.8533 141.53 92.44 139.682 92.44Z" fill="black"/>
<path d="M60.2327 502C59.2727 502 58.7927 501.488 58.7927 500.464V481.136C58.7927 480.112 59.2727 479.6 60.2327 479.6C61.2141 479.6 61.7048 480.112 61.7048 481.136V489.36L70.1848 480.688C70.5474 480.261 70.8781 479.973 71.1768 479.824C71.4968 479.675 71.8914 479.6 72.3608 479.6C73.0221 479.6 73.4274 479.824 73.5768 480.272C73.7261 480.699 73.6194 481.104 73.2568 481.488L64.7128 490.064L73.8968 500.208C74.2168 500.613 74.3128 501.04 74.1848 501.488C74.0781 501.915 73.6514 502.128 72.9047 502.128C72.3928 502.128 71.9661 502.032 71.6248 501.84C71.3048 501.648 71.0274 501.392 70.7928 501.072L61.7048 490.64V500.464C61.7048 501.488 61.2141 502 60.2327 502ZM76.4595 508.624C76.2888 508.624 76.1075 508.613 75.9155 508.592C75.7448 508.592 75.5742 508.581 75.4035 508.56C74.9342 508.517 74.5822 508.357 74.3475 508.08C74.1128 507.824 73.9955 507.483 73.9955 507.056C73.9955 506.224 74.3262 505.84 74.9875 505.904C75.3715 505.968 75.7768 506 76.2035 506C77.0142 506 77.5795 505.84 77.8995 505.52C78.2195 505.2 78.5395 504.635 78.8595 503.824L79.5635 501.968L74.1875 488.368C73.9742 487.835 73.9422 487.419 74.0915 487.12C74.2622 486.8 74.5715 486.64 75.0195 486.64H75.1795C76.0542 486.64 76.6302 487.045 76.9075 487.856L80.8115 498.48L84.5555 487.856C84.8115 487.045 85.3875 486.64 86.2835 486.64C86.7742 486.64 87.1048 486.8 87.2755 487.12C87.4675 487.419 87.4675 487.835 87.2755 488.368L81.3235 504.688C80.8542 505.989 80.2568 506.971 79.5315 507.632C78.8275 508.293 77.8035 508.624 76.4595 508.624ZM91.6015 502C90.6415 502 90.1615 501.488 90.1615 500.464V480.56C90.1615 479.557 90.6415 479.056 91.6015 479.056C92.5615 479.056 93.0415 479.557 93.0415 480.56V500.464C93.0415 501.488 92.5615 502 91.6015 502ZM98.1177 502C97.1577 502 96.6777 501.488 96.6777 500.464V480.56C96.6777 479.557 97.1577 479.056 98.1177 479.056C99.0777 479.056 99.5577 479.557 99.5577 480.56V500.464C99.5577 501.488 99.0777 502 98.1177 502ZM105.146 502C104.186 502 103.706 501.488 103.706 500.464V488.144C103.706 487.141 104.186 486.64 105.146 486.64C106.085 486.64 106.554 487.141 106.554 488.144V500.464C106.554 501.488 106.085 502 105.146 502ZM105.114 483.76C104.581 483.76 104.122 483.579 103.738 483.216C103.375 482.832 103.194 482.373 103.194 481.84C103.194 481.307 103.375 480.859 103.738 480.496C104.122 480.112 104.581 479.92 105.114 479.92C105.626 479.92 106.063 480.112 106.426 480.496C106.81 480.859 107.002 481.307 107.002 481.84C107.002 482.373 106.81 482.832 106.426 483.216C106.063 483.579 105.626 483.76 105.114 483.76ZM119.712 502C118.688 502 118.176 501.541 118.176 500.624V500.272C118.176 499.909 118.218 499.589 118.304 499.312C118.41 499.013 118.57 498.704 118.784 498.384L129.728 482.352H120.096C119.093 482.352 118.592 481.893 118.592 480.976C118.592 480.059 119.093 479.6 120.096 479.6H131.808C132.832 479.6 133.344 480.059 133.344 480.976V481.296C133.344 481.957 133.141 482.587 132.736 483.184L121.792 499.248H132.032C133.034 499.248 133.536 499.707 133.536 500.624C133.536 501.541 133.034 502 132.032 502H119.712ZM142.8 502.352C141.392 502.352 140.134 502.032 139.024 501.392C137.936 500.731 137.072 499.803 136.432 498.608C135.814 497.392 135.504 495.963 135.504 494.32C135.504 492.656 135.814 491.227 136.432 490.032C137.072 488.816 137.936 487.888 139.024 487.248C140.134 486.587 141.392 486.256 142.8 486.256C143.739 486.256 144.592 486.459 145.36 486.864C146.15 487.269 146.811 487.845 147.344 488.592V480.56C147.344 479.557 147.814 479.056 148.752 479.056C149.712 479.056 150.192 479.557 150.192 480.56V500.464C150.192 501.488 149.776 502 148.944 502C148.091 502 147.654 501.765 147.632 501.296L147.568 499.792C147.035 500.581 146.352 501.211 145.52 501.68C144.71 502.128 143.803 502.352 142.8 502.352ZM142.896 499.728C144.198 499.728 145.264 499.248 146.096 498.288C146.95 497.328 147.376 496.005 147.376 494.32C147.376 492.613 146.95 491.28 146.096 490.32C145.264 489.36 144.198 488.88 142.896 488.88C141.595 488.88 140.518 489.36 139.664 490.32C138.811 491.28 138.384 492.613 138.384 494.32C138.384 496.005 138.811 497.328 139.664 498.288C140.518 499.248 141.595 499.728 142.896 499.728ZM155.293 502C154.333 502 153.853 501.488 153.853 500.464V488.144C153.853 487.141 154.354 486.64 155.357 486.64C155.698 486.64 155.997 486.725 156.253 486.896C156.509 487.067 156.637 487.387 156.637 487.856V489.04C157.063 488.208 157.703 487.536 158.557 487.024C159.431 486.512 160.37 486.256 161.373 486.256C162.674 486.256 163.325 486.779 163.325 487.824C163.325 488.272 163.197 488.603 162.941 488.816C162.706 489.008 162.439 489.093 162.141 489.072C161.991 489.051 161.821 489.04 161.629 489.04C161.437 489.019 161.234 489.008 161.021 489.008C159.826 489.008 158.813 489.403 157.981 490.192C157.149 490.96 156.733 491.973 156.733 493.232V500.464C156.733 501.488 156.253 502 155.293 502ZM169.946 502.256C168.388 502.299 167.098 501.947 166.074 501.2C165.071 500.432 164.57 499.333 164.57 497.904C164.57 496.859 164.9 495.952 165.562 495.184C166.244 494.416 167.108 493.819 168.154 493.392C169.22 492.944 170.319 492.72 171.45 492.72C172.111 492.677 172.719 492.741 173.274 492.912C173.828 493.061 174.308 493.285 174.714 493.584V491.664C174.714 490.469 174.458 489.691 173.946 489.328C173.455 488.965 172.687 488.784 171.642 488.784C170.98 488.784 170.276 488.88 169.53 489.072C168.804 489.243 168.122 489.477 167.482 489.776C167.034 489.947 166.65 490.011 166.33 489.968C166.01 489.904 165.743 489.701 165.53 489.36C165.316 488.997 165.263 488.656 165.37 488.336C165.498 487.995 165.786 487.728 166.234 487.536C167.023 487.152 167.887 486.843 168.826 486.608C169.786 486.373 170.724 486.256 171.642 486.256C173.604 486.256 175.066 486.651 176.026 487.44C176.986 488.208 177.466 489.616 177.466 491.664V499.376C177.466 499.717 177.487 499.941 177.53 500.048C177.594 500.133 177.732 500.208 177.946 500.272C178.202 500.357 178.479 500.432 178.778 500.496C179.076 500.539 179.226 500.645 179.226 500.816C179.226 501.52 178.863 501.947 178.138 502.096C177.668 502.203 177.242 502.256 176.858 502.256C176.175 502.256 175.684 502.128 175.386 501.872C175.087 501.616 174.884 501.157 174.778 500.496C174.202 501.072 173.476 501.499 172.602 501.776C171.727 502.053 170.842 502.213 169.946 502.256ZM169.978 499.728C170.874 499.707 171.684 499.579 172.41 499.344C173.156 499.088 173.743 498.736 174.17 498.288C174.596 497.819 174.788 497.264 174.746 496.624C174.703 496.027 174.394 495.6 173.818 495.344C173.263 495.088 172.548 494.981 171.674 495.024C170.884 495.045 170.159 495.195 169.498 495.472C168.836 495.728 168.303 496.069 167.898 496.496C167.514 496.923 167.322 497.403 167.322 497.936C167.343 498.533 167.588 498.992 168.058 499.312C168.527 499.611 169.167 499.749 169.978 499.728ZM187.054 502.032C186.691 502.032 186.35 501.936 186.03 501.744C185.71 501.531 185.464 501.211 185.294 500.784L180.462 488.368C180.27 487.835 180.248 487.419 180.398 487.12C180.568 486.8 180.92 486.64 181.454 486.64C182.35 486.64 182.936 487.045 183.214 487.856L187.054 498.192L190.83 487.856C191.15 487.045 191.726 486.64 192.558 486.64C193.027 486.64 193.336 486.8 193.486 487.12C193.656 487.419 193.646 487.835 193.454 488.368L188.814 500.784C188.664 501.211 188.419 501.531 188.078 501.744C187.758 501.936 187.416 502.032 187.054 502.032ZM197.747 502C196.808 502 196.339 501.531 196.339 500.592V480.432C196.339 479.515 196.808 479.056 197.747 479.056H197.811C198.75 479.056 199.219 479.515 199.219 480.432V492.976L204.627 487.44C204.904 487.099 205.192 486.853 205.491 486.704C205.811 486.555 206.11 486.48 206.387 486.48C206.92 486.48 207.304 486.693 207.539 487.12C207.774 487.547 207.614 488.069 207.059 488.688L202.003 493.584L207.923 500.304C208.286 500.773 208.339 501.2 208.083 501.584C207.848 501.947 207.486 502.128 206.995 502.128C206.547 502.128 206.195 502.075 205.939 501.968C205.683 501.84 205.47 501.648 205.299 501.392L199.219 494.224V500.592C199.219 501.531 198.75 502 197.811 502H197.747ZM216.694 502.352C215.286 502.352 214.028 502.021 212.918 501.36C211.83 500.677 210.966 499.728 210.326 498.512C209.708 497.296 209.398 495.888 209.398 494.288C209.398 492.688 209.708 491.291 210.326 490.096C210.966 488.88 211.83 487.941 212.918 487.28C214.028 486.597 215.286 486.256 216.694 486.256C218.102 486.256 219.35 486.597 220.438 487.28C221.548 487.941 222.412 488.88 223.03 490.096C223.67 491.291 223.99 492.688 223.99 494.288C223.99 495.888 223.67 497.296 223.03 498.512C222.412 499.728 221.548 500.677 220.438 501.36C219.35 502.021 218.102 502.352 216.694 502.352ZM216.694 499.728C217.996 499.728 219.052 499.248 219.862 498.288C220.694 497.307 221.11 495.973 221.11 494.288C221.11 492.603 220.694 491.28 219.862 490.32C219.052 489.36 217.996 488.88 216.694 488.88C215.393 488.88 214.326 489.36 213.494 490.32C212.684 491.28 212.278 492.603 212.278 494.288C212.278 495.973 212.684 497.307 213.494 498.288C214.326 499.248 215.393 499.728 216.694 499.728Z" fill="white"/>
<path d="M50.976 712C50.224 712 49.848 711.616 49.848 710.848V696.352C49.848 695.584 50.224 695.2 50.976 695.2H55.008C56.768 695.2 58.248 695.544 59.448 696.232C60.664 696.92 61.584 697.896 62.208 699.16C62.848 700.408 63.168 701.888 63.168 703.6C63.168 705.296 62.848 706.776 62.208 708.04C61.584 709.304 60.664 710.28 59.448 710.968C58.248 711.656 56.768 712 55.008 712H50.976ZM52.032 709.936H54.864C56.208 709.936 57.32 709.672 58.2 709.144C59.096 708.6 59.768 707.856 60.216 706.912C60.664 705.952 60.888 704.848 60.888 703.6C60.888 702.336 60.664 701.232 60.216 700.288C59.768 699.344 59.096 698.608 58.2 698.08C57.32 697.536 56.208 697.264 54.864 697.264H52.032V709.936ZM70.1724 712.264C69.0844 712.264 68.1244 712.032 67.2924 711.568C66.4604 711.104 65.8124 710.424 65.3484 709.528C64.8844 708.616 64.6524 707.52 64.6524 706.24C64.6524 705.008 64.8844 703.944 65.3484 703.048C65.8124 702.136 66.4444 701.432 67.2444 700.936C68.0604 700.44 68.9964 700.192 70.0524 700.192C71.1084 700.192 72.0044 700.448 72.7404 700.96C73.4924 701.456 74.0604 702.096 74.4444 702.88C74.8444 703.664 75.0444 704.472 75.0444 705.304C75.0444 705.768 74.9484 706.08 74.7564 706.24C74.5644 706.384 74.2844 706.456 73.9164 706.456H66.7644C66.7964 707.736 67.1164 708.712 67.7244 709.384C68.3484 710.04 69.1724 710.368 70.1964 710.368C71.4124 710.368 72.3324 709.88 72.9564 708.904C73.2124 708.632 73.4524 708.456 73.6764 708.376C73.9004 708.28 74.1404 708.32 74.3964 708.496C74.6684 708.672 74.8204 708.896 74.8524 709.168C74.9004 709.44 74.7964 709.736 74.5404 710.056C74.0124 710.808 73.3804 711.368 72.6444 711.736C71.9244 712.088 71.1004 712.264 70.1724 712.264ZM66.8844 704.728H72.9324C72.8044 703.896 72.4844 703.224 71.9724 702.712C71.4604 702.2 70.8124 701.944 70.0284 701.944C69.1964 701.944 68.5084 702.184 67.9644 702.664C67.4204 703.128 67.0604 703.816 66.8844 704.728ZM82.9035 712.264C81.3515 712.264 80.1595 711.576 79.3275 710.2V711.136C79.3275 711.44 79.2315 711.664 79.0395 711.808C78.8475 711.936 78.5995 712 78.2955 712C77.6555 712 77.3355 711.616 77.3355 710.848V695.92C77.3355 695.168 77.6955 694.792 78.4155 694.792C79.1355 694.792 79.4955 695.168 79.4955 695.92V701.944C79.8955 701.384 80.3835 700.952 80.9595 700.648C81.5355 700.344 82.1835 700.192 82.9035 700.192C83.9595 700.192 84.8955 700.44 85.7115 700.936C86.5275 701.416 87.1675 702.112 87.6315 703.024C88.1115 703.92 88.3515 704.992 88.3515 706.24C88.3515 707.472 88.1115 708.544 87.6315 709.456C87.1675 710.352 86.5275 711.048 85.7115 711.544C84.8955 712.024 83.9595 712.264 82.9035 712.264ZM82.8315 710.296C83.8075 710.296 84.6155 709.936 85.2555 709.216C85.8955 708.496 86.2155 707.504 86.2155 706.24C86.2155 704.96 85.8955 703.96 85.2555 703.24C84.6155 702.52 83.8075 702.16 82.8315 702.16C81.8555 702.16 81.0475 702.52 80.4075 703.24C79.7835 703.96 79.4715 704.96 79.4715 706.24C79.4715 707.504 79.7835 708.496 80.4075 709.216C81.0475 709.936 81.8555 710.296 82.8315 710.296ZM91.9367 712C91.2167 712 90.8567 711.616 90.8567 710.848V701.608C90.8567 700.856 91.2167 700.48 91.9367 700.48C92.6407 700.48 92.9927 700.856 92.9927 701.608V710.848C92.9927 711.616 92.6407 712 91.9367 712ZM91.9127 698.32C91.5127 698.32 91.1687 698.184 90.8807 697.912C90.6087 697.624 90.4727 697.28 90.4727 696.88C90.4727 696.48 90.6087 696.144 90.8807 695.872C91.1687 695.584 91.5127 695.44 91.9127 695.44C92.2967 695.44 92.6247 695.584 92.8967 695.872C93.1847 696.144 93.3287 696.48 93.3287 696.88C93.3287 697.28 93.1847 697.624 92.8967 697.912C92.6247 698.184 92.2967 698.32 91.9127 698.32ZM100.694 712.264C99.6064 712.264 98.7824 712.056 98.2224 711.64C97.6624 711.208 97.3824 710.392 97.3824 709.192V702.352H96.1824C95.4304 702.352 95.0544 702.04 95.0544 701.416C95.0544 701.096 95.1344 700.864 95.2944 700.72C95.4704 700.56 95.7664 700.48 96.1824 700.48H97.3824V697.48C97.3824 696.728 97.7424 696.352 98.4624 696.352C99.1664 696.352 99.5184 696.728 99.5184 697.48V700.48H101.726C102.478 700.48 102.854 700.792 102.854 701.416C102.854 702.04 102.478 702.352 101.726 702.352H99.5184V708.736C99.5184 709.36 99.6544 709.784 99.9264 710.008C100.214 710.216 100.638 710.32 101.198 710.32C101.23 710.32 101.278 710.32 101.342 710.32C101.774 710.32 102.134 710.36 102.422 710.44C102.71 710.504 102.854 710.752 102.854 711.184C102.854 711.664 102.63 711.96 102.182 712.072C101.75 712.2 101.254 712.264 100.694 712.264ZM118.146 712.36C116.626 712.36 115.282 712 114.114 711.28C112.946 710.56 112.026 709.544 111.354 708.232C110.698 706.92 110.37 705.376 110.37 703.6C110.37 701.824 110.698 700.28 111.354 698.968C112.026 697.64 112.946 696.616 114.114 695.896C115.282 695.16 116.626 694.792 118.146 694.792C119.314 694.792 120.378 695.008 121.338 695.44C122.298 695.872 123.122 696.488 123.81 697.288C124.066 697.56 124.146 697.84 124.05 698.128C123.97 698.4 123.802 698.624 123.546 698.8L123.45 698.848C123.274 698.96 123.034 699.008 122.73 698.992C122.442 698.96 122.17 698.824 121.914 698.584C120.97 697.512 119.714 696.976 118.146 696.976C117.058 696.976 116.098 697.248 115.266 697.792C114.45 698.336 113.81 699.104 113.346 700.096C112.882 701.072 112.65 702.24 112.65 703.6C112.65 704.944 112.882 706.112 113.346 707.104C113.81 708.08 114.45 708.84 115.266 709.384C116.098 709.928 117.058 710.2 118.146 710.2C119.682 710.2 120.938 709.664 121.914 708.592C122.17 708.352 122.426 708.216 122.682 708.184C122.954 708.152 123.21 708.2 123.45 708.328L123.498 708.352C123.77 708.496 123.954 708.712 124.05 709C124.146 709.288 124.074 709.568 123.834 709.84C123.146 710.64 122.314 711.264 121.338 711.712C120.378 712.144 119.314 712.36 118.146 712.36ZM130.071 712.192C128.903 712.224 127.935 711.96 127.167 711.4C126.415 710.824 126.039 710 126.039 708.928C126.039 708.144 126.287 707.464 126.783 706.888C127.295 706.312 127.943 705.864 128.727 705.544C129.527 705.208 130.351 705.04 131.199 705.04C131.695 705.008 132.151 705.056 132.567 705.184C132.983 705.296 133.343 705.464 133.647 705.688V704.248C133.647 703.352 133.455 702.768 133.071 702.496C132.703 702.224 132.127 702.088 131.343 702.088C130.847 702.088 130.319 702.16 129.759 702.304C129.215 702.432 128.703 702.608 128.223 702.832C127.887 702.96 127.599 703.008 127.359 702.976C127.119 702.928 126.919 702.776 126.759 702.52C126.599 702.248 126.559 701.992 126.639 701.752C126.735 701.496 126.951 701.296 127.287 701.152C127.879 700.864 128.527 700.632 129.231 700.456C129.951 700.28 130.655 700.192 131.343 700.192C132.815 700.192 133.911 700.488 134.631 701.08C135.351 701.656 135.711 702.712 135.711 704.248V710.032C135.711 710.288 135.727 710.456 135.759 710.536C135.807 710.6 135.911 710.656 136.071 710.704C136.263 710.768 136.471 710.824 136.695 710.872C136.919 710.904 137.031 710.984 137.031 711.112C137.031 711.64 136.759 711.96 136.215 712.072C135.863 712.152 135.543 712.192 135.255 712.192C134.743 712.192 134.375 712.096 134.151 711.904C133.927 711.712 133.775 711.368 133.695 710.872C133.263 711.304 132.719 711.624 132.063 711.832C131.407 712.04 130.743 712.16 130.071 712.192ZM130.095 710.296C130.767 710.28 131.375 710.184 131.919 710.008C132.479 709.816 132.919 709.552 133.239 709.216C133.559 708.864 133.703 708.448 133.671 707.968C133.639 707.52 133.407 707.2 132.975 707.008C132.559 706.816 132.023 706.736 131.367 706.768C130.775 706.784 130.231 706.896 129.735 707.104C129.239 707.296 128.839 707.552 128.535 707.872C128.247 708.192 128.103 708.552 128.103 708.952C128.119 709.4 128.303 709.744 128.655 709.984C129.007 710.208 129.487 710.312 130.095 710.296ZM140.059 712C139.339 712 138.979 711.616 138.979 710.848V701.608C138.979 700.856 139.355 700.48 140.107 700.48C140.363 700.48 140.587 700.544 140.779 700.672C140.971 700.8 141.067 701.04 141.067 701.392V702.28C141.387 701.656 141.867 701.152 142.507 700.768C143.163 700.384 143.867 700.192 144.619 700.192C145.595 700.192 146.083 700.584 146.083 701.368C146.083 701.704 145.987 701.952 145.795 702.112C145.619 702.256 145.419 702.32 145.195 702.304C145.083 702.288 144.955 702.28 144.811 702.28C144.667 702.264 144.515 702.256 144.355 702.256C143.459 702.256 142.699 702.552 142.075 703.144C141.451 703.72 141.139 704.48 141.139 705.424V710.848C141.139 711.616 140.779 712 140.059 712ZM152.441 712.264C151.385 712.264 150.441 712.024 149.609 711.544C148.793 711.048 148.145 710.352 147.665 709.456C147.201 708.544 146.969 707.472 146.969 706.24C146.969 704.992 147.201 703.92 147.665 703.024C148.145 702.112 148.793 701.416 149.609 700.936C150.441 700.44 151.385 700.192 152.441 700.192C153.145 700.192 153.785 700.344 154.361 700.648C154.953 700.952 155.449 701.384 155.849 701.944V695.92C155.849 695.168 156.201 694.792 156.905 694.792C157.625 694.792 157.985 695.168 157.985 695.92V710.848C157.985 711.616 157.673 712 157.049 712C156.409 712 156.081 711.824 156.065 711.472L156.017 710.344C155.617 710.936 155.105 711.408 154.481 711.76C153.873 712.096 153.193 712.264 152.441 712.264ZM152.513 710.296C153.489 710.296 154.289 709.936 154.913 709.216C155.553 708.496 155.873 707.504 155.873 706.24C155.873 704.96 155.553 703.96 154.913 703.24C154.289 702.52 153.489 702.16 152.513 702.16C151.537 702.16 150.729 702.52 150.089 703.24C149.449 703.96 149.129 704.96 149.129 706.24C149.129 707.504 149.449 708.496 150.089 709.216C150.729 709.936 151.537 710.296 152.513 710.296Z" fill="white"/>
<circle cx="359.35" cy="704.35" r="25.85" fill="white" stroke="white"/>
<circle cx="386.65" cy="704.35" r="23.85" stroke="white" stroke-width="3"/>
<path d="M357.833 102.5C357.833 103.996 359.046 105.208 360.542 105.208C362.037 105.208 363.25 103.996 363.25 102.5C363.25 101.004 362.037 99.7917 360.542 99.7917C359.046 99.7917 357.833 101.004 357.833 102.5Z" fill="black"/>
<path d="M374.083 102.5C374.083 98.9948 372.724 95.626 370.292 93.1022C369.792 92.585 369.108 92.2873 368.39 92.2746C367.671 92.2619 366.977 92.5352 366.459 93.0345C365.942 93.5337 365.645 94.2179 365.632 94.9366C365.619 95.6553 365.892 96.3496 366.392 96.8667C367.8 98.4048 368.581 100.415 368.581 102.5C368.581 104.586 367.8 106.595 366.392 108.133C365.892 108.651 365.619 109.345 365.632 110.064C365.645 110.782 365.942 111.466 366.459 111.966C366.977 112.465 367.671 112.738 368.39 112.726C369.108 112.713 369.792 112.415 370.292 111.898C372.724 109.374 374.083 106.005 374.083 102.5V102.5ZM387.625 102.5C387.623 99.229 386.962 95.9918 385.683 92.9813C384.403 89.9709 382.531 87.2488 380.177 84.9772C379.916 84.73 379.608 84.5367 379.272 84.4084C378.936 84.28 378.578 84.2192 378.218 84.2292C377.859 84.2393 377.504 84.3201 377.176 84.467C376.848 84.6139 376.551 84.8241 376.304 85.0855C375.805 85.6134 375.536 86.3181 375.556 87.0444C375.566 87.404 375.647 87.7582 375.794 88.0866C375.941 88.415 376.151 88.7112 376.412 88.9584C378.247 90.7269 379.707 92.8472 380.704 95.1925C381.7 97.5378 382.214 100.06 382.214 102.608C382.214 105.157 381.7 107.679 380.704 110.024C379.707 112.37 378.247 114.49 376.412 116.258C376.157 116.509 375.953 116.808 375.814 117.138C375.674 117.469 375.601 117.823 375.6 118.181C375.602 118.711 375.759 119.228 376.052 119.669C376.344 120.11 376.76 120.455 377.247 120.663C377.734 120.87 378.271 120.93 378.792 120.836C379.312 120.741 379.794 120.497 380.177 120.131C382.544 117.847 384.424 115.107 385.704 112.077C386.984 109.047 387.637 105.789 387.625 102.5Z" fill="black"/>
<path d="M390.523 128.825C397.341 121.757 401.151 112.32 401.151 102.5C401.151 92.6798 397.341 83.2426 390.523 76.175C390.015 75.718 389.352 75.47 388.669 75.4808C387.986 75.4916 387.331 75.7605 386.838 76.2334C386.344 76.7064 386.048 77.3484 386.008 78.0308C385.968 78.7131 386.188 79.3853 386.623 79.9125C392.481 85.9727 395.755 94.0716 395.755 102.5C395.755 110.929 392.481 119.027 386.623 125.088C386.139 125.59 385.867 126.259 385.865 126.956C385.866 127.321 385.941 127.682 386.085 128.017C386.23 128.352 386.44 128.655 386.704 128.906C387.222 129.4 387.915 129.669 388.63 129.653C389.346 129.638 390.026 129.34 390.523 128.825V128.825Z" fill="black"/>
</svg>
