<svg width="470" height="763" viewBox="0 0 470 763" fill="none" xmlns="http://www.w3.org/2000/svg">
<rect width="470" height="763" rx="20" fill="#D3FE57"/>
<path d="M267.112 573.4H274.936V596.92H280.12V600.664H274.936V607H270.904V600.664H255.352V595.096L267.112 573.4ZM258.808 596.344V596.92H270.904V575.128H270.328L258.808 596.344ZM296.503 573.4H304.327V596.92H309.511V600.664H304.327V607H300.295V600.664H284.743V595.096L296.503 573.4ZM288.199 596.344V596.92H300.295V575.128H299.719L288.199 596.344ZM326.037 607.672C324.341 607.672 322.805 607.448 321.429 607C320.053 606.52 318.869 605.88 317.877 605.08C316.885 604.248 316.117 603.288 315.573 602.2C315.061 601.08 314.805 599.864 314.805 598.552V597.976C314.805 596.824 314.981 595.8 315.333 594.904C315.685 594.008 316.149 593.224 316.725 592.552C317.301 591.88 317.957 591.32 318.693 590.872C319.461 590.424 320.245 590.088 321.045 589.864V589.288C320.309 589.064 319.621 588.728 318.981 588.28C318.341 587.832 317.765 587.304 317.253 586.696C316.773 586.088 316.389 585.4 316.101 584.632C315.813 583.832 315.669 582.968 315.669 582.04V581.464C315.669 580.184 315.925 579.016 316.437 577.96C316.949 576.872 317.669 575.944 318.597 575.176C319.557 574.408 320.677 573.816 321.957 573.4C323.269 572.952 324.725 572.728 326.325 572.728H326.613C328.181 572.728 329.621 572.952 330.933 573.4C332.245 573.816 333.365 574.408 334.293 575.176C335.253 575.944 335.989 576.872 336.501 577.96C337.013 579.016 337.269 580.184 337.269 581.464V582.04C337.269 582.968 337.125 583.832 336.837 584.632C336.549 585.4 336.149 586.088 335.637 586.696C335.157 587.304 334.581 587.832 333.909 588.28C333.269 588.728 332.597 589.064 331.893 589.288V589.864C332.693 590.088 333.461 590.424 334.197 590.872C334.965 591.32 335.637 591.88 336.213 592.552C336.789 593.224 337.253 594.008 337.605 594.904C337.957 595.8 338.133 596.824 338.133 597.976V598.552C338.133 599.864 337.861 601.08 337.317 602.2C336.805 603.288 336.053 604.248 335.061 605.08C334.069 605.88 332.885 606.52 331.509 607C330.133 607.448 328.597 607.672 326.901 607.672H326.037ZM326.757 604.024C328.933 604.024 330.693 603.464 332.037 602.344C333.413 601.224 334.101 599.768 334.101 597.976V597.688C334.101 595.704 333.397 594.168 331.989 593.08C330.613 591.992 328.821 591.448 326.613 591.448H326.325C324.117 591.448 322.309 591.992 320.901 593.08C319.525 594.168 318.837 595.704 318.837 597.688V597.976C318.837 599.768 319.509 601.224 320.853 602.344C322.229 603.464 324.005 604.024 326.181 604.024H326.757ZM326.469 587.704C328.485 587.704 330.117 587.176 331.365 586.12C332.613 585.064 333.237 583.736 333.237 582.136V581.848C333.237 580.216 332.613 578.904 331.365 577.912C330.149 576.888 328.517 576.376 326.469 576.376C324.421 576.376 322.773 576.888 321.525 577.912C320.309 578.904 319.701 580.216 319.701 581.848V582.136C319.701 583.736 320.325 585.064 321.573 586.12C322.821 587.176 324.453 587.704 326.469 587.704Z" fill="black"/>
<path d="M259.57 545.27C258.43 545.27 257.422 545 256.546 544.46C255.67 543.92 254.98 543.158 254.476 542.174C253.984 541.19 253.738 540.032 253.738 538.7C253.738 537.368 253.984 536.21 254.476 535.226C254.98 534.23 255.67 533.462 256.546 532.922C257.422 532.37 258.43 532.094 259.57 532.094C260.446 532.094 261.244 532.256 261.964 532.58C262.684 532.904 263.302 533.366 263.818 533.966C264.01 534.17 264.07 534.38 263.998 534.596C263.938 534.8 263.812 534.968 263.62 535.1L263.548 535.136C263.416 535.22 263.236 535.256 263.008 535.244C262.792 535.22 262.588 535.118 262.396 534.938C261.688 534.134 260.746 533.732 259.57 533.732C258.754 533.732 258.034 533.936 257.41 534.344C256.798 534.752 256.318 535.328 255.97 536.072C255.622 536.804 255.448 537.68 255.448 538.7C255.448 539.708 255.622 540.584 255.97 541.328C256.318 542.06 256.798 542.63 257.41 543.038C258.034 543.446 258.754 543.65 259.57 543.65C260.722 543.65 261.664 543.248 262.396 542.444C262.588 542.264 262.78 542.162 262.972 542.138C263.176 542.114 263.368 542.15 263.548 542.246L263.584 542.264C263.788 542.372 263.926 542.534 263.998 542.75C264.07 542.966 264.016 543.176 263.836 543.38C263.32 543.98 262.696 544.448 261.964 544.784C261.244 545.108 260.446 545.27 259.57 545.27ZM270.368 545.036C270.14 545.036 269.924 544.976 269.72 544.856C269.528 544.724 269.384 544.544 269.288 544.316L265.328 533.39C265.088 532.73 265.316 532.4 266.012 532.4C266.504 532.4 266.828 532.634 266.984 533.102L270.35 542.678L273.734 533.102C273.902 532.634 274.238 532.4 274.742 532.4C275.042 532.4 275.246 532.49 275.354 532.67C275.474 532.85 275.486 533.09 275.39 533.39L271.412 544.316C271.328 544.544 271.19 544.724 270.998 544.856C270.806 544.976 270.596 545.036 270.368 545.036ZM281.86 545.27C280.72 545.27 279.712 545 278.836 544.46C277.96 543.92 277.27 543.158 276.766 542.174C276.274 541.19 276.028 540.032 276.028 538.7C276.028 537.368 276.274 536.21 276.766 535.226C277.27 534.23 277.96 533.462 278.836 532.922C279.712 532.37 280.72 532.094 281.86 532.094C282.736 532.094 283.534 532.256 284.254 532.58C284.974 532.904 285.592 533.366 286.108 533.966C286.3 534.17 286.36 534.38 286.288 534.596C286.228 534.8 286.102 534.968 285.91 535.1L285.838 535.136C285.706 535.22 285.526 535.256 285.298 535.244C285.082 535.22 284.878 535.118 284.686 534.938C283.978 534.134 283.036 533.732 281.86 533.732C281.044 533.732 280.324 533.936 279.7 534.344C279.088 534.752 278.608 535.328 278.26 536.072C277.912 536.804 277.738 537.68 277.738 538.7C277.738 539.708 277.912 540.584 278.26 541.328C278.608 542.06 279.088 542.63 279.7 543.038C280.324 543.446 281.044 543.65 281.86 543.65C283.012 543.65 283.954 543.248 284.686 542.444C284.878 542.264 285.07 542.162 285.262 542.138C285.466 542.114 285.658 542.15 285.838 542.246L285.874 542.264C286.078 542.372 286.216 542.534 286.288 542.75C286.36 542.966 286.306 543.176 286.126 543.38C285.61 543.98 284.986 544.448 284.254 544.784C283.534 545.108 282.736 545.27 281.86 545.27Z" fill="black"/>
<path d="M265.912 466.256V438.176H265.336L259.816 450.8H255.832V450.512L262.12 436.4H269.944V466.256H279.448V470H256.408V466.256H265.912ZM308.503 466.256V470H285.751V464.24C285.751 462.704 286.007 461.376 286.519 460.256C287.031 459.104 287.751 458.128 288.679 457.328C289.639 456.496 290.791 455.808 292.135 455.264C293.479 454.72 294.999 454.256 296.695 453.872C299.543 453.232 301.591 452.32 302.839 451.136C304.119 449.952 304.759 448.496 304.759 446.768V446.48C304.759 445.616 304.615 444.768 304.327 443.936C304.039 443.104 303.591 442.352 302.983 441.68C302.375 441.008 301.591 440.48 300.631 440.096C299.703 439.68 298.583 439.472 297.271 439.472C294.807 439.472 292.887 440.224 291.511 441.728C290.167 443.232 289.495 445.232 289.495 447.728V449.84H285.463V447.44C285.463 445.904 285.719 444.432 286.231 443.024C286.743 441.616 287.495 440.368 288.487 439.28C289.479 438.192 290.711 437.328 292.183 436.688C293.655 436.048 295.351 435.728 297.271 435.728C299.223 435.728 300.919 436.032 302.359 436.64C303.799 437.216 304.999 438 305.959 438.992C306.919 439.952 307.623 441.056 308.071 442.304C308.551 443.52 308.791 444.768 308.791 446.048V446.912C308.791 449.472 307.991 451.664 306.391 453.488C304.791 455.28 302.231 456.56 298.711 457.328C295.639 458 293.383 458.896 291.943 460.016C290.503 461.104 289.783 462.704 289.783 464.816V466.256H308.503ZM331.797 431.312L335.157 432.368L321.189 475.088L317.781 474.032L331.797 431.312ZM367.284 466.256V470H344.532V464.24C344.532 462.704 344.788 461.376 345.3 460.256C345.812 459.104 346.532 458.128 347.46 457.328C348.42 456.496 349.572 455.808 350.916 455.264C352.26 454.72 353.78 454.256 355.476 453.872C358.324 453.232 360.372 452.32 361.62 451.136C362.9 449.952 363.54 448.496 363.54 446.768V446.48C363.54 445.616 363.396 444.768 363.108 443.936C362.82 443.104 362.372 442.352 361.764 441.68C361.156 441.008 360.372 440.48 359.412 440.096C358.484 439.68 357.364 439.472 356.052 439.472C353.588 439.472 351.668 440.224 350.292 441.728C348.948 443.232 348.276 445.232 348.276 447.728V449.84H344.244V447.44C344.244 445.904 344.5 444.432 345.012 443.024C345.524 441.616 346.276 440.368 347.268 439.28C348.26 438.192 349.492 437.328 350.964 436.688C352.436 436.048 354.132 435.728 356.052 435.728C358.004 435.728 359.7 436.032 361.14 436.64C362.58 437.216 363.78 438 364.74 438.992C365.7 439.952 366.404 441.056 366.852 442.304C367.332 443.52 367.572 444.768 367.572 446.048V446.912C367.572 449.472 366.772 451.664 365.172 453.488C363.572 455.28 361.012 456.56 357.492 457.328C354.42 458 352.164 458.896 350.724 460.016C349.284 461.104 348.564 462.704 348.564 464.816V466.256H367.284ZM392.307 446.192C392.307 444.112 391.667 442.448 390.387 441.2C389.107 439.92 387.331 439.28 385.059 439.28C383.971 439.28 382.963 439.472 382.035 439.856C381.139 440.24 380.355 440.8 379.683 441.536C379.043 442.24 378.531 443.088 378.147 444.08C377.795 445.072 377.618 446.16 377.618 447.344V452.336H378.195C378.963 450.928 380.051 449.824 381.459 449.024C382.899 448.224 384.499 447.824 386.259 447.824C387.795 447.824 389.219 448.08 390.531 448.592C391.843 449.072 392.963 449.792 393.891 450.752C394.851 451.712 395.587 452.88 396.099 454.256C396.643 455.6 396.915 457.136 396.915 458.864V459.44C396.915 461.104 396.611 462.624 396.003 464C395.427 465.376 394.611 466.56 393.555 467.552C392.531 468.544 391.299 469.312 389.859 469.856C388.451 470.4 386.915 470.672 385.251 470.672C383.587 470.672 382.035 470.4 380.595 469.856C379.187 469.312 377.955 468.56 376.898 467.6C375.875 466.608 375.059 465.44 374.451 464.096C373.875 462.72 373.587 461.216 373.587 459.584V447.344C373.587 445.584 373.891 443.984 374.499 442.544C375.107 441.104 375.939 439.888 376.995 438.896C378.051 437.872 379.267 437.088 380.643 436.544C382.051 436 383.555 435.728 385.155 435.728C386.755 435.728 388.243 435.968 389.619 436.448C390.995 436.928 392.179 437.632 393.171 438.56C394.163 439.456 394.931 440.56 395.475 441.872C396.051 443.152 396.339 444.592 396.339 446.192H392.307ZM385.251 467.12C386.403 467.12 387.443 466.944 388.371 466.592C389.331 466.208 390.147 465.68 390.819 465.008C391.491 464.336 392.003 463.536 392.355 462.608C392.707 461.68 392.883 460.656 392.883 459.536V458.96C392.883 457.84 392.691 456.816 392.307 455.888C391.923 454.96 391.395 454.16 390.723 453.488C390.051 452.816 389.235 452.304 388.275 451.952C387.347 451.568 386.339 451.376 385.251 451.376C384.163 451.376 383.155 451.568 382.227 451.952C381.299 452.336 380.483 452.864 379.779 453.536C379.107 454.208 378.579 454.992 378.195 455.888C377.811 456.784 377.618 457.744 377.618 458.768V459.68C377.618 460.736 377.795 461.728 378.147 462.656C378.499 463.552 379.011 464.336 379.683 465.008C380.355 465.68 381.155 466.208 382.083 466.592C383.043 466.944 384.099 467.12 385.251 467.12Z" fill="black"/>
<path d="M255.232 408C254.668 408 254.386 407.712 254.386 407.136V396.264C254.386 395.688 254.668 395.4 255.232 395.4H261.676C262.252 395.4 262.54 395.658 262.54 396.174C262.54 396.69 262.252 396.948 261.676 396.948H256.024V400.782H261.118C261.682 400.782 261.964 401.046 261.964 401.574C261.964 402.09 261.682 402.348 261.118 402.348H256.024V406.452H261.892C262.468 406.452 262.756 406.71 262.756 407.226C262.756 407.742 262.468 408 261.892 408H255.232ZM264.844 408C264.424 408 264.172 407.892 264.088 407.676C264.004 407.46 264.046 407.22 264.214 406.956L267.76 401.394L264.574 396.444C264.334 396.096 264.274 395.838 264.394 395.67C264.514 395.49 264.778 395.4 265.186 395.4C265.642 395.4 265.984 395.592 266.212 395.976L268.66 399.9L271.09 395.976C271.318 395.592 271.66 395.4 272.116 395.4C272.92 395.4 273.124 395.748 272.728 396.444L269.56 401.394L273.106 406.956C273.298 407.256 273.34 407.508 273.232 407.712C273.136 407.904 272.878 408 272.458 408C272.002 408 271.66 407.808 271.432 407.424L268.66 402.906L265.87 407.424C265.642 407.808 265.3 408 264.844 408ZM276.009 408C275.469 408 275.199 407.712 275.199 407.136V396.246C275.199 395.682 275.481 395.4 276.045 395.4H280.833C282.021 395.4 282.939 395.676 283.587 396.228C284.247 396.78 284.577 397.656 284.577 398.856C284.577 400.068 284.247 400.956 283.587 401.52C282.939 402.084 282.021 402.366 280.833 402.366H276.837V407.136C276.837 407.712 276.561 408 276.009 408ZM276.837 400.8H280.635C281.355 400.8 281.901 400.65 282.273 400.35C282.657 400.038 282.849 399.54 282.849 398.856C282.849 398.184 282.657 397.698 282.273 397.398C281.901 397.098 281.355 396.948 280.635 396.948H276.837V400.8ZM286.987 408C286.447 408 286.177 407.712 286.177 407.136V396.264C286.177 395.688 286.447 395.4 286.987 395.4C287.539 395.4 287.815 395.688 287.815 396.264V407.136C287.815 407.712 287.539 408 286.987 408ZM291.039 408C290.499 408 290.229 407.712 290.229 407.136V396.246C290.229 395.682 290.511 395.4 291.075 395.4H295.863C297.051 395.4 297.969 395.676 298.617 396.228C299.277 396.78 299.607 397.656 299.607 398.856C299.607 399.924 299.349 400.74 298.833 401.304C298.317 401.868 297.567 402.198 296.583 402.294L299.013 406.992C299.157 407.292 299.187 407.538 299.103 407.73C299.019 407.91 298.839 408 298.563 408H298.311C297.831 408 297.495 407.784 297.303 407.352L294.855 402.366H291.867V407.136C291.867 407.712 291.591 408 291.039 408ZM291.867 400.8H295.665C296.385 400.8 296.931 400.65 297.303 400.35C297.687 400.038 297.879 399.54 297.879 398.856C297.879 398.184 297.687 397.698 297.303 397.398C296.931 397.098 296.385 396.948 295.665 396.948H291.867V400.8ZM305.504 408C304.94 408 304.658 407.712 304.658 407.136V402.636L301.04 396.426C300.848 396.102 300.806 395.85 300.914 395.67C301.034 395.49 301.28 395.4 301.652 395.4C301.904 395.4 302.108 395.448 302.264 395.544C302.432 395.64 302.576 395.79 302.696 395.994L305.504 400.836L308.276 395.994C308.516 395.598 308.858 395.4 309.302 395.4C309.686 395.4 309.932 395.502 310.04 395.706C310.148 395.898 310.118 396.138 309.95 396.426L306.332 402.636V407.136C306.332 407.712 306.056 408 305.504 408ZM317.523 408C316.959 408 316.677 407.712 316.677 407.136V396.264C316.677 395.688 316.959 395.4 317.523 395.4H320.547C321.867 395.4 322.977 395.658 323.877 396.174C324.789 396.69 325.479 397.422 325.947 398.37C326.427 399.306 326.667 400.416 326.667 401.7C326.667 402.972 326.427 404.082 325.947 405.03C325.479 405.978 324.789 406.71 323.877 407.226C322.977 407.742 321.867 408 320.547 408H317.523ZM318.315 406.452H320.439C321.447 406.452 322.281 406.254 322.941 405.858C323.613 405.45 324.117 404.892 324.453 404.184C324.789 403.464 324.957 402.636 324.957 401.7C324.957 400.752 324.789 399.924 324.453 399.216C324.117 398.508 323.613 397.956 322.941 397.56C322.281 397.152 321.447 396.948 320.439 396.948H318.315V406.452ZM327.667 408C327.403 408 327.217 407.922 327.109 407.766C327.013 407.598 327.013 407.376 327.109 407.1L331.429 396.012C331.585 395.604 331.885 395.4 332.329 395.4H332.455C332.899 395.4 333.199 395.604 333.355 396.012L337.675 407.1C337.771 407.376 337.771 407.598 337.675 407.766C337.579 407.922 337.393 408 337.117 408H336.847C336.391 408 336.091 407.79 335.947 407.37L334.975 404.778H329.773L328.783 407.37C328.639 407.79 328.345 408 327.901 408H327.667ZM330.331 403.23H334.417L332.401 397.758L330.331 403.23ZM341.521 408C340.957 408 340.675 407.712 340.675 407.136V396.948H337.579C337.003 396.948 336.715 396.69 336.715 396.174C336.715 395.658 337.003 395.4 337.579 395.4H345.427C345.991 395.4 346.273 395.658 346.273 396.174C346.273 396.69 345.991 396.948 345.427 396.948H342.331V407.136C342.331 407.712 342.061 408 341.521 408ZM348.734 408C348.17 408 347.888 407.712 347.888 407.136V396.264C347.888 395.688 348.17 395.4 348.734 395.4H355.178C355.754 395.4 356.042 395.658 356.042 396.174C356.042 396.69 355.754 396.948 355.178 396.948H349.526V400.782H354.62C355.184 400.782 355.466 401.046 355.466 401.574C355.466 402.09 355.184 402.348 354.62 402.348H349.526V406.452H355.394C355.97 406.452 356.258 406.71 356.258 407.226C356.258 407.742 355.97 408 355.394 408H348.734Z" fill="black"/>
<path d="M268.333 164.554V131.209H267.649L261.094 146.2H256.363V145.858L263.83 129.1H273.121V164.554H284.407V169H257.047V164.554H268.333ZM318.909 164.554V169H291.891V162.16C291.891 160.336 292.195 158.759 292.803 157.429C293.411 156.061 294.266 154.902 295.368 153.952C296.508 152.964 297.876 152.147 299.472 151.501C301.068 150.855 302.873 150.304 304.887 149.848C308.269 149.088 310.701 148.005 312.183 146.599C313.703 145.193 314.463 143.464 314.463 141.412V141.07C314.463 140.044 314.292 139.037 313.95 138.049C313.608 137.061 313.076 136.168 312.354 135.37C311.632 134.572 310.701 133.945 309.561 133.489C308.459 132.995 307.129 132.748 305.571 132.748C302.645 132.748 300.365 133.641 298.731 135.427C297.135 137.213 296.337 139.588 296.337 142.552V145.06H291.549V142.21C291.549 140.386 291.853 138.638 292.461 136.966C293.069 135.294 293.962 133.812 295.14 132.52C296.318 131.228 297.781 130.202 299.529 129.442C301.277 128.682 303.291 128.302 305.571 128.302C307.889 128.302 309.903 128.663 311.613 129.385C313.323 130.069 314.748 131 315.888 132.178C317.028 133.318 317.864 134.629 318.396 136.111C318.966 137.555 319.251 139.037 319.251 140.557V141.583C319.251 144.623 318.301 147.226 316.401 149.392C314.501 151.52 311.461 153.04 307.281 153.952C303.633 154.75 300.954 155.814 299.244 157.144C297.534 158.436 296.679 160.336 296.679 162.844V164.554H318.909ZM336.312 149.164V142.552L349.308 134.23V133.546H326.736V129.1H353.412V136.396L340.416 144.718V145.402H342.696C344.216 145.402 345.679 145.649 347.085 146.143C348.491 146.637 349.726 147.359 350.79 148.309C351.892 149.259 352.766 150.437 353.412 151.843C354.096 153.211 354.438 154.807 354.438 156.631V157.657C354.438 159.367 354.096 160.963 353.412 162.445C352.728 163.927 351.778 165.219 350.562 166.321C349.346 167.385 347.902 168.24 346.23 168.886C344.596 169.494 342.81 169.798 340.872 169.798C338.63 169.798 336.616 169.456 334.83 168.772C333.044 168.088 331.524 167.157 330.27 165.979C329.016 164.763 328.047 163.357 327.363 161.761C326.717 160.127 326.394 158.398 326.394 156.574V153.496H331.182V156.232C331.182 157.676 331.41 158.968 331.866 160.108C332.36 161.21 333.025 162.16 333.861 162.958C334.735 163.718 335.761 164.307 336.939 164.725C338.117 165.143 339.39 165.352 340.758 165.352C342.012 165.352 343.171 165.143 344.235 164.725C345.337 164.307 346.287 163.737 347.085 163.015C347.883 162.255 348.51 161.381 348.966 160.393C349.422 159.367 349.65 158.284 349.65 157.144V156.802C349.65 154.408 348.89 152.546 347.37 151.216C345.85 149.848 343.95 149.164 341.67 149.164H336.312ZM374.462 129.1H383.753V157.03H389.909V161.476H383.753V169H378.965V161.476H360.497V154.864L374.462 129.1ZM364.601 156.346V157.03H378.965V131.152H378.281L364.601 156.346ZM257.446 207.19V186.1H282.412V190.546H262.12V204.796H262.804C263.184 204.036 263.678 203.314 264.286 202.63C264.894 201.908 265.597 201.281 266.395 200.749C267.231 200.217 268.162 199.799 269.188 199.495C270.214 199.153 271.354 198.982 272.608 198.982C274.432 198.982 276.104 199.286 277.624 199.894C279.182 200.502 280.512 201.357 281.614 202.459C282.716 203.561 283.571 204.891 284.179 206.449C284.825 208.007 285.148 209.736 285.148 211.636V212.662C285.148 214.562 284.844 216.367 284.236 218.077C283.628 219.749 282.735 221.25 281.557 222.58C280.379 223.872 278.916 224.898 277.168 225.658C275.42 226.418 273.406 226.798 271.126 226.798C268.808 226.798 266.756 226.456 264.97 225.772C263.184 225.088 261.683 224.138 260.467 222.922C259.251 221.706 258.32 220.281 257.674 218.647C257.066 216.975 256.762 215.17 256.762 213.232V211.636H261.55V212.89C261.55 216.044 262.424 218.419 264.172 220.015C265.958 221.573 268.276 222.352 271.126 222.352C272.646 222.352 273.976 222.086 275.116 221.554C276.294 220.984 277.263 220.243 278.023 219.331C278.821 218.381 279.41 217.298 279.79 216.082C280.17 214.828 280.36 213.536 280.36 212.206V211.864C280.36 210.686 280.151 209.584 279.733 208.558C279.353 207.532 278.802 206.639 278.08 205.879C277.396 205.119 276.541 204.53 275.515 204.112C274.527 203.656 273.444 203.428 272.266 203.428C271.468 203.428 270.727 203.542 270.043 203.77C269.397 203.998 268.827 204.302 268.333 204.682C267.839 205.024 267.421 205.423 267.079 205.879C266.775 206.335 266.566 206.772 266.452 207.19H257.446ZM313.722 197.728C313.722 195.258 312.962 193.282 311.442 191.8C309.922 190.28 307.813 189.52 305.115 189.52C303.823 189.52 302.626 189.748 301.524 190.204C300.46 190.66 299.529 191.325 298.731 192.199C297.971 193.035 297.363 194.042 296.907 195.22C296.489 196.398 296.28 197.69 296.28 199.096V205.024H296.964C297.876 203.352 299.168 202.041 300.84 201.091C302.55 200.141 304.45 199.666 306.54 199.666C308.364 199.666 310.055 199.97 311.613 200.578C313.171 201.148 314.501 202.003 315.603 203.143C316.743 204.283 317.617 205.67 318.225 207.304C318.871 208.9 319.194 210.724 319.194 212.776V213.46C319.194 215.436 318.833 217.241 318.111 218.875C317.427 220.509 316.458 221.915 315.204 223.093C313.988 224.271 312.525 225.183 310.815 225.829C309.143 226.475 307.319 226.798 305.343 226.798C303.367 226.798 301.524 226.475 299.814 225.829C298.142 225.183 296.679 224.29 295.425 223.15C294.209 221.972 293.24 220.585 292.518 218.989C291.834 217.355 291.492 215.569 291.492 213.631V199.096C291.492 197.006 291.853 195.106 292.575 193.396C293.297 191.686 294.285 190.242 295.539 189.064C296.793 187.848 298.237 186.917 299.871 186.271C301.543 185.625 303.329 185.302 305.229 185.302C307.129 185.302 308.896 185.587 310.53 186.157C312.164 186.727 313.57 187.563 314.748 188.665C315.926 189.729 316.838 191.04 317.484 192.598C318.168 194.118 318.51 195.828 318.51 197.728H313.722ZM305.343 222.58C306.711 222.58 307.946 222.371 309.048 221.953C310.188 221.497 311.157 220.87 311.955 220.072C312.753 219.274 313.361 218.324 313.779 217.222C314.197 216.12 314.406 214.904 314.406 213.574V212.89C314.406 211.56 314.178 210.344 313.722 209.242C313.266 208.14 312.639 207.19 311.841 206.392C311.043 205.594 310.074 204.986 308.934 204.568C307.832 204.112 306.635 203.884 305.343 203.884C304.051 203.884 302.854 204.112 301.752 204.568C300.65 205.024 299.681 205.651 298.845 206.449C298.047 207.247 297.42 208.178 296.964 209.242C296.508 210.306 296.28 211.446 296.28 212.662V213.745C296.28 214.999 296.489 216.177 296.907 217.279C297.325 218.343 297.933 219.274 298.731 220.072C299.529 220.87 300.479 221.497 301.581 221.953C302.721 222.371 303.975 222.58 305.343 222.58ZM326.907 186.1H353.583V193.054L336.768 218.476C335.97 219.692 335.362 220.737 334.944 221.611C334.526 222.485 334.317 223.378 334.317 224.29V226H329.643V223.948C329.643 223.264 329.7 222.618 329.814 222.01C329.966 221.402 330.175 220.794 330.441 220.186C330.745 219.54 331.106 218.875 331.524 218.191C331.98 217.469 332.512 216.652 333.12 215.74L349.479 191.23V190.546H326.907V186.1ZM374.633 226.798C372.619 226.798 370.795 226.532 369.161 226C367.527 225.43 366.121 224.67 364.943 223.72C363.765 222.732 362.853 221.592 362.207 220.3C361.599 218.97 361.295 217.526 361.295 215.968V215.284C361.295 213.916 361.504 212.7 361.922 211.636C362.34 210.572 362.891 209.641 363.575 208.843C364.259 208.045 365.038 207.38 365.912 206.848C366.824 206.316 367.755 205.917 368.705 205.651V204.967C367.831 204.701 367.014 204.302 366.254 203.77C365.494 203.238 364.81 202.611 364.202 201.889C363.632 201.167 363.176 200.35 362.834 199.438C362.492 198.488 362.321 197.462 362.321 196.36V195.676C362.321 194.156 362.625 192.769 363.233 191.515C363.841 190.223 364.696 189.121 365.798 188.209C366.938 187.297 368.268 186.594 369.788 186.1C371.346 185.568 373.075 185.302 374.975 185.302H375.317C377.179 185.302 378.889 185.568 380.447 186.1C382.005 186.594 383.335 187.297 384.437 188.209C385.577 189.121 386.451 190.223 387.059 191.515C387.667 192.769 387.971 194.156 387.971 195.676V196.36C387.971 197.462 387.8 198.488 387.458 199.438C387.116 200.35 386.641 201.167 386.033 201.889C385.463 202.611 384.779 203.238 383.981 203.77C383.221 204.302 382.423 204.701 381.587 204.967V205.651C382.537 205.917 383.449 206.316 384.323 206.848C385.235 207.38 386.033 208.045 386.717 208.843C387.401 209.641 387.952 210.572 388.37 211.636C388.788 212.7 388.997 213.916 388.997 215.284V215.968C388.997 217.526 388.674 218.97 388.028 220.3C387.42 221.592 386.527 222.732 385.349 223.72C384.171 224.67 382.765 225.43 381.131 226C379.497 226.532 377.673 226.798 375.659 226.798H374.633ZM375.488 222.466C378.072 222.466 380.162 221.801 381.758 220.471C383.392 219.141 384.209 217.412 384.209 215.284V214.942C384.209 212.586 383.373 210.762 381.701 209.47C380.067 208.178 377.939 207.532 375.317 207.532H374.975C372.353 207.532 370.206 208.178 368.534 209.47C366.9 210.762 366.083 212.586 366.083 214.942V215.284C366.083 217.412 366.881 219.141 368.477 220.471C370.111 221.801 372.22 222.466 374.804 222.466H375.488ZM375.146 203.086C377.54 203.086 379.478 202.459 380.96 201.205C382.442 199.951 383.183 198.374 383.183 196.474V196.132C383.183 194.194 382.442 192.636 380.96 191.458C379.516 190.242 377.578 189.634 375.146 189.634C372.714 189.634 370.757 190.242 369.275 191.458C367.831 192.636 367.109 194.194 367.109 196.132V196.474C367.109 198.374 367.85 199.951 369.332 201.205C370.814 202.459 372.752 203.086 375.146 203.086ZM262.063 271.372C262.063 273.842 262.823 275.837 264.343 277.357C265.863 278.839 267.972 279.58 270.67 279.58C271.962 279.58 273.14 279.352 274.204 278.896C275.306 278.44 276.237 277.794 276.997 276.958C277.795 276.084 278.403 275.077 278.821 273.937C279.277 272.759 279.505 271.448 279.505 270.004V264.076H278.821C277.947 265.748 276.693 267.059 275.059 268.009C273.425 268.959 271.525 269.434 269.359 269.434C267.497 269.434 265.787 269.149 264.229 268.579C262.671 268.009 261.322 267.173 260.182 266.071C259.042 264.931 258.149 263.563 257.503 261.967C256.895 260.371 256.591 258.547 256.591 256.495V255.811C256.591 253.835 256.933 252.03 257.617 250.396C258.301 248.724 259.251 247.299 260.467 246.121C261.721 244.905 263.184 243.974 264.856 243.328C266.566 242.644 268.428 242.302 270.442 242.302C272.456 242.302 274.299 242.644 275.971 243.328C277.681 243.974 279.144 244.886 280.36 246.064C281.614 247.242 282.583 248.648 283.267 250.282C283.951 251.916 284.293 253.702 284.293 255.64V270.004C284.293 272.132 283.932 274.051 283.21 275.761C282.526 277.433 281.557 278.877 280.303 280.093C279.087 281.271 277.643 282.183 275.971 282.829C274.299 283.475 272.494 283.798 270.556 283.798C268.618 283.798 266.832 283.513 265.198 282.943C263.564 282.373 262.158 281.556 260.98 280.492C259.802 279.39 258.89 278.079 258.244 276.559C257.598 275.001 257.275 273.272 257.275 271.372H262.063ZM270.442 246.52C269.074 246.52 267.82 246.748 266.68 247.204C265.578 247.66 264.628 248.306 263.83 249.142C263.032 249.978 262.424 250.966 262.006 252.106C261.588 253.208 261.379 254.405 261.379 255.697V256.381C261.379 257.711 261.607 258.927 262.063 260.029C262.519 261.093 263.146 262.024 263.944 262.822C264.742 263.582 265.692 264.171 266.794 264.589C267.896 265.007 269.112 265.216 270.442 265.216C271.734 265.216 272.931 265.007 274.033 264.589C275.135 264.133 276.085 263.525 276.883 262.765C277.719 262.005 278.365 261.093 278.821 260.029C279.277 258.965 279.505 257.825 279.505 256.609V255.526C279.505 254.272 279.296 253.094 278.878 251.992C278.46 250.89 277.852 249.94 277.054 249.142C276.256 248.306 275.287 247.66 274.147 247.204C273.045 246.748 271.81 246.52 270.442 246.52ZM291.321 258.604C291.321 253.436 292.556 249.427 295.026 246.577C297.496 243.727 300.935 242.302 305.343 242.302C309.751 242.302 313.19 243.727 315.66 246.577C318.13 249.427 319.365 253.436 319.365 258.604V267.496C319.365 272.816 318.13 276.863 315.66 279.637C313.19 282.411 309.751 283.798 305.343 283.798C300.935 283.798 297.496 282.411 295.026 279.637C292.556 276.863 291.321 272.816 291.321 267.496V258.604ZM305.343 279.466C308.421 279.466 310.72 278.402 312.24 276.274C313.798 274.108 314.577 271.068 314.577 267.154V258.946C314.577 257.122 314.387 255.469 314.007 253.987C313.627 252.467 313.038 251.175 312.24 250.111C311.48 249.009 310.511 248.154 309.333 247.546C308.193 246.938 306.863 246.634 305.343 246.634C303.785 246.634 302.436 246.938 301.296 247.546C300.156 248.154 299.187 249.009 298.389 250.111C297.629 251.175 297.059 252.467 296.679 253.987C296.299 255.469 296.109 257.122 296.109 258.946V267.154C296.109 271.068 296.869 274.108 298.389 276.274C299.947 278.402 302.265 279.466 305.343 279.466ZM301.695 263.05C301.695 262.062 302.056 261.207 302.778 260.485C303.5 259.763 304.355 259.402 305.343 259.402C306.331 259.402 307.186 259.763 307.908 260.485C308.63 261.207 308.991 262.062 308.991 263.05C308.991 264.038 308.63 264.893 307.908 265.615C307.186 266.337 306.331 266.698 305.343 266.698C304.355 266.698 303.5 266.337 302.778 265.615C302.056 264.893 301.695 264.038 301.695 263.05ZM326.223 258.604C326.223 253.436 327.458 249.427 329.928 246.577C332.398 243.727 335.837 242.302 340.245 242.302C344.653 242.302 348.092 243.727 350.562 246.577C353.032 249.427 354.267 253.436 354.267 258.604V267.496C354.267 272.816 353.032 276.863 350.562 279.637C348.092 282.411 344.653 283.798 340.245 283.798C335.837 283.798 332.398 282.411 329.928 279.637C327.458 276.863 326.223 272.816 326.223 267.496V258.604ZM340.245 279.466C343.323 279.466 345.622 278.402 347.142 276.274C348.7 274.108 349.479 271.068 349.479 267.154V258.946C349.479 257.122 349.289 255.469 348.909 253.987C348.529 252.467 347.94 251.175 347.142 250.111C346.382 249.009 345.413 248.154 344.235 247.546C343.095 246.938 341.765 246.634 340.245 246.634C338.687 246.634 337.338 246.938 336.198 247.546C335.058 248.154 334.089 249.009 333.291 250.111C332.531 251.175 331.961 252.467 331.581 253.987C331.201 255.469 331.011 257.122 331.011 258.946V267.154C331.011 271.068 331.771 274.108 333.291 276.274C334.849 278.402 337.167 279.466 340.245 279.466ZM336.597 263.05C336.597 262.062 336.958 261.207 337.68 260.485C338.402 259.763 339.257 259.402 340.245 259.402C341.233 259.402 342.088 259.763 342.81 260.485C343.532 261.207 343.893 262.062 343.893 263.05C343.893 264.038 343.532 264.893 342.81 265.615C342.088 266.337 341.233 266.698 340.245 266.698C339.257 266.698 338.402 266.337 337.68 265.615C336.958 264.893 336.597 264.038 336.597 263.05ZM373.037 278.554V245.209H372.353L365.798 260.2H361.067V259.858L368.534 243.1H377.825V278.554H389.111V283H361.751V278.554H373.037ZM284.008 335.554V340H256.99V333.16C256.99 331.336 257.294 329.759 257.902 328.429C258.51 327.061 259.365 325.902 260.467 324.952C261.607 323.964 262.975 323.147 264.571 322.501C266.167 321.855 267.972 321.304 269.986 320.848C273.368 320.088 275.8 319.005 277.282 317.599C278.802 316.193 279.562 314.464 279.562 312.412V312.07C279.562 311.044 279.391 310.037 279.049 309.049C278.707 308.061 278.175 307.168 277.453 306.37C276.731 305.572 275.8 304.945 274.66 304.489C273.558 303.995 272.228 303.748 270.67 303.748C267.744 303.748 265.464 304.641 263.83 306.427C262.234 308.213 261.436 310.588 261.436 313.552V316.06H256.648V313.21C256.648 311.386 256.952 309.638 257.56 307.966C258.168 306.294 259.061 304.812 260.239 303.52C261.417 302.228 262.88 301.202 264.628 300.442C266.376 299.682 268.39 299.302 270.67 299.302C272.988 299.302 275.002 299.663 276.712 300.385C278.422 301.069 279.847 302 280.987 303.178C282.127 304.318 282.963 305.629 283.495 307.111C284.065 308.555 284.35 310.037 284.35 311.557V312.583C284.35 315.623 283.4 318.226 281.5 320.392C279.6 322.52 276.56 324.04 272.38 324.952C268.732 325.75 266.053 326.814 264.343 328.144C262.633 329.436 261.778 331.336 261.778 333.844V335.554H284.008ZM301.41 320.164V313.552L314.406 305.23V304.546H291.834V300.1H318.51V307.396L305.514 315.718V316.402H307.794C309.314 316.402 310.777 316.649 312.183 317.143C313.589 317.637 314.824 318.359 315.888 319.309C316.99 320.259 317.864 321.437 318.51 322.843C319.194 324.211 319.536 325.807 319.536 327.631V328.657C319.536 330.367 319.194 331.963 318.51 333.445C317.826 334.927 316.876 336.219 315.66 337.321C314.444 338.385 313 339.24 311.328 339.886C309.694 340.494 307.908 340.798 305.97 340.798C303.728 340.798 301.714 340.456 299.928 339.772C298.142 339.088 296.622 338.157 295.368 336.979C294.114 335.763 293.145 334.357 292.461 332.761C291.815 331.127 291.492 329.398 291.492 327.574V324.496H296.28V327.232C296.28 328.676 296.508 329.968 296.964 331.108C297.458 332.21 298.123 333.16 298.959 333.958C299.833 334.718 300.859 335.307 302.037 335.725C303.215 336.143 304.488 336.352 305.856 336.352C307.11 336.352 308.269 336.143 309.333 335.725C310.435 335.307 311.385 334.737 312.183 334.015C312.981 333.255 313.608 332.381 314.064 331.393C314.52 330.367 314.748 329.284 314.748 328.144V327.802C314.748 325.408 313.988 323.546 312.468 322.216C310.948 320.848 309.048 320.164 306.768 320.164H301.41ZM339.561 300.1H348.852V328.03H355.008V332.476H348.852V340H344.064V332.476H325.596V325.864L339.561 300.1ZM329.7 327.346V328.03H344.064V302.152H343.38L329.7 327.346ZM362.15 321.19V300.1H387.116V304.546H366.824V318.796H367.508C367.888 318.036 368.382 317.314 368.99 316.63C369.598 315.908 370.301 315.281 371.099 314.749C371.935 314.217 372.866 313.799 373.892 313.495C374.918 313.153 376.058 312.982 377.312 312.982C379.136 312.982 380.808 313.286 382.328 313.894C383.886 314.502 385.216 315.357 386.318 316.459C387.42 317.561 388.275 318.891 388.883 320.449C389.529 322.007 389.852 323.736 389.852 325.636V326.662C389.852 328.562 389.548 330.367 388.94 332.077C388.332 333.749 387.439 335.25 386.261 336.58C385.083 337.872 383.62 338.898 381.872 339.658C380.124 340.418 378.11 340.798 375.83 340.798C373.512 340.798 371.46 340.456 369.674 339.772C367.888 339.088 366.387 338.138 365.171 336.922C363.955 335.706 363.024 334.281 362.378 332.647C361.77 330.975 361.466 329.17 361.466 327.232V325.636H366.254V326.89C366.254 330.044 367.128 332.419 368.876 334.015C370.662 335.573 372.98 336.352 375.83 336.352C377.35 336.352 378.68 336.086 379.82 335.554C380.998 334.984 381.967 334.243 382.727 333.331C383.525 332.381 384.114 331.298 384.494 330.082C384.874 328.828 385.064 327.536 385.064 326.206V325.864C385.064 324.686 384.855 323.584 384.437 322.558C384.057 321.532 383.506 320.639 382.784 319.879C382.1 319.119 381.245 318.53 380.219 318.112C379.231 317.656 378.148 317.428 376.97 317.428C376.172 317.428 375.431 317.542 374.747 317.77C374.101 317.998 373.531 318.302 373.037 318.682C372.543 319.024 372.125 319.423 371.783 319.879C371.479 320.335 371.27 320.772 371.156 321.19H362.15Z" fill="black"/>
<path d="M259.57 105.27C258.43 105.27 257.422 105 256.546 104.46C255.67 103.92 254.98 103.158 254.476 102.174C253.984 101.19 253.738 100.032 253.738 98.7C253.738 97.368 253.984 96.21 254.476 95.226C254.98 94.23 255.67 93.462 256.546 92.922C257.422 92.37 258.43 92.094 259.57 92.094C260.446 92.094 261.244 92.256 261.964 92.58C262.684 92.904 263.302 93.366 263.818 93.966C264.01 94.17 264.07 94.38 263.998 94.596C263.938 94.8 263.812 94.968 263.62 95.1L263.548 95.136C263.416 95.22 263.236 95.256 263.008 95.244C262.792 95.22 262.588 95.118 262.396 94.938C261.688 94.134 260.746 93.732 259.57 93.732C258.754 93.732 258.034 93.936 257.41 94.344C256.798 94.752 256.318 95.328 255.97 96.072C255.622 96.804 255.448 97.68 255.448 98.7C255.448 99.708 255.622 100.584 255.97 101.328C256.318 102.06 256.798 102.63 257.41 103.038C258.034 103.446 258.754 103.65 259.57 103.65C260.722 103.65 261.664 103.248 262.396 102.444C262.588 102.264 262.78 102.162 262.972 102.138C263.176 102.114 263.368 102.15 263.548 102.246L263.584 102.264C263.788 102.372 263.926 102.534 263.998 102.75C264.07 102.966 264.016 103.176 263.836 103.38C263.32 103.98 262.696 104.448 261.964 104.784C261.244 105.108 260.446 105.27 259.57 105.27ZM265.886 105C265.622 105 265.436 104.922 265.328 104.766C265.232 104.598 265.232 104.376 265.328 104.1L269.648 93.012C269.804 92.604 270.104 92.4 270.548 92.4H270.674C271.118 92.4 271.418 92.604 271.574 93.012L275.894 104.1C275.99 104.376 275.99 104.598 275.894 104.766C275.798 104.922 275.612 105 275.336 105H275.066C274.61 105 274.31 104.79 274.166 104.37L273.194 101.778H267.992L267.002 104.37C266.858 104.79 266.564 105 266.12 105H265.886ZM268.55 100.23H272.636L270.62 94.758L268.55 100.23ZM278.347 105C277.807 105 277.537 104.712 277.537 104.136V93.246C277.537 92.682 277.819 92.4 278.383 92.4H283.171C284.359 92.4 285.277 92.676 285.925 93.228C286.585 93.78 286.915 94.656 286.915 95.856C286.915 96.924 286.657 97.74 286.141 98.304C285.625 98.868 284.875 99.198 283.891 99.294L286.321 103.992C286.465 104.292 286.495 104.538 286.411 104.73C286.327 104.91 286.147 105 285.871 105H285.619C285.139 105 284.803 104.784 284.611 104.352L282.163 99.366H279.175V104.136C279.175 104.712 278.899 105 278.347 105ZM279.175 97.8H282.973C283.693 97.8 284.239 97.65 284.611 97.35C284.995 97.038 285.187 96.54 285.187 95.856C285.187 95.184 284.995 94.698 284.611 94.398C284.239 94.098 283.693 93.948 282.973 93.948H279.175V97.8ZM289.554 105C288.99 105 288.708 104.712 288.708 104.136V93.264C288.708 92.688 288.99 92.4 289.554 92.4H292.578C293.898 92.4 295.008 92.658 295.908 93.174C296.82 93.69 297.51 94.422 297.978 95.37C298.458 96.306 298.698 97.416 298.698 98.7C298.698 99.972 298.458 101.082 297.978 102.03C297.51 102.978 296.82 103.71 295.908 104.226C295.008 104.742 293.898 105 292.578 105H289.554ZM290.346 103.452H292.47C293.478 103.452 294.312 103.254 294.972 102.858C295.644 102.45 296.148 101.892 296.484 101.184C296.82 100.464 296.988 99.636 296.988 98.7C296.988 97.752 296.82 96.924 296.484 96.216C296.148 95.508 295.644 94.956 294.972 94.56C294.312 94.152 293.478 93.948 292.47 93.948H290.346V103.452ZM305.955 105C305.415 105 305.145 104.712 305.145 104.136V93.264C305.145 92.688 305.415 92.4 305.955 92.4H306.135C306.567 92.4 306.909 92.586 307.161 92.958L313.245 102.102V93.264C313.245 92.688 313.527 92.4 314.091 92.4C314.631 92.4 314.901 92.688 314.901 93.264V104.136C314.901 104.712 314.637 105 314.109 105H313.983C313.515 105 313.173 104.814 312.957 104.442L306.783 95.118V104.136C306.783 104.712 306.507 105 305.955 105ZM321.818 105.216C320.294 105.216 319.13 104.796 318.326 103.956C317.522 103.104 317.12 101.844 317.12 100.176V93.264C317.12 92.688 317.402 92.4 317.966 92.4C318.518 92.4 318.794 92.688 318.794 93.264V100.104C318.794 101.268 319.052 102.144 319.568 102.732C320.096 103.32 320.846 103.614 321.818 103.614C322.79 103.614 323.534 103.32 324.05 102.732C324.566 102.144 324.824 101.268 324.824 100.104V93.264C324.824 92.688 325.106 92.4 325.67 92.4C326.222 92.4 326.498 92.688 326.498 93.264V100.176C326.498 101.844 326.096 103.104 325.292 103.956C324.488 104.796 323.33 105.216 321.818 105.216ZM329.581 105C329.029 105 328.753 104.712 328.753 104.136V93.264C328.753 92.94 328.831 92.718 328.987 92.598C329.155 92.466 329.401 92.4 329.725 92.4C330.169 92.4 330.505 92.592 330.733 92.976L334.315 98.646L337.861 92.994C337.993 92.754 338.149 92.598 338.329 92.526C338.521 92.442 338.755 92.4 339.031 92.4C339.607 92.4 339.895 92.688 339.895 93.264V104.136C339.895 104.712 339.613 105 339.049 105C338.485 105 338.203 104.712 338.203 104.136V95.262L335.125 100.23C334.921 100.614 334.651 100.806 334.315 100.806C333.991 100.806 333.715 100.614 333.487 100.23L330.409 95.262V104.136C330.409 104.712 330.133 105 329.581 105ZM343.071 105C342.555 105 342.297 104.736 342.297 104.208V93.192C342.297 92.664 342.555 92.4 343.071 92.4H347.283C348.399 92.4 349.269 92.676 349.893 93.228C350.529 93.768 350.847 94.554 350.847 95.586C350.847 96.294 350.685 96.888 350.361 97.368C350.037 97.848 349.611 98.184 349.083 98.376C349.767 98.532 350.325 98.91 350.757 99.51C351.201 100.098 351.423 100.8 351.423 101.616C351.423 102.744 351.087 103.59 350.415 104.154C349.755 104.718 348.789 105 347.517 105H343.071ZM343.935 103.452H347.319C348.135 103.452 348.729 103.29 349.101 102.966C349.473 102.63 349.659 102.114 349.659 101.418C349.659 100.746 349.437 100.224 348.993 99.852C348.549 99.48 347.985 99.294 347.301 99.294H343.935V103.452ZM343.935 97.728H347.103C347.739 97.728 348.225 97.554 348.561 97.206C348.897 96.858 349.065 96.396 349.065 95.82C349.065 94.572 348.375 93.948 346.995 93.948H343.935V97.728ZM354.191 105C353.627 105 353.345 104.712 353.345 104.136V93.264C353.345 92.688 353.627 92.4 354.191 92.4H360.635C361.211 92.4 361.499 92.658 361.499 93.174C361.499 93.69 361.211 93.948 360.635 93.948H354.983V97.782H360.077C360.641 97.782 360.923 98.046 360.923 98.574C360.923 99.09 360.641 99.348 360.077 99.348H354.983V103.452H360.851C361.427 103.452 361.715 103.71 361.715 104.226C361.715 104.742 361.427 105 360.851 105H354.191ZM364.289 105C363.749 105 363.479 104.712 363.479 104.136V93.246C363.479 92.682 363.761 92.4 364.325 92.4H369.113C370.301 92.4 371.219 92.676 371.867 93.228C372.527 93.78 372.857 94.656 372.857 95.856C372.857 96.924 372.599 97.74 372.083 98.304C371.567 98.868 370.817 99.198 369.833 99.294L372.263 103.992C372.407 104.292 372.437 104.538 372.353 104.73C372.269 104.91 372.089 105 371.813 105H371.561C371.081 105 370.745 104.784 370.553 104.352L368.105 99.366H365.117V104.136C365.117 104.712 364.841 105 364.289 105ZM365.117 97.8H368.915C369.635 97.8 370.181 97.65 370.553 97.35C370.937 97.038 371.129 96.54 371.129 95.856C371.129 95.184 370.937 94.698 370.553 94.398C370.181 94.098 369.635 93.948 368.915 93.948H365.117V97.8Z" fill="black"/>
<rect x="52" width="88" height="763" fill="#222222"/>
</svg>
