<svg width="470" height="763" viewBox="0 0 470 763" fill="none" xmlns="http://www.w3.org/2000/svg">
<rect width="470" height="763" rx="20" fill="#50DBB4"/>
<path d="M267.112 573.4H274.936V596.92H280.12V600.664H274.936V607H270.904V600.664H255.352V595.096L267.112 573.4ZM258.808 596.344V596.92H270.904V575.128H270.328L258.808 596.344ZM286.135 591.16V573.4H307.159V577.144H290.071V589.144H290.647C290.967 588.504 291.383 587.896 291.895 587.32C292.407 586.712 292.999 586.184 293.671 585.736C294.375 585.288 295.159 584.936 296.023 584.68C296.887 584.392 297.847 584.248 298.903 584.248C300.439 584.248 301.847 584.504 303.127 585.016C304.439 585.528 305.559 586.248 306.487 587.176C307.415 588.104 308.135 589.224 308.647 590.536C309.191 591.848 309.463 593.304 309.463 594.904V595.768C309.463 597.368 309.207 598.888 308.695 600.328C308.183 601.736 307.431 603 306.439 604.12C305.447 605.208 304.215 606.072 302.743 606.712C301.271 607.352 299.575 607.672 297.655 607.672C295.703 607.672 293.975 607.384 292.471 606.808C290.967 606.232 289.703 605.432 288.679 604.408C287.655 603.384 286.871 602.184 286.327 600.808C285.815 599.4 285.559 597.88 285.559 596.248V594.904H289.591V595.96C289.591 598.616 290.327 600.616 291.799 601.96C293.303 603.272 295.255 603.928 297.655 603.928C298.935 603.928 300.055 603.704 301.015 603.256C302.007 602.776 302.823 602.152 303.463 601.384C304.135 600.584 304.631 599.672 304.951 598.648C305.271 597.592 305.431 596.504 305.431 595.384V595.096C305.431 594.104 305.255 593.176 304.903 592.312C304.583 591.448 304.119 590.696 303.511 590.056C302.935 589.416 302.215 588.92 301.351 588.568C300.519 588.184 299.607 587.992 298.615 587.992C297.943 587.992 297.319 588.088 296.743 588.28C296.199 588.472 295.719 588.728 295.303 589.048C294.887 589.336 294.535 589.672 294.247 590.056C293.991 590.44 293.815 590.808 293.719 591.16H286.135ZM324.693 603.256V575.176H324.117L318.597 587.8H314.613V587.512L320.901 573.4H328.725V603.256H338.229V607H315.189V603.256H324.693Z" fill="black"/>
<path d="M259.57 545.27C258.43 545.27 257.422 545 256.546 544.46C255.67 543.92 254.98 543.158 254.476 542.174C253.984 541.19 253.738 540.032 253.738 538.7C253.738 537.368 253.984 536.21 254.476 535.226C254.98 534.23 255.67 533.462 256.546 532.922C257.422 532.37 258.43 532.094 259.57 532.094C260.446 532.094 261.244 532.256 261.964 532.58C262.684 532.904 263.302 533.366 263.818 533.966C264.01 534.17 264.07 534.38 263.998 534.596C263.938 534.8 263.812 534.968 263.62 535.1L263.548 535.136C263.416 535.22 263.236 535.256 263.008 535.244C262.792 535.22 262.588 535.118 262.396 534.938C261.688 534.134 260.746 533.732 259.57 533.732C258.754 533.732 258.034 533.936 257.41 534.344C256.798 534.752 256.318 535.328 255.97 536.072C255.622 536.804 255.448 537.68 255.448 538.7C255.448 539.708 255.622 540.584 255.97 541.328C256.318 542.06 256.798 542.63 257.41 543.038C258.034 543.446 258.754 543.65 259.57 543.65C260.722 543.65 261.664 543.248 262.396 542.444C262.588 542.264 262.78 542.162 262.972 542.138C263.176 542.114 263.368 542.15 263.548 542.246L263.584 542.264C263.788 542.372 263.926 542.534 263.998 542.75C264.07 542.966 264.016 543.176 263.836 543.38C263.32 543.98 262.696 544.448 261.964 544.784C261.244 545.108 260.446 545.27 259.57 545.27ZM270.368 545.036C270.14 545.036 269.924 544.976 269.72 544.856C269.528 544.724 269.384 544.544 269.288 544.316L265.328 533.39C265.088 532.73 265.316 532.4 266.012 532.4C266.504 532.4 266.828 532.634 266.984 533.102L270.35 542.678L273.734 533.102C273.902 532.634 274.238 532.4 274.742 532.4C275.042 532.4 275.246 532.49 275.354 532.67C275.474 532.85 275.486 533.09 275.39 533.39L271.412 544.316C271.328 544.544 271.19 544.724 270.998 544.856C270.806 544.976 270.596 545.036 270.368 545.036ZM281.86 545.27C280.72 545.27 279.712 545 278.836 544.46C277.96 543.92 277.27 543.158 276.766 542.174C276.274 541.19 276.028 540.032 276.028 538.7C276.028 537.368 276.274 536.21 276.766 535.226C277.27 534.23 277.96 533.462 278.836 532.922C279.712 532.37 280.72 532.094 281.86 532.094C282.736 532.094 283.534 532.256 284.254 532.58C284.974 532.904 285.592 533.366 286.108 533.966C286.3 534.17 286.36 534.38 286.288 534.596C286.228 534.8 286.102 534.968 285.91 535.1L285.838 535.136C285.706 535.22 285.526 535.256 285.298 535.244C285.082 535.22 284.878 535.118 284.686 534.938C283.978 534.134 283.036 533.732 281.86 533.732C281.044 533.732 280.324 533.936 279.7 534.344C279.088 534.752 278.608 535.328 278.26 536.072C277.912 536.804 277.738 537.68 277.738 538.7C277.738 539.708 277.912 540.584 278.26 541.328C278.608 542.06 279.088 542.63 279.7 543.038C280.324 543.446 281.044 543.65 281.86 543.65C283.012 543.65 283.954 543.248 284.686 542.444C284.878 542.264 285.07 542.162 285.262 542.138C285.466 542.114 285.658 542.15 285.838 542.246L285.874 542.264C286.078 542.372 286.216 542.534 286.288 542.75C286.36 542.966 286.306 543.176 286.126 543.38C285.61 543.98 284.986 544.448 284.254 544.784C283.534 545.108 282.736 545.27 281.86 545.27Z" fill="black"/>
<path d="M255.88 449.456C255.88 445.104 256.92 441.728 259 439.328C261.08 436.928 263.976 435.728 267.688 435.728C271.4 435.728 274.296 436.928 276.376 439.328C278.456 441.728 279.496 445.104 279.496 449.456V456.944C279.496 461.424 278.456 464.832 276.376 467.168C274.296 469.504 271.4 470.672 267.688 470.672C263.976 470.672 261.08 469.504 259 467.168C256.92 464.832 255.88 461.424 255.88 456.944V449.456ZM267.688 467.024C270.28 467.024 272.216 466.128 273.496 464.336C274.808 462.512 275.464 459.952 275.464 456.656V449.744C275.464 448.208 275.304 446.816 274.984 445.568C274.664 444.288 274.168 443.2 273.496 442.304C272.856 441.376 272.04 440.656 271.048 440.144C270.088 439.632 268.968 439.376 267.688 439.376C266.376 439.376 265.24 439.632 264.28 440.144C263.32 440.656 262.504 441.376 261.832 442.304C261.192 443.2 260.712 444.288 260.392 445.568C260.072 446.816 259.912 448.208 259.912 449.744V456.656C259.912 459.952 260.552 462.512 261.832 464.336C263.144 466.128 265.096 467.024 267.688 467.024ZM264.616 453.2C264.616 452.368 264.92 451.648 265.528 451.04C266.136 450.432 266.856 450.128 267.688 450.128C268.52 450.128 269.24 450.432 269.848 451.04C270.456 451.648 270.76 452.368 270.76 453.2C270.76 454.032 270.456 454.752 269.848 455.36C269.24 455.968 268.52 456.272 267.688 456.272C266.856 456.272 266.136 455.968 265.528 455.36C264.92 454.752 264.616 454.032 264.616 453.2ZM308.503 466.256V470H285.751V464.24C285.751 462.704 286.007 461.376 286.519 460.256C287.031 459.104 287.751 458.128 288.679 457.328C289.639 456.496 290.791 455.808 292.135 455.264C293.479 454.72 294.999 454.256 296.695 453.872C299.543 453.232 301.591 452.32 302.839 451.136C304.119 449.952 304.759 448.496 304.759 446.768V446.48C304.759 445.616 304.615 444.768 304.327 443.936C304.039 443.104 303.591 442.352 302.983 441.68C302.375 441.008 301.591 440.48 300.631 440.096C299.703 439.68 298.583 439.472 297.271 439.472C294.807 439.472 292.887 440.224 291.511 441.728C290.167 443.232 289.495 445.232 289.495 447.728V449.84H285.463V447.44C285.463 445.904 285.719 444.432 286.231 443.024C286.743 441.616 287.495 440.368 288.487 439.28C289.479 438.192 290.711 437.328 292.183 436.688C293.655 436.048 295.351 435.728 297.271 435.728C299.223 435.728 300.919 436.032 302.359 436.64C303.799 437.216 304.999 438 305.959 438.992C306.919 439.952 307.623 441.056 308.071 442.304C308.551 443.52 308.791 444.768 308.791 446.048V446.912C308.791 449.472 307.991 451.664 306.391 453.488C304.791 455.28 302.231 456.56 298.711 457.328C295.639 458 293.383 458.896 291.943 460.016C290.503 461.104 289.783 462.704 289.783 464.816V466.256H308.503ZM331.797 431.312L335.157 432.368L321.189 475.088L317.781 474.032L331.797 431.312ZM367.284 466.256V470H344.532V464.24C344.532 462.704 344.788 461.376 345.3 460.256C345.812 459.104 346.532 458.128 347.46 457.328C348.42 456.496 349.572 455.808 350.916 455.264C352.26 454.72 353.78 454.256 355.476 453.872C358.324 453.232 360.372 452.32 361.62 451.136C362.9 449.952 363.54 448.496 363.54 446.768V446.48C363.54 445.616 363.396 444.768 363.108 443.936C362.82 443.104 362.372 442.352 361.764 441.68C361.156 441.008 360.372 440.48 359.412 440.096C358.484 439.68 357.364 439.472 356.052 439.472C353.588 439.472 351.668 440.224 350.292 441.728C348.948 443.232 348.276 445.232 348.276 447.728V449.84H344.244V447.44C344.244 445.904 344.5 444.432 345.012 443.024C345.524 441.616 346.276 440.368 347.268 439.28C348.26 438.192 349.492 437.328 350.964 436.688C352.436 436.048 354.132 435.728 356.052 435.728C358.004 435.728 359.7 436.032 361.14 436.64C362.58 437.216 363.78 438 364.74 438.992C365.7 439.952 366.404 441.056 366.852 442.304C367.332 443.52 367.572 444.768 367.572 446.048V446.912C367.572 449.472 366.772 451.664 365.172 453.488C363.572 455.28 361.012 456.56 357.492 457.328C354.42 458 352.164 458.896 350.724 460.016C349.284 461.104 348.564 462.704 348.564 464.816V466.256H367.284ZM392.307 446.192C392.307 444.112 391.667 442.448 390.387 441.2C389.107 439.92 387.331 439.28 385.059 439.28C383.971 439.28 382.963 439.472 382.035 439.856C381.139 440.24 380.355 440.8 379.683 441.536C379.043 442.24 378.531 443.088 378.147 444.08C377.795 445.072 377.618 446.16 377.618 447.344V452.336H378.195C378.963 450.928 380.051 449.824 381.459 449.024C382.899 448.224 384.499 447.824 386.259 447.824C387.795 447.824 389.219 448.08 390.531 448.592C391.843 449.072 392.963 449.792 393.891 450.752C394.851 451.712 395.587 452.88 396.099 454.256C396.643 455.6 396.915 457.136 396.915 458.864V459.44C396.915 461.104 396.611 462.624 396.003 464C395.427 465.376 394.611 466.56 393.555 467.552C392.531 468.544 391.299 469.312 389.859 469.856C388.451 470.4 386.915 470.672 385.251 470.672C383.587 470.672 382.035 470.4 380.595 469.856C379.187 469.312 377.955 468.56 376.898 467.6C375.875 466.608 375.059 465.44 374.451 464.096C373.875 462.72 373.587 461.216 373.587 459.584V447.344C373.587 445.584 373.891 443.984 374.499 442.544C375.107 441.104 375.939 439.888 376.995 438.896C378.051 437.872 379.267 437.088 380.643 436.544C382.051 436 383.555 435.728 385.155 435.728C386.755 435.728 388.243 435.968 389.619 436.448C390.995 436.928 392.179 437.632 393.171 438.56C394.163 439.456 394.931 440.56 395.475 441.872C396.051 443.152 396.339 444.592 396.339 446.192H392.307ZM385.251 467.12C386.403 467.12 387.443 466.944 388.371 466.592C389.331 466.208 390.147 465.68 390.819 465.008C391.491 464.336 392.003 463.536 392.355 462.608C392.707 461.68 392.883 460.656 392.883 459.536V458.96C392.883 457.84 392.691 456.816 392.307 455.888C391.923 454.96 391.395 454.16 390.723 453.488C390.051 452.816 389.235 452.304 388.275 451.952C387.347 451.568 386.339 451.376 385.251 451.376C384.163 451.376 383.155 451.568 382.227 451.952C381.299 452.336 380.483 452.864 379.779 453.536C379.107 454.208 378.579 454.992 378.195 455.888C377.811 456.784 377.618 457.744 377.618 458.768V459.68C377.618 460.736 377.795 461.728 378.147 462.656C378.499 463.552 379.011 464.336 379.683 465.008C380.355 465.68 381.155 466.208 382.083 466.592C383.043 466.944 384.099 467.12 385.251 467.12Z" fill="black"/>
<path d="M255.232 408C254.668 408 254.386 407.712 254.386 407.136V396.264C254.386 395.688 254.668 395.4 255.232 395.4H261.676C262.252 395.4 262.54 395.658 262.54 396.174C262.54 396.69 262.252 396.948 261.676 396.948H256.024V400.782H261.118C261.682 400.782 261.964 401.046 261.964 401.574C261.964 402.09 261.682 402.348 261.118 402.348H256.024V406.452H261.892C262.468 406.452 262.756 406.71 262.756 407.226C262.756 407.742 262.468 408 261.892 408H255.232ZM264.844 408C264.424 408 264.172 407.892 264.088 407.676C264.004 407.46 264.046 407.22 264.214 406.956L267.76 401.394L264.574 396.444C264.334 396.096 264.274 395.838 264.394 395.67C264.514 395.49 264.778 395.4 265.186 395.4C265.642 395.4 265.984 395.592 266.212 395.976L268.66 399.9L271.09 395.976C271.318 395.592 271.66 395.4 272.116 395.4C272.92 395.4 273.124 395.748 272.728 396.444L269.56 401.394L273.106 406.956C273.298 407.256 273.34 407.508 273.232 407.712C273.136 407.904 272.878 408 272.458 408C272.002 408 271.66 407.808 271.432 407.424L268.66 402.906L265.87 407.424C265.642 407.808 265.3 408 264.844 408ZM276.009 408C275.469 408 275.199 407.712 275.199 407.136V396.246C275.199 395.682 275.481 395.4 276.045 395.4H280.833C282.021 395.4 282.939 395.676 283.587 396.228C284.247 396.78 284.577 397.656 284.577 398.856C284.577 400.068 284.247 400.956 283.587 401.52C282.939 402.084 282.021 402.366 280.833 402.366H276.837V407.136C276.837 407.712 276.561 408 276.009 408ZM276.837 400.8H280.635C281.355 400.8 281.901 400.65 282.273 400.35C282.657 400.038 282.849 399.54 282.849 398.856C282.849 398.184 282.657 397.698 282.273 397.398C281.901 397.098 281.355 396.948 280.635 396.948H276.837V400.8ZM286.987 408C286.447 408 286.177 407.712 286.177 407.136V396.264C286.177 395.688 286.447 395.4 286.987 395.4C287.539 395.4 287.815 395.688 287.815 396.264V407.136C287.815 407.712 287.539 408 286.987 408ZM291.039 408C290.499 408 290.229 407.712 290.229 407.136V396.246C290.229 395.682 290.511 395.4 291.075 395.4H295.863C297.051 395.4 297.969 395.676 298.617 396.228C299.277 396.78 299.607 397.656 299.607 398.856C299.607 399.924 299.349 400.74 298.833 401.304C298.317 401.868 297.567 402.198 296.583 402.294L299.013 406.992C299.157 407.292 299.187 407.538 299.103 407.73C299.019 407.91 298.839 408 298.563 408H298.311C297.831 408 297.495 407.784 297.303 407.352L294.855 402.366H291.867V407.136C291.867 407.712 291.591 408 291.039 408ZM291.867 400.8H295.665C296.385 400.8 296.931 400.65 297.303 400.35C297.687 400.038 297.879 399.54 297.879 398.856C297.879 398.184 297.687 397.698 297.303 397.398C296.931 397.098 296.385 396.948 295.665 396.948H291.867V400.8ZM305.504 408C304.94 408 304.658 407.712 304.658 407.136V402.636L301.04 396.426C300.848 396.102 300.806 395.85 300.914 395.67C301.034 395.49 301.28 395.4 301.652 395.4C301.904 395.4 302.108 395.448 302.264 395.544C302.432 395.64 302.576 395.79 302.696 395.994L305.504 400.836L308.276 395.994C308.516 395.598 308.858 395.4 309.302 395.4C309.686 395.4 309.932 395.502 310.04 395.706C310.148 395.898 310.118 396.138 309.95 396.426L306.332 402.636V407.136C306.332 407.712 306.056 408 305.504 408ZM317.523 408C316.959 408 316.677 407.712 316.677 407.136V396.264C316.677 395.688 316.959 395.4 317.523 395.4H320.547C321.867 395.4 322.977 395.658 323.877 396.174C324.789 396.69 325.479 397.422 325.947 398.37C326.427 399.306 326.667 400.416 326.667 401.7C326.667 402.972 326.427 404.082 325.947 405.03C325.479 405.978 324.789 406.71 323.877 407.226C322.977 407.742 321.867 408 320.547 408H317.523ZM318.315 406.452H320.439C321.447 406.452 322.281 406.254 322.941 405.858C323.613 405.45 324.117 404.892 324.453 404.184C324.789 403.464 324.957 402.636 324.957 401.7C324.957 400.752 324.789 399.924 324.453 399.216C324.117 398.508 323.613 397.956 322.941 397.56C322.281 397.152 321.447 396.948 320.439 396.948H318.315V406.452ZM327.667 408C327.403 408 327.217 407.922 327.109 407.766C327.013 407.598 327.013 407.376 327.109 407.1L331.429 396.012C331.585 395.604 331.885 395.4 332.329 395.4H332.455C332.899 395.4 333.199 395.604 333.355 396.012L337.675 407.1C337.771 407.376 337.771 407.598 337.675 407.766C337.579 407.922 337.393 408 337.117 408H336.847C336.391 408 336.091 407.79 335.947 407.37L334.975 404.778H329.773L328.783 407.37C328.639 407.79 328.345 408 327.901 408H327.667ZM330.331 403.23H334.417L332.401 397.758L330.331 403.23ZM341.521 408C340.957 408 340.675 407.712 340.675 407.136V396.948H337.579C337.003 396.948 336.715 396.69 336.715 396.174C336.715 395.658 337.003 395.4 337.579 395.4H345.427C345.991 395.4 346.273 395.658 346.273 396.174C346.273 396.69 345.991 396.948 345.427 396.948H342.331V407.136C342.331 407.712 342.061 408 341.521 408ZM348.734 408C348.17 408 347.888 407.712 347.888 407.136V396.264C347.888 395.688 348.17 395.4 348.734 395.4H355.178C355.754 395.4 356.042 395.658 356.042 396.174C356.042 396.69 355.754 396.948 355.178 396.948H349.526V400.782H354.62C355.184 400.782 355.466 401.046 355.466 401.574C355.466 402.09 355.184 402.348 354.62 402.348H349.526V406.452H355.394C355.97 406.452 356.258 406.71 356.258 407.226C356.258 407.742 355.97 408 355.394 408H348.734Z" fill="black"/>
<path d="M284.008 164.554V169H256.99V162.16C256.99 160.336 257.294 158.759 257.902 157.429C258.51 156.061 259.365 154.902 260.467 153.952C261.607 152.964 262.975 152.147 264.571 151.501C266.167 150.855 267.972 150.304 269.986 149.848C273.368 149.088 275.8 148.005 277.282 146.599C278.802 145.193 279.562 143.464 279.562 141.412V141.07C279.562 140.044 279.391 139.037 279.049 138.049C278.707 137.061 278.175 136.168 277.453 135.37C276.731 134.572 275.8 133.945 274.66 133.489C273.558 132.995 272.228 132.748 270.67 132.748C267.744 132.748 265.464 133.641 263.83 135.427C262.234 137.213 261.436 139.588 261.436 142.552V145.06H256.648V142.21C256.648 140.386 256.952 138.638 257.56 136.966C258.168 135.294 259.061 133.812 260.239 132.52C261.417 131.228 262.88 130.202 264.628 129.442C266.376 128.682 268.39 128.302 270.67 128.302C272.988 128.302 275.002 128.663 276.712 129.385C278.422 130.069 279.847 131 280.987 132.178C282.127 133.318 282.963 134.629 283.495 136.111C284.065 137.555 284.35 139.037 284.35 140.557V141.583C284.35 144.623 283.4 147.226 281.5 149.392C279.6 151.52 276.56 153.04 272.38 153.952C268.732 154.75 266.053 155.814 264.343 157.144C262.633 158.436 261.778 160.336 261.778 162.844V164.554H284.008ZM303.234 164.554V131.209H302.55L295.995 146.2H291.264V145.858L298.731 129.1H308.022V164.554H319.308V169H291.948V164.554H303.234ZM339.561 129.1H348.852V157.03H355.008V161.476H348.852V169H344.064V161.476H325.596V154.864L339.561 129.1ZM329.7 156.346V157.03H344.064V131.152H343.38L329.7 156.346ZM374.462 129.1H383.753V157.03H389.909V161.476H383.753V169H378.965V161.476H360.497V154.864L374.462 129.1ZM364.601 156.346V157.03H378.965V131.152H378.281L364.601 156.346ZM256.42 201.604C256.42 196.436 257.655 192.427 260.125 189.577C262.595 186.727 266.034 185.302 270.442 185.302C274.85 185.302 278.289 186.727 280.759 189.577C283.229 192.427 284.464 196.436 284.464 201.604V210.496C284.464 215.816 283.229 219.863 280.759 222.637C278.289 225.411 274.85 226.798 270.442 226.798C266.034 226.798 262.595 225.411 260.125 222.637C257.655 219.863 256.42 215.816 256.42 210.496V201.604ZM270.442 222.466C273.52 222.466 275.819 221.402 277.339 219.274C278.897 217.108 279.676 214.068 279.676 210.154V201.946C279.676 200.122 279.486 198.469 279.106 196.987C278.726 195.467 278.137 194.175 277.339 193.111C276.579 192.009 275.61 191.154 274.432 190.546C273.292 189.938 271.962 189.634 270.442 189.634C268.884 189.634 267.535 189.938 266.395 190.546C265.255 191.154 264.286 192.009 263.488 193.111C262.728 194.175 262.158 195.467 261.778 196.987C261.398 198.469 261.208 200.122 261.208 201.946V210.154C261.208 214.068 261.968 217.108 263.488 219.274C265.046 221.402 267.364 222.466 270.442 222.466ZM266.794 206.05C266.794 205.062 267.155 204.207 267.877 203.485C268.599 202.763 269.454 202.402 270.442 202.402C271.43 202.402 272.285 202.763 273.007 203.485C273.729 204.207 274.09 205.062 274.09 206.05C274.09 207.038 273.729 207.893 273.007 208.615C272.285 209.337 271.43 209.698 270.442 209.698C269.454 209.698 268.599 209.337 267.877 208.615C267.155 207.893 266.794 207.038 266.794 206.05ZM304.659 186.1H313.95V214.03H320.106V218.476H313.95V226H309.162V218.476H290.694V211.864L304.659 186.1ZM294.798 213.346V214.03H309.162V188.152H308.478L294.798 213.346ZM327.249 207.19V186.1H352.215V190.546H331.923V204.796H332.607C332.987 204.036 333.481 203.314 334.089 202.63C334.697 201.908 335.4 201.281 336.198 200.749C337.034 200.217 337.965 199.799 338.991 199.495C340.017 199.153 341.157 198.982 342.411 198.982C344.235 198.982 345.907 199.286 347.427 199.894C348.985 200.502 350.315 201.357 351.417 202.459C352.519 203.561 353.374 204.891 353.982 206.449C354.628 208.007 354.951 209.736 354.951 211.636V212.662C354.951 214.562 354.647 216.367 354.039 218.077C353.431 219.749 352.538 221.25 351.36 222.58C350.182 223.872 348.719 224.898 346.971 225.658C345.223 226.418 343.209 226.798 340.929 226.798C338.611 226.798 336.559 226.456 334.773 225.772C332.987 225.088 331.486 224.138 330.27 222.922C329.054 221.706 328.123 220.281 327.477 218.647C326.869 216.975 326.565 215.17 326.565 213.232V211.636H331.353V212.89C331.353 216.044 332.227 218.419 333.975 220.015C335.761 221.573 338.079 222.352 340.929 222.352C342.449 222.352 343.779 222.086 344.919 221.554C346.097 220.984 347.066 220.243 347.826 219.331C348.624 218.381 349.213 217.298 349.593 216.082C349.973 214.828 350.163 213.536 350.163 212.206V211.864C350.163 210.686 349.954 209.584 349.536 208.558C349.156 207.532 348.605 206.639 347.883 205.879C347.199 205.119 346.344 204.53 345.318 204.112C344.33 203.656 343.247 203.428 342.069 203.428C341.271 203.428 340.53 203.542 339.846 203.77C339.2 203.998 338.63 204.302 338.136 204.682C337.642 205.024 337.224 205.423 336.882 205.879C336.578 206.335 336.369 206.772 336.255 207.19H327.249ZM383.525 197.728C383.525 195.258 382.765 193.282 381.245 191.8C379.725 190.28 377.616 189.52 374.918 189.52C373.626 189.52 372.429 189.748 371.327 190.204C370.263 190.66 369.332 191.325 368.534 192.199C367.774 193.035 367.166 194.042 366.71 195.22C366.292 196.398 366.083 197.69 366.083 199.096V205.024H366.767C367.679 203.352 368.971 202.041 370.643 201.091C372.353 200.141 374.253 199.666 376.343 199.666C378.167 199.666 379.858 199.97 381.416 200.578C382.974 201.148 384.304 202.003 385.406 203.143C386.546 204.283 387.42 205.67 388.028 207.304C388.674 208.9 388.997 210.724 388.997 212.776V213.46C388.997 215.436 388.636 217.241 387.914 218.875C387.23 220.509 386.261 221.915 385.007 223.093C383.791 224.271 382.328 225.183 380.618 225.829C378.946 226.475 377.122 226.798 375.146 226.798C373.17 226.798 371.327 226.475 369.617 225.829C367.945 225.183 366.482 224.29 365.228 223.15C364.012 221.972 363.043 220.585 362.321 218.989C361.637 217.355 361.295 215.569 361.295 213.631V199.096C361.295 197.006 361.656 195.106 362.378 193.396C363.1 191.686 364.088 190.242 365.342 189.064C366.596 187.848 368.04 186.917 369.674 186.271C371.346 185.625 373.132 185.302 375.032 185.302C376.932 185.302 378.699 185.587 380.333 186.157C381.967 186.727 383.373 187.563 384.551 188.665C385.729 189.729 386.641 191.04 387.287 192.598C387.971 194.118 388.313 195.828 388.313 197.728H383.525ZM375.146 222.58C376.514 222.58 377.749 222.371 378.851 221.953C379.991 221.497 380.96 220.87 381.758 220.072C382.556 219.274 383.164 218.324 383.582 217.222C384 216.12 384.209 214.904 384.209 213.574V212.89C384.209 211.56 383.981 210.344 383.525 209.242C383.069 208.14 382.442 207.19 381.644 206.392C380.846 205.594 379.877 204.986 378.737 204.568C377.635 204.112 376.438 203.884 375.146 203.884C373.854 203.884 372.657 204.112 371.555 204.568C370.453 205.024 369.484 205.651 368.648 206.449C367.85 207.247 367.223 208.178 366.767 209.242C366.311 210.306 366.083 211.446 366.083 212.662V213.745C366.083 214.999 366.292 216.177 366.71 217.279C367.128 218.343 367.736 219.274 368.534 220.072C369.332 220.87 370.282 221.497 371.384 221.953C372.524 222.371 373.778 222.58 375.146 222.58ZM257.446 264.19V243.1H282.412V247.546H262.12V261.796H262.804C263.184 261.036 263.678 260.314 264.286 259.63C264.894 258.908 265.597 258.281 266.395 257.749C267.231 257.217 268.162 256.799 269.188 256.495C270.214 256.153 271.354 255.982 272.608 255.982C274.432 255.982 276.104 256.286 277.624 256.894C279.182 257.502 280.512 258.357 281.614 259.459C282.716 260.561 283.571 261.891 284.179 263.449C284.825 265.007 285.148 266.736 285.148 268.636V269.662C285.148 271.562 284.844 273.367 284.236 275.077C283.628 276.749 282.735 278.25 281.557 279.58C280.379 280.872 278.916 281.898 277.168 282.658C275.42 283.418 273.406 283.798 271.126 283.798C268.808 283.798 266.756 283.456 264.97 282.772C263.184 282.088 261.683 281.138 260.467 279.922C259.251 278.706 258.32 277.281 257.674 275.647C257.066 273.975 256.762 272.17 256.762 270.232V268.636H261.55V269.89C261.55 273.044 262.424 275.419 264.172 277.015C265.958 278.573 268.276 279.352 271.126 279.352C272.646 279.352 273.976 279.086 275.116 278.554C276.294 277.984 277.263 277.243 278.023 276.331C278.821 275.381 279.41 274.298 279.79 273.082C280.17 271.828 280.36 270.536 280.36 269.206V268.864C280.36 267.686 280.151 266.584 279.733 265.558C279.353 264.532 278.802 263.639 278.08 262.879C277.396 262.119 276.541 261.53 275.515 261.112C274.527 260.656 273.444 260.428 272.266 260.428C271.468 260.428 270.727 260.542 270.043 260.77C269.397 260.998 268.827 261.302 268.333 261.682C267.839 262.024 267.421 262.423 267.079 262.879C266.775 263.335 266.566 263.772 266.452 264.19H257.446ZM304.83 283.798C302.816 283.798 300.992 283.532 299.358 283C297.724 282.43 296.318 281.67 295.14 280.72C293.962 279.732 293.05 278.592 292.404 277.3C291.796 275.97 291.492 274.526 291.492 272.968V272.284C291.492 270.916 291.701 269.7 292.119 268.636C292.537 267.572 293.088 266.641 293.772 265.843C294.456 265.045 295.235 264.38 296.109 263.848C297.021 263.316 297.952 262.917 298.902 262.651V261.967C298.028 261.701 297.211 261.302 296.451 260.77C295.691 260.238 295.007 259.611 294.399 258.889C293.829 258.167 293.373 257.35 293.031 256.438C292.689 255.488 292.518 254.462 292.518 253.36V252.676C292.518 251.156 292.822 249.769 293.43 248.515C294.038 247.223 294.893 246.121 295.995 245.209C297.135 244.297 298.465 243.594 299.985 243.1C301.543 242.568 303.272 242.302 305.172 242.302H305.514C307.376 242.302 309.086 242.568 310.644 243.1C312.202 243.594 313.532 244.297 314.634 245.209C315.774 246.121 316.648 247.223 317.256 248.515C317.864 249.769 318.168 251.156 318.168 252.676V253.36C318.168 254.462 317.997 255.488 317.655 256.438C317.313 257.35 316.838 258.167 316.23 258.889C315.66 259.611 314.976 260.238 314.178 260.77C313.418 261.302 312.62 261.701 311.784 261.967V262.651C312.734 262.917 313.646 263.316 314.52 263.848C315.432 264.38 316.23 265.045 316.914 265.843C317.598 266.641 318.149 267.572 318.567 268.636C318.985 269.7 319.194 270.916 319.194 272.284V272.968C319.194 274.526 318.871 275.97 318.225 277.3C317.617 278.592 316.724 279.732 315.546 280.72C314.368 281.67 312.962 282.43 311.328 283C309.694 283.532 307.87 283.798 305.856 283.798H304.83ZM305.685 279.466C308.269 279.466 310.359 278.801 311.955 277.471C313.589 276.141 314.406 274.412 314.406 272.284V271.942C314.406 269.586 313.57 267.762 311.898 266.47C310.264 265.178 308.136 264.532 305.514 264.532H305.172C302.55 264.532 300.403 265.178 298.731 266.47C297.097 267.762 296.28 269.586 296.28 271.942V272.284C296.28 274.412 297.078 276.141 298.674 277.471C300.308 278.801 302.417 279.466 305.001 279.466H305.685ZM305.343 260.086C307.737 260.086 309.675 259.459 311.157 258.205C312.639 256.951 313.38 255.374 313.38 253.474V253.132C313.38 251.194 312.639 249.636 311.157 248.458C309.713 247.242 307.775 246.634 305.343 246.634C302.911 246.634 300.954 247.242 299.472 248.458C298.028 249.636 297.306 251.194 297.306 253.132V253.474C297.306 255.374 298.047 256.951 299.529 258.205C301.011 259.459 302.949 260.086 305.343 260.086ZM326.907 243.1H353.583V250.054L336.768 275.476C335.97 276.692 335.362 277.737 334.944 278.611C334.526 279.485 334.317 280.378 334.317 281.29V283H329.643V280.948C329.643 280.264 329.7 279.618 329.814 279.01C329.966 278.402 330.175 277.794 330.441 277.186C330.745 276.54 331.106 275.875 331.524 275.191C331.98 274.469 332.512 273.652 333.12 272.74L349.479 248.23V247.546H326.907V243.1ZM373.037 278.554V245.209H372.353L365.798 260.2H361.067V259.858L368.534 243.1H377.825V278.554H389.111V283H361.751V278.554H373.037ZM284.008 335.554V340H256.99V333.16C256.99 331.336 257.294 329.759 257.902 328.429C258.51 327.061 259.365 325.902 260.467 324.952C261.607 323.964 262.975 323.147 264.571 322.501C266.167 321.855 267.972 321.304 269.986 320.848C273.368 320.088 275.8 319.005 277.282 317.599C278.802 316.193 279.562 314.464 279.562 312.412V312.07C279.562 311.044 279.391 310.037 279.049 309.049C278.707 308.061 278.175 307.168 277.453 306.37C276.731 305.572 275.8 304.945 274.66 304.489C273.558 303.995 272.228 303.748 270.67 303.748C267.744 303.748 265.464 304.641 263.83 306.427C262.234 308.213 261.436 310.588 261.436 313.552V316.06H256.648V313.21C256.648 311.386 256.952 309.638 257.56 307.966C258.168 306.294 259.061 304.812 260.239 303.52C261.417 302.228 262.88 301.202 264.628 300.442C266.376 299.682 268.39 299.302 270.67 299.302C272.988 299.302 275.002 299.663 276.712 300.385C278.422 301.069 279.847 302 280.987 303.178C282.127 304.318 282.963 305.629 283.495 307.111C284.065 308.555 284.35 310.037 284.35 311.557V312.583C284.35 315.623 283.4 318.226 281.5 320.392C279.6 322.52 276.56 324.04 272.38 324.952C268.732 325.75 266.053 326.814 264.343 328.144C262.633 329.436 261.778 331.336 261.778 333.844V335.554H284.008ZM303.234 335.554V302.209H302.55L295.995 317.2H291.264V316.858L298.731 300.1H308.022V335.554H319.308V340H291.948V335.554H303.234ZM336.312 320.164V313.552L349.308 305.23V304.546H326.736V300.1H353.412V307.396L340.416 315.718V316.402H342.696C344.216 316.402 345.679 316.649 347.085 317.143C348.491 317.637 349.726 318.359 350.79 319.309C351.892 320.259 352.766 321.437 353.412 322.843C354.096 324.211 354.438 325.807 354.438 327.631V328.657C354.438 330.367 354.096 331.963 353.412 333.445C352.728 334.927 351.778 336.219 350.562 337.321C349.346 338.385 347.902 339.24 346.23 339.886C344.596 340.494 342.81 340.798 340.872 340.798C338.63 340.798 336.616 340.456 334.83 339.772C333.044 339.088 331.524 338.157 330.27 336.979C329.016 335.763 328.047 334.357 327.363 332.761C326.717 331.127 326.394 329.398 326.394 327.574V324.496H331.182V327.232C331.182 328.676 331.41 329.968 331.866 331.108C332.36 332.21 333.025 333.16 333.861 333.958C334.735 334.718 335.761 335.307 336.939 335.725C338.117 336.143 339.39 336.352 340.758 336.352C342.012 336.352 343.171 336.143 344.235 335.725C345.337 335.307 346.287 334.737 347.085 334.015C347.883 333.255 348.51 332.381 348.966 331.393C349.422 330.367 349.65 329.284 349.65 328.144V327.802C349.65 325.408 348.89 323.546 347.37 322.216C345.85 320.848 343.95 320.164 341.67 320.164H336.312ZM361.808 300.1H388.484V307.054L371.669 332.476C370.871 333.692 370.263 334.737 369.845 335.611C369.427 336.485 369.218 337.378 369.218 338.29V340H364.544V337.948C364.544 337.264 364.601 336.618 364.715 336.01C364.867 335.402 365.076 334.794 365.342 334.186C365.646 333.54 366.007 332.875 366.425 332.191C366.881 331.469 367.413 330.652 368.021 329.74L384.38 305.23V304.546H361.808V300.1Z" fill="black"/>
<path d="M259.57 105.27C258.43 105.27 257.422 105 256.546 104.46C255.67 103.92 254.98 103.158 254.476 102.174C253.984 101.19 253.738 100.032 253.738 98.7C253.738 97.368 253.984 96.21 254.476 95.226C254.98 94.23 255.67 93.462 256.546 92.922C257.422 92.37 258.43 92.094 259.57 92.094C260.446 92.094 261.244 92.256 261.964 92.58C262.684 92.904 263.302 93.366 263.818 93.966C264.01 94.17 264.07 94.38 263.998 94.596C263.938 94.8 263.812 94.968 263.62 95.1L263.548 95.136C263.416 95.22 263.236 95.256 263.008 95.244C262.792 95.22 262.588 95.118 262.396 94.938C261.688 94.134 260.746 93.732 259.57 93.732C258.754 93.732 258.034 93.936 257.41 94.344C256.798 94.752 256.318 95.328 255.97 96.072C255.622 96.804 255.448 97.68 255.448 98.7C255.448 99.708 255.622 100.584 255.97 101.328C256.318 102.06 256.798 102.63 257.41 103.038C258.034 103.446 258.754 103.65 259.57 103.65C260.722 103.65 261.664 103.248 262.396 102.444C262.588 102.264 262.78 102.162 262.972 102.138C263.176 102.114 263.368 102.15 263.548 102.246L263.584 102.264C263.788 102.372 263.926 102.534 263.998 102.75C264.07 102.966 264.016 103.176 263.836 103.38C263.32 103.98 262.696 104.448 261.964 104.784C261.244 105.108 260.446 105.27 259.57 105.27ZM265.886 105C265.622 105 265.436 104.922 265.328 104.766C265.232 104.598 265.232 104.376 265.328 104.1L269.648 93.012C269.804 92.604 270.104 92.4 270.548 92.4H270.674C271.118 92.4 271.418 92.604 271.574 93.012L275.894 104.1C275.99 104.376 275.99 104.598 275.894 104.766C275.798 104.922 275.612 105 275.336 105H275.066C274.61 105 274.31 104.79 274.166 104.37L273.194 101.778H267.992L267.002 104.37C266.858 104.79 266.564 105 266.12 105H265.886ZM268.55 100.23H272.636L270.62 94.758L268.55 100.23ZM278.347 105C277.807 105 277.537 104.712 277.537 104.136V93.246C277.537 92.682 277.819 92.4 278.383 92.4H283.171C284.359 92.4 285.277 92.676 285.925 93.228C286.585 93.78 286.915 94.656 286.915 95.856C286.915 96.924 286.657 97.74 286.141 98.304C285.625 98.868 284.875 99.198 283.891 99.294L286.321 103.992C286.465 104.292 286.495 104.538 286.411 104.73C286.327 104.91 286.147 105 285.871 105H285.619C285.139 105 284.803 104.784 284.611 104.352L282.163 99.366H279.175V104.136C279.175 104.712 278.899 105 278.347 105ZM279.175 97.8H282.973C283.693 97.8 284.239 97.65 284.611 97.35C284.995 97.038 285.187 96.54 285.187 95.856C285.187 95.184 284.995 94.698 284.611 94.398C284.239 94.098 283.693 93.948 282.973 93.948H279.175V97.8ZM289.554 105C288.99 105 288.708 104.712 288.708 104.136V93.264C288.708 92.688 288.99 92.4 289.554 92.4H292.578C293.898 92.4 295.008 92.658 295.908 93.174C296.82 93.69 297.51 94.422 297.978 95.37C298.458 96.306 298.698 97.416 298.698 98.7C298.698 99.972 298.458 101.082 297.978 102.03C297.51 102.978 296.82 103.71 295.908 104.226C295.008 104.742 293.898 105 292.578 105H289.554ZM290.346 103.452H292.47C293.478 103.452 294.312 103.254 294.972 102.858C295.644 102.45 296.148 101.892 296.484 101.184C296.82 100.464 296.988 99.636 296.988 98.7C296.988 97.752 296.82 96.924 296.484 96.216C296.148 95.508 295.644 94.956 294.972 94.56C294.312 94.152 293.478 93.948 292.47 93.948H290.346V103.452ZM305.955 105C305.415 105 305.145 104.712 305.145 104.136V93.264C305.145 92.688 305.415 92.4 305.955 92.4H306.135C306.567 92.4 306.909 92.586 307.161 92.958L313.245 102.102V93.264C313.245 92.688 313.527 92.4 314.091 92.4C314.631 92.4 314.901 92.688 314.901 93.264V104.136C314.901 104.712 314.637 105 314.109 105H313.983C313.515 105 313.173 104.814 312.957 104.442L306.783 95.118V104.136C306.783 104.712 306.507 105 305.955 105ZM321.818 105.216C320.294 105.216 319.13 104.796 318.326 103.956C317.522 103.104 317.12 101.844 317.12 100.176V93.264C317.12 92.688 317.402 92.4 317.966 92.4C318.518 92.4 318.794 92.688 318.794 93.264V100.104C318.794 101.268 319.052 102.144 319.568 102.732C320.096 103.32 320.846 103.614 321.818 103.614C322.79 103.614 323.534 103.32 324.05 102.732C324.566 102.144 324.824 101.268 324.824 100.104V93.264C324.824 92.688 325.106 92.4 325.67 92.4C326.222 92.4 326.498 92.688 326.498 93.264V100.176C326.498 101.844 326.096 103.104 325.292 103.956C324.488 104.796 323.33 105.216 321.818 105.216ZM329.581 105C329.029 105 328.753 104.712 328.753 104.136V93.264C328.753 92.94 328.831 92.718 328.987 92.598C329.155 92.466 329.401 92.4 329.725 92.4C330.169 92.4 330.505 92.592 330.733 92.976L334.315 98.646L337.861 92.994C337.993 92.754 338.149 92.598 338.329 92.526C338.521 92.442 338.755 92.4 339.031 92.4C339.607 92.4 339.895 92.688 339.895 93.264V104.136C339.895 104.712 339.613 105 339.049 105C338.485 105 338.203 104.712 338.203 104.136V95.262L335.125 100.23C334.921 100.614 334.651 100.806 334.315 100.806C333.991 100.806 333.715 100.614 333.487 100.23L330.409 95.262V104.136C330.409 104.712 330.133 105 329.581 105ZM343.071 105C342.555 105 342.297 104.736 342.297 104.208V93.192C342.297 92.664 342.555 92.4 343.071 92.4H347.283C348.399 92.4 349.269 92.676 349.893 93.228C350.529 93.768 350.847 94.554 350.847 95.586C350.847 96.294 350.685 96.888 350.361 97.368C350.037 97.848 349.611 98.184 349.083 98.376C349.767 98.532 350.325 98.91 350.757 99.51C351.201 100.098 351.423 100.8 351.423 101.616C351.423 102.744 351.087 103.59 350.415 104.154C349.755 104.718 348.789 105 347.517 105H343.071ZM343.935 103.452H347.319C348.135 103.452 348.729 103.29 349.101 102.966C349.473 102.63 349.659 102.114 349.659 101.418C349.659 100.746 349.437 100.224 348.993 99.852C348.549 99.48 347.985 99.294 347.301 99.294H343.935V103.452ZM343.935 97.728H347.103C347.739 97.728 348.225 97.554 348.561 97.206C348.897 96.858 349.065 96.396 349.065 95.82C349.065 94.572 348.375 93.948 346.995 93.948H343.935V97.728ZM354.191 105C353.627 105 353.345 104.712 353.345 104.136V93.264C353.345 92.688 353.627 92.4 354.191 92.4H360.635C361.211 92.4 361.499 92.658 361.499 93.174C361.499 93.69 361.211 93.948 360.635 93.948H354.983V97.782H360.077C360.641 97.782 360.923 98.046 360.923 98.574C360.923 99.09 360.641 99.348 360.077 99.348H354.983V103.452H360.851C361.427 103.452 361.715 103.71 361.715 104.226C361.715 104.742 361.427 105 360.851 105H354.191ZM364.289 105C363.749 105 363.479 104.712 363.479 104.136V93.246C363.479 92.682 363.761 92.4 364.325 92.4H369.113C370.301 92.4 371.219 92.676 371.867 93.228C372.527 93.78 372.857 94.656 372.857 95.856C372.857 96.924 372.599 97.74 372.083 98.304C371.567 98.868 370.817 99.198 369.833 99.294L372.263 103.992C372.407 104.292 372.437 104.538 372.353 104.73C372.269 104.91 372.089 105 371.813 105H371.561C371.081 105 370.745 104.784 370.553 104.352L368.105 99.366H365.117V104.136C365.117 104.712 364.841 105 364.289 105ZM365.117 97.8H368.915C369.635 97.8 370.181 97.65 370.553 97.35C370.937 97.038 371.129 96.54 371.129 95.856C371.129 95.184 370.937 94.698 370.553 94.398C370.181 94.098 369.635 93.948 368.915 93.948H365.117V97.8Z" fill="black"/>
<rect x="52" width="88" height="763" fill="#222222"/>
</svg>
