<svg width="470" height="763" viewBox="0 0 470 763" fill="none" xmlns="http://www.w3.org/2000/svg">
<rect width="470" height="763" rx="20" fill="#DCB1FF"/>
<path d="M283.697 491.374C250.636 489.783 226.516 485.755 203.081 459.874C175.554 429.475 153.802 386.792 165.788 345.139C177.656 303.896 219.931 279.031 261.877 282.693C300.192 286.038 310.068 314.08 287.664 343.314C264.121 374.036 224.767 390.355 186.894 393.302C159.294 395.45 110.342 389.924 100.406 357.279C90.2437 323.888 137.713 300.929 160.71 289.993C210.024 266.542 261.187 260.981 315.118 260" stroke="black" stroke-width="3" stroke-linecap="round"/>
<path d="M0 429H470V743C470 754.046 461.046 763 450 763H20C8.9543 763 0 754.046 0 743V429Z" fill="#2E3339"/>
<path d="M355.833 119.5C355.833 120.996 357.046 122.208 358.542 122.208C360.037 122.208 361.25 120.996 361.25 119.5C361.25 118.004 360.037 116.792 358.542 116.792C357.046 116.792 355.833 118.004 355.833 119.5Z" fill="black"/>
<path d="M372.083 119.5C372.083 115.995 370.724 112.626 368.292 110.102C367.792 109.585 367.108 109.287 366.39 109.275C365.671 109.262 364.977 109.535 364.459 110.034C363.942 110.534 363.645 111.218 363.632 111.937C363.619 112.655 363.892 113.35 364.392 113.867C365.8 115.405 366.581 117.415 366.581 119.5C366.581 121.585 365.8 123.595 364.392 125.133C363.892 125.651 363.619 126.345 363.632 127.064C363.645 127.782 363.942 128.466 364.459 128.966C364.977 129.465 365.671 129.738 366.39 129.725C367.108 129.713 367.792 129.415 368.292 128.898C370.724 126.374 372.083 123.005 372.083 119.5V119.5ZM385.625 119.5C385.623 116.229 384.962 112.992 383.683 109.981C382.403 106.971 380.531 104.249 378.177 101.977C377.916 101.73 377.608 101.537 377.272 101.408C376.936 101.28 376.578 101.219 376.218 101.229C375.859 101.239 375.504 101.32 375.176 101.467C374.848 101.614 374.551 101.824 374.304 102.085C373.805 102.613 373.536 103.318 373.556 104.044C373.566 104.404 373.647 104.758 373.794 105.087C373.941 105.415 374.151 105.711 374.412 105.958C376.247 107.727 377.707 109.847 378.704 112.192C379.7 114.538 380.214 117.06 380.214 119.608C380.214 122.157 379.7 124.679 378.704 127.024C377.707 129.37 376.247 131.49 374.412 133.258C374.157 133.509 373.953 133.808 373.814 134.138C373.674 134.468 373.601 134.823 373.6 135.181C373.602 135.711 373.759 136.228 374.052 136.669C374.344 137.11 374.76 137.455 375.247 137.663C375.734 137.87 376.271 137.93 376.792 137.836C377.312 137.741 377.794 137.496 378.177 137.131C380.544 134.847 382.424 132.107 383.704 129.077C384.984 126.047 385.637 122.789 385.625 119.5Z" fill="black"/>
<path d="M388.523 145.825C395.341 138.757 399.151 129.32 399.151 119.5C399.151 109.68 395.341 100.243 388.523 93.175C388.015 92.718 387.352 92.47 386.669 92.4808C385.986 92.4916 385.331 92.7605 384.838 93.2334C384.344 93.7064 384.048 94.3484 384.008 95.0308C383.968 95.7131 384.188 96.3853 384.623 96.9125C390.481 102.973 393.755 111.072 393.755 119.5C393.755 127.929 390.481 136.027 384.623 142.088C384.139 142.59 383.867 143.259 383.865 143.956C383.866 144.321 383.941 144.682 384.085 145.017C384.23 145.352 384.44 145.655 384.704 145.906C385.222 146.4 385.915 146.669 386.63 146.653C387.346 146.638 388.026 146.34 388.523 145.825V145.825Z" fill="black"/>
<path d="M58.56 92.44C56.1547 92.44 54.1453 91.9267 52.532 90.9C50.9187 89.8733 50.112 88.5387 50.112 86.896C50.112 86.0453 50.332 85.3853 50.772 84.916C51.2413 84.4173 51.8573 84.168 52.62 84.168C53.2067 84.168 53.7053 84.3147 54.116 84.608C54.5267 84.9013 54.82 85.312 54.996 85.84C54.3507 86.544 54.028 87.292 54.028 88.084C54.028 88.9933 54.4387 89.7853 55.26 90.46C56.0813 91.1347 57.1813 91.472 58.56 91.472C60.408 91.472 61.9187 91.0613 63.092 90.24C64.2653 89.3893 64.852 88.26 64.852 86.852C64.852 86.0307 64.6027 85.4147 64.104 85.004C63.6053 84.5933 62.6373 84.124 61.2 83.596L54.556 81.176C51.9453 80.2373 50.64 78.492 50.64 75.94C50.64 73.8573 51.3587 72.156 52.796 70.836C54.2333 69.4867 56.2133 68.812 58.736 68.812C60.8187 68.812 62.5933 69.296 64.06 70.264C65.556 71.2027 66.304 72.552 66.304 74.312C66.304 75.016 66.1133 75.588 65.732 76.028C65.3507 76.4387 64.852 76.644 64.236 76.644C63.62 76.644 63.1067 76.4827 62.696 76.16C62.3147 75.808 62.124 75.3387 62.124 74.752C62.5053 74.4587 62.7693 74.1507 62.916 73.828C63.0627 73.476 63.136 73.0653 63.136 72.596C63.136 71.7747 62.7693 71.1 62.036 70.572C61.332 70.044 60.232 69.78 58.736 69.78C57.4453 69.78 56.3307 69.9853 55.392 70.396C54.4827 70.7773 53.7933 71.2907 53.324 71.936C52.8547 72.5813 52.62 73.2413 52.62 73.916C52.62 74.62 52.8693 75.1773 53.368 75.588C53.896 75.9987 54.8493 76.4533 56.228 76.952L62.388 79.152C63.8253 79.68 64.9107 80.4133 65.644 81.352C66.3773 82.2907 66.744 83.508 66.744 85.004C66.744 87.1453 66.0693 88.92 64.72 90.328C63.3707 91.736 61.3173 92.44 58.56 92.44ZM78.3418 92.44C76.4058 92.44 74.8511 91.956 73.6778 90.988C72.5338 90.02 71.9618 88.48 71.9618 86.368V70.528L68.8378 70.088V69.208H71.9618V65.556L76.3618 64.456V69.208H82.0818V70.088L76.3618 70.528V86.28C76.3618 89.3893 77.4764 90.944 79.7058 90.944C80.1751 90.944 80.6151 90.8707 81.0258 90.724C81.4658 90.5773 81.8031 90.4307 82.0378 90.284C82.3018 90.1373 82.4631 90.0347 82.5218 89.976L83.0938 90.68C81.7738 91.8533 80.1898 92.44 78.3418 92.44ZM93.0677 92.44C90.9557 92.44 89.2837 91.912 88.0517 90.856C86.849 89.8 86.2477 88.2307 86.2477 86.148V70.528L83.1677 70.088V69.208H90.6477V86.06C90.6477 87.556 90.9557 88.7293 91.5717 89.58C92.1877 90.4307 93.141 90.856 94.4317 90.856C95.781 90.856 97.0717 90.416 98.3037 89.536C99.565 88.6267 100.68 87.512 101.648 86.192V70.528L98.5677 70.088V69.208H106.048V90.68L109.128 91.12V92H101.648V87.776C100.592 89.2427 99.3157 90.3867 97.8197 91.208C96.353 92.0293 94.769 92.44 93.0677 92.44ZM119.9 92.44C117.495 92.44 115.486 91.9267 113.872 90.9C112.259 89.8733 111.452 88.5387 111.452 86.896C111.452 86.0453 111.672 85.3853 112.112 84.916C112.582 84.4173 113.198 84.168 113.96 84.168C114.547 84.168 115.046 84.3147 115.456 84.608C115.867 84.9013 116.16 85.312 116.336 85.84C115.691 86.544 115.368 87.292 115.368 88.084C115.368 88.9933 115.779 89.7853 116.6 90.46C117.422 91.1347 118.522 91.472 119.9 91.472C121.748 91.472 123.259 91.0613 124.432 90.24C125.606 89.3893 126.192 88.26 126.192 86.852C126.192 86.0307 125.943 85.4147 125.444 85.004C124.946 84.5933 123.978 84.124 122.54 83.596L115.896 81.176C113.286 80.2373 111.98 78.492 111.98 75.94C111.98 73.8573 112.699 72.156 114.136 70.836C115.574 69.4867 117.554 68.812 120.076 68.812C122.159 68.812 123.934 69.296 125.4 70.264C126.896 71.2027 127.644 72.552 127.644 74.312C127.644 75.016 127.454 75.588 127.072 76.028C126.691 76.4387 126.192 76.644 125.576 76.644C124.96 76.644 124.447 76.4827 124.036 76.16C123.655 75.808 123.464 75.3387 123.464 74.752C123.846 74.4587 124.11 74.1507 124.256 73.828C124.403 73.476 124.476 73.0653 124.476 72.596C124.476 71.7747 124.11 71.1 123.376 70.572C122.672 70.044 121.572 69.78 120.076 69.78C118.786 69.78 117.671 69.9853 116.732 70.396C115.823 70.7773 115.134 71.2907 114.664 71.936C114.195 72.5813 113.96 73.2413 113.96 73.916C113.96 74.62 114.21 75.1773 114.708 75.588C115.236 75.9987 116.19 76.4533 117.568 76.952L123.728 79.152C125.166 79.68 126.251 80.4133 126.984 81.352C127.718 82.2907 128.084 83.508 128.084 85.004C128.084 87.1453 127.41 88.92 126.06 90.328C124.711 91.736 122.658 92.44 119.9 92.44ZM139.682 92.44C137.746 92.44 136.192 91.956 135.018 90.988C133.874 90.02 133.302 88.48 133.302 86.368V70.528L130.178 70.088V69.208H133.302V65.556L137.702 64.456V69.208H143.422V70.088L137.702 70.528V86.28C137.702 89.3893 138.817 90.944 141.046 90.944C141.516 90.944 141.956 90.8707 142.366 90.724C142.806 90.5773 143.144 90.4307 143.378 90.284C143.642 90.1373 143.804 90.0347 143.862 89.976L144.434 90.68C143.114 91.8533 141.53 92.44 139.682 92.44Z" fill="black"/>
<path d="M50.08 502C49.6107 502 49.28 501.861 49.088 501.584C48.9173 501.285 48.9173 500.891 49.088 500.4L56.768 480.688C57.0453 479.963 57.5787 479.6 58.368 479.6H58.592C59.3813 479.6 59.9147 479.963 60.192 480.688L67.872 500.4C68.0427 500.891 68.0427 501.285 67.872 501.584C67.7013 501.861 67.3707 502 66.88 502H66.4C65.5893 502 65.056 501.627 64.8 500.88L63.072 496.272H53.824L52.064 500.88C51.808 501.627 51.2853 502 50.496 502H50.08ZM54.816 493.52H62.08L58.496 483.792L54.816 493.52ZM71.9128 502C70.9528 502 70.4728 501.488 70.4728 500.464V480.56C70.4728 479.557 70.9528 479.056 71.9128 479.056C72.8728 479.056 73.3528 479.557 73.3528 480.56V500.464C73.3528 501.488 72.8728 502 71.9128 502ZM78.941 502C77.981 502 77.501 501.488 77.501 500.464V488.144C77.501 487.141 77.981 486.64 78.941 486.64C79.8797 486.64 80.349 487.141 80.349 488.144V500.464C80.349 501.488 79.8797 502 78.941 502ZM78.909 483.76C78.3757 483.76 77.917 483.579 77.533 483.216C77.1703 482.832 76.989 482.373 76.989 481.84C76.989 481.307 77.1703 480.859 77.533 480.496C77.917 480.112 78.3757 479.92 78.909 479.92C79.421 479.92 79.8583 480.112 80.221 480.496C80.605 480.859 80.797 481.307 80.797 481.84C80.797 482.373 80.605 482.832 80.221 483.216C79.8583 483.579 79.421 483.76 78.909 483.76ZM90.938 502.352C89.53 502.352 88.2713 502.021 87.162 501.36C86.074 500.677 85.21 499.739 84.57 498.544C83.9513 497.328 83.642 495.92 83.642 494.32C83.642 492.72 83.9513 491.312 84.57 490.096C85.21 488.88 86.074 487.941 87.162 487.28C88.2713 486.597 89.53 486.256 90.938 486.256C92.73 486.256 94.266 486.811 95.546 487.92C95.9513 488.219 96.1327 488.56 96.09 488.944C96.0687 489.328 95.8767 489.648 95.514 489.904C95.1513 490.181 94.8313 490.299 94.554 490.256C94.2767 490.213 93.9247 490.053 93.498 489.776C92.7727 489.179 91.9193 488.88 90.938 488.88C89.6367 488.88 88.57 489.36 87.738 490.32C86.9273 491.28 86.522 492.613 86.522 494.32C86.522 496.005 86.9273 497.328 87.738 498.288C88.57 499.248 89.6367 499.728 90.938 499.728C91.898 499.728 92.7407 499.451 93.466 498.896C93.85 498.619 94.1913 498.448 94.49 498.384C94.7887 498.32 95.1193 498.416 95.482 498.672C95.8447 498.949 96.0473 499.269 96.09 499.632C96.1327 499.995 95.962 500.336 95.578 500.656C94.2767 501.787 92.73 502.352 90.938 502.352ZM105.362 502.352C103.911 502.352 102.631 502.043 101.522 501.424C100.413 500.805 99.5487 499.899 98.93 498.704C98.3113 497.488 98.002 496.027 98.002 494.32C98.002 492.677 98.3113 491.259 98.93 490.064C99.5487 488.848 100.391 487.909 101.458 487.248C102.546 486.587 103.794 486.256 105.202 486.256C106.61 486.256 107.805 486.597 108.786 487.28C109.789 487.941 110.546 488.795 111.058 489.84C111.591 490.885 111.858 491.963 111.858 493.072C111.858 493.691 111.73 494.107 111.474 494.32C111.218 494.512 110.845 494.608 110.354 494.608H100.818C100.861 496.315 101.287 497.616 102.098 498.512C102.93 499.387 104.029 499.824 105.394 499.824C107.015 499.824 108.242 499.173 109.074 497.872C109.415 497.509 109.735 497.275 110.034 497.168C110.333 497.04 110.653 497.093 110.994 497.328C111.357 497.563 111.559 497.861 111.602 498.224C111.666 498.587 111.527 498.981 111.186 499.408C110.482 500.411 109.639 501.157 108.658 501.648C107.698 502.117 106.599 502.352 105.362 502.352ZM100.978 492.304H109.042C108.871 491.195 108.445 490.299 107.762 489.616C107.079 488.933 106.215 488.592 105.17 488.592C104.061 488.592 103.143 488.912 102.418 489.552C101.693 490.171 101.213 491.088 100.978 492.304ZM128.842 502.48C126.708 502.48 125.087 501.957 123.978 500.912C122.868 499.845 122.196 498.405 121.962 496.592C121.834 495.547 122.314 495.024 123.402 495.024C123.85 495.024 124.18 495.141 124.394 495.376C124.628 495.611 124.82 495.973 124.97 496.464C125.311 498.555 126.602 499.6 128.842 499.6C130.207 499.6 131.22 499.227 131.882 498.48C132.543 497.733 132.874 496.581 132.874 495.024V481.136C132.874 480.645 133.002 480.272 133.258 480.016C133.535 479.739 133.908 479.6 134.378 479.6C135.359 479.6 135.85 480.112 135.85 481.136V495.024C135.85 497.285 135.295 499.099 134.186 500.464C133.098 501.808 131.316 502.48 128.842 502.48ZM144.147 502.256C142.59 502.299 141.299 501.947 140.275 501.2C139.272 500.432 138.771 499.333 138.771 497.904C138.771 496.859 139.102 495.952 139.763 495.184C140.446 494.416 141.31 493.819 142.355 493.392C143.422 492.944 144.52 492.72 145.651 492.72C146.312 492.677 146.92 492.741 147.475 492.912C148.03 493.061 148.51 493.285 148.915 493.584V491.664C148.915 490.469 148.659 489.691 148.147 489.328C147.656 488.965 146.888 488.784 145.843 488.784C145.182 488.784 144.478 488.88 143.731 489.072C143.006 489.243 142.323 489.477 141.683 489.776C141.235 489.947 140.851 490.011 140.531 489.968C140.211 489.904 139.944 489.701 139.731 489.36C139.518 488.997 139.464 488.656 139.571 488.336C139.699 487.995 139.987 487.728 140.435 487.536C141.224 487.152 142.088 486.843 143.027 486.608C143.987 486.373 144.926 486.256 145.843 486.256C147.806 486.256 149.267 486.651 150.227 487.44C151.187 488.208 151.667 489.616 151.667 491.664V499.376C151.667 499.717 151.688 499.941 151.731 500.048C151.795 500.133 151.934 500.208 152.147 500.272C152.403 500.357 152.68 500.432 152.979 500.496C153.278 500.539 153.427 500.645 153.427 500.816C153.427 501.52 153.064 501.947 152.339 502.096C151.87 502.203 151.443 502.256 151.059 502.256C150.376 502.256 149.886 502.128 149.587 501.872C149.288 501.616 149.086 501.157 148.979 500.496C148.403 501.072 147.678 501.499 146.803 501.776C145.928 502.053 145.043 502.213 144.147 502.256ZM144.179 499.728C145.075 499.707 145.886 499.579 146.611 499.344C147.358 499.088 147.944 498.736 148.371 498.288C148.798 497.819 148.99 497.264 148.947 496.624C148.904 496.027 148.595 495.6 148.019 495.344C147.464 495.088 146.75 494.981 145.875 495.024C145.086 495.045 144.36 495.195 143.699 495.472C143.038 495.728 142.504 496.069 142.099 496.496C141.715 496.923 141.523 497.403 141.523 497.936C141.544 498.533 141.79 498.992 142.259 499.312C142.728 499.611 143.368 499.749 144.179 499.728ZM161.863 502.352C160.455 502.352 159.196 502.021 158.087 501.36C156.999 500.677 156.135 499.739 155.495 498.544C154.876 497.328 154.567 495.92 154.567 494.32C154.567 492.72 154.876 491.312 155.495 490.096C156.135 488.88 156.999 487.941 158.087 487.28C159.196 486.597 160.455 486.256 161.863 486.256C163.655 486.256 165.191 486.811 166.471 487.92C166.876 488.219 167.058 488.56 167.015 488.944C166.994 489.328 166.802 489.648 166.439 489.904C166.076 490.181 165.756 490.299 165.479 490.256C165.202 490.213 164.85 490.053 164.423 489.776C163.698 489.179 162.844 488.88 161.863 488.88C160.562 488.88 159.495 489.36 158.663 490.32C157.852 491.28 157.447 492.613 157.447 494.32C157.447 496.005 157.852 497.328 158.663 498.288C159.495 499.248 160.562 499.728 161.863 499.728C162.823 499.728 163.666 499.451 164.391 498.896C164.775 498.619 165.116 498.448 165.415 498.384C165.714 498.32 166.044 498.416 166.407 498.672C166.77 498.949 166.972 499.269 167.015 499.632C167.058 499.995 166.887 500.336 166.503 500.656C165.202 501.787 163.655 502.352 161.863 502.352ZM176.223 502.352C174.815 502.352 173.556 502.021 172.447 501.36C171.359 500.677 170.495 499.728 169.855 498.512C169.236 497.296 168.927 495.888 168.927 494.288C168.927 492.688 169.236 491.291 169.855 490.096C170.495 488.88 171.359 487.941 172.447 487.28C173.556 486.597 174.815 486.256 176.223 486.256C177.631 486.256 178.879 486.597 179.967 487.28C181.076 487.941 181.94 488.88 182.559 490.096C183.199 491.291 183.519 492.688 183.519 494.288C183.519 495.888 183.199 497.296 182.559 498.512C181.94 499.728 181.076 500.677 179.967 501.36C178.879 502.021 177.631 502.352 176.223 502.352ZM176.223 499.728C177.524 499.728 178.58 499.248 179.391 498.288C180.223 497.307 180.639 495.973 180.639 494.288C180.639 492.603 180.223 491.28 179.391 490.32C178.58 489.36 177.524 488.88 176.223 488.88C174.922 488.88 173.855 489.36 173.023 490.32C172.212 491.28 171.807 492.603 171.807 494.288C171.807 495.973 172.212 497.307 173.023 498.288C173.855 499.248 174.922 499.728 176.223 499.728ZM193.762 502.352C191.692 502.352 190.103 501.435 188.994 499.6V500.848C188.994 501.253 188.866 501.552 188.61 501.744C188.354 501.915 188.023 502 187.618 502C186.764 502 186.338 501.488 186.338 500.464V480.56C186.338 479.557 186.818 479.056 187.778 479.056C188.738 479.056 189.218 479.557 189.218 480.56V488.592C189.751 487.845 190.402 487.269 191.17 486.864C191.938 486.459 192.802 486.256 193.762 486.256C195.17 486.256 196.418 486.587 197.506 487.248C198.594 487.888 199.447 488.816 200.066 490.032C200.706 491.227 201.026 492.656 201.026 494.32C201.026 495.963 200.706 497.392 200.066 498.608C199.447 499.803 198.594 500.731 197.506 501.392C196.418 502.032 195.17 502.352 193.762 502.352ZM193.666 499.728C194.967 499.728 196.044 499.248 196.898 498.288C197.751 497.328 198.178 496.005 198.178 494.32C198.178 492.613 197.751 491.28 196.898 490.32C196.044 489.36 194.967 488.88 193.666 488.88C192.364 488.88 191.287 489.36 190.434 490.32C189.602 491.28 189.186 492.613 189.186 494.32C189.186 496.005 189.602 497.328 190.434 498.288C191.287 499.248 192.364 499.728 193.666 499.728Z" fill="white"/>
<path d="M50.976 712C50.224 712 49.848 711.616 49.848 710.848V696.352C49.848 695.584 50.224 695.2 50.976 695.2H55.008C56.768 695.2 58.248 695.544 59.448 696.232C60.664 696.92 61.584 697.896 62.208 699.16C62.848 700.408 63.168 701.888 63.168 703.6C63.168 705.296 62.848 706.776 62.208 708.04C61.584 709.304 60.664 710.28 59.448 710.968C58.248 711.656 56.768 712 55.008 712H50.976ZM52.032 709.936H54.864C56.208 709.936 57.32 709.672 58.2 709.144C59.096 708.6 59.768 707.856 60.216 706.912C60.664 705.952 60.888 704.848 60.888 703.6C60.888 702.336 60.664 701.232 60.216 700.288C59.768 699.344 59.096 698.608 58.2 698.08C57.32 697.536 56.208 697.264 54.864 697.264H52.032V709.936ZM70.1724 712.264C69.0844 712.264 68.1244 712.032 67.2924 711.568C66.4604 711.104 65.8124 710.424 65.3484 709.528C64.8844 708.616 64.6524 707.52 64.6524 706.24C64.6524 705.008 64.8844 703.944 65.3484 703.048C65.8124 702.136 66.4444 701.432 67.2444 700.936C68.0604 700.44 68.9964 700.192 70.0524 700.192C71.1084 700.192 72.0044 700.448 72.7404 700.96C73.4924 701.456 74.0604 702.096 74.4444 702.88C74.8444 703.664 75.0444 704.472 75.0444 705.304C75.0444 705.768 74.9484 706.08 74.7564 706.24C74.5644 706.384 74.2844 706.456 73.9164 706.456H66.7644C66.7964 707.736 67.1164 708.712 67.7244 709.384C68.3484 710.04 69.1724 710.368 70.1964 710.368C71.4124 710.368 72.3324 709.88 72.9564 708.904C73.2124 708.632 73.4524 708.456 73.6764 708.376C73.9004 708.28 74.1404 708.32 74.3964 708.496C74.6684 708.672 74.8204 708.896 74.8524 709.168C74.9004 709.44 74.7964 709.736 74.5404 710.056C74.0124 710.808 73.3804 711.368 72.6444 711.736C71.9244 712.088 71.1004 712.264 70.1724 712.264ZM66.8844 704.728H72.9324C72.8044 703.896 72.4844 703.224 71.9724 702.712C71.4604 702.2 70.8124 701.944 70.0284 701.944C69.1964 701.944 68.5084 702.184 67.9644 702.664C67.4204 703.128 67.0604 703.816 66.8844 704.728ZM82.9035 712.264C81.3515 712.264 80.1595 711.576 79.3275 710.2V711.136C79.3275 711.44 79.2315 711.664 79.0395 711.808C78.8475 711.936 78.5995 712 78.2955 712C77.6555 712 77.3355 711.616 77.3355 710.848V695.92C77.3355 695.168 77.6955 694.792 78.4155 694.792C79.1355 694.792 79.4955 695.168 79.4955 695.92V701.944C79.8955 701.384 80.3835 700.952 80.9595 700.648C81.5355 700.344 82.1835 700.192 82.9035 700.192C83.9595 700.192 84.8955 700.44 85.7115 700.936C86.5275 701.416 87.1675 702.112 87.6315 703.024C88.1115 703.92 88.3515 704.992 88.3515 706.24C88.3515 707.472 88.1115 708.544 87.6315 709.456C87.1675 710.352 86.5275 711.048 85.7115 711.544C84.8955 712.024 83.9595 712.264 82.9035 712.264ZM82.8315 710.296C83.8075 710.296 84.6155 709.936 85.2555 709.216C85.8955 708.496 86.2155 707.504 86.2155 706.24C86.2155 704.96 85.8955 703.96 85.2555 703.24C84.6155 702.52 83.8075 702.16 82.8315 702.16C81.8555 702.16 81.0475 702.52 80.4075 703.24C79.7835 703.96 79.4715 704.96 79.4715 706.24C79.4715 707.504 79.7835 708.496 80.4075 709.216C81.0475 709.936 81.8555 710.296 82.8315 710.296ZM91.9367 712C91.2167 712 90.8567 711.616 90.8567 710.848V701.608C90.8567 700.856 91.2167 700.48 91.9367 700.48C92.6407 700.48 92.9927 700.856 92.9927 701.608V710.848C92.9927 711.616 92.6407 712 91.9367 712ZM91.9127 698.32C91.5127 698.32 91.1687 698.184 90.8807 697.912C90.6087 697.624 90.4727 697.28 90.4727 696.88C90.4727 696.48 90.6087 696.144 90.8807 695.872C91.1687 695.584 91.5127 695.44 91.9127 695.44C92.2967 695.44 92.6247 695.584 92.8967 695.872C93.1847 696.144 93.3287 696.48 93.3287 696.88C93.3287 697.28 93.1847 697.624 92.8967 697.912C92.6247 698.184 92.2967 698.32 91.9127 698.32ZM100.694 712.264C99.6064 712.264 98.7824 712.056 98.2224 711.64C97.6624 711.208 97.3824 710.392 97.3824 709.192V702.352H96.1824C95.4304 702.352 95.0544 702.04 95.0544 701.416C95.0544 701.096 95.1344 700.864 95.2944 700.72C95.4704 700.56 95.7664 700.48 96.1824 700.48H97.3824V697.48C97.3824 696.728 97.7424 696.352 98.4624 696.352C99.1664 696.352 99.5184 696.728 99.5184 697.48V700.48H101.726C102.478 700.48 102.854 700.792 102.854 701.416C102.854 702.04 102.478 702.352 101.726 702.352H99.5184V708.736C99.5184 709.36 99.6544 709.784 99.9264 710.008C100.214 710.216 100.638 710.32 101.198 710.32C101.23 710.32 101.278 710.32 101.342 710.32C101.774 710.32 102.134 710.36 102.422 710.44C102.71 710.504 102.854 710.752 102.854 711.184C102.854 711.664 102.63 711.96 102.182 712.072C101.75 712.2 101.254 712.264 100.694 712.264ZM118.146 712.36C116.626 712.36 115.282 712 114.114 711.28C112.946 710.56 112.026 709.544 111.354 708.232C110.698 706.92 110.37 705.376 110.37 703.6C110.37 701.824 110.698 700.28 111.354 698.968C112.026 697.64 112.946 696.616 114.114 695.896C115.282 695.16 116.626 694.792 118.146 694.792C119.314 694.792 120.378 695.008 121.338 695.44C122.298 695.872 123.122 696.488 123.81 697.288C124.066 697.56 124.146 697.84 124.05 698.128C123.97 698.4 123.802 698.624 123.546 698.8L123.45 698.848C123.274 698.96 123.034 699.008 122.73 698.992C122.442 698.96 122.17 698.824 121.914 698.584C120.97 697.512 119.714 696.976 118.146 696.976C117.058 696.976 116.098 697.248 115.266 697.792C114.45 698.336 113.81 699.104 113.346 700.096C112.882 701.072 112.65 702.24 112.65 703.6C112.65 704.944 112.882 706.112 113.346 707.104C113.81 708.08 114.45 708.84 115.266 709.384C116.098 709.928 117.058 710.2 118.146 710.2C119.682 710.2 120.938 709.664 121.914 708.592C122.17 708.352 122.426 708.216 122.682 708.184C122.954 708.152 123.21 708.2 123.45 708.328L123.498 708.352C123.77 708.496 123.954 708.712 124.05 709C124.146 709.288 124.074 709.568 123.834 709.84C123.146 710.64 122.314 711.264 121.338 711.712C120.378 712.144 119.314 712.36 118.146 712.36ZM130.071 712.192C128.903 712.224 127.935 711.96 127.167 711.4C126.415 710.824 126.039 710 126.039 708.928C126.039 708.144 126.287 707.464 126.783 706.888C127.295 706.312 127.943 705.864 128.727 705.544C129.527 705.208 130.351 705.04 131.199 705.04C131.695 705.008 132.151 705.056 132.567 705.184C132.983 705.296 133.343 705.464 133.647 705.688V704.248C133.647 703.352 133.455 702.768 133.071 702.496C132.703 702.224 132.127 702.088 131.343 702.088C130.847 702.088 130.319 702.16 129.759 702.304C129.215 702.432 128.703 702.608 128.223 702.832C127.887 702.96 127.599 703.008 127.359 702.976C127.119 702.928 126.919 702.776 126.759 702.52C126.599 702.248 126.559 701.992 126.639 701.752C126.735 701.496 126.951 701.296 127.287 701.152C127.879 700.864 128.527 700.632 129.231 700.456C129.951 700.28 130.655 700.192 131.343 700.192C132.815 700.192 133.911 700.488 134.631 701.08C135.351 701.656 135.711 702.712 135.711 704.248V710.032C135.711 710.288 135.727 710.456 135.759 710.536C135.807 710.6 135.911 710.656 136.071 710.704C136.263 710.768 136.471 710.824 136.695 710.872C136.919 710.904 137.031 710.984 137.031 711.112C137.031 711.64 136.759 711.96 136.215 712.072C135.863 712.152 135.543 712.192 135.255 712.192C134.743 712.192 134.375 712.096 134.151 711.904C133.927 711.712 133.775 711.368 133.695 710.872C133.263 711.304 132.719 711.624 132.063 711.832C131.407 712.04 130.743 712.16 130.071 712.192ZM130.095 710.296C130.767 710.28 131.375 710.184 131.919 710.008C132.479 709.816 132.919 709.552 133.239 709.216C133.559 708.864 133.703 708.448 133.671 707.968C133.639 707.52 133.407 707.2 132.975 707.008C132.559 706.816 132.023 706.736 131.367 706.768C130.775 706.784 130.231 706.896 129.735 707.104C129.239 707.296 128.839 707.552 128.535 707.872C128.247 708.192 128.103 708.552 128.103 708.952C128.119 709.4 128.303 709.744 128.655 709.984C129.007 710.208 129.487 710.312 130.095 710.296ZM140.059 712C139.339 712 138.979 711.616 138.979 710.848V701.608C138.979 700.856 139.355 700.48 140.107 700.48C140.363 700.48 140.587 700.544 140.779 700.672C140.971 700.8 141.067 701.04 141.067 701.392V702.28C141.387 701.656 141.867 701.152 142.507 700.768C143.163 700.384 143.867 700.192 144.619 700.192C145.595 700.192 146.083 700.584 146.083 701.368C146.083 701.704 145.987 701.952 145.795 702.112C145.619 702.256 145.419 702.32 145.195 702.304C145.083 702.288 144.955 702.28 144.811 702.28C144.667 702.264 144.515 702.256 144.355 702.256C143.459 702.256 142.699 702.552 142.075 703.144C141.451 703.72 141.139 704.48 141.139 705.424V710.848C141.139 711.616 140.779 712 140.059 712ZM152.441 712.264C151.385 712.264 150.441 712.024 149.609 711.544C148.793 711.048 148.145 710.352 147.665 709.456C147.201 708.544 146.969 707.472 146.969 706.24C146.969 704.992 147.201 703.92 147.665 703.024C148.145 702.112 148.793 701.416 149.609 700.936C150.441 700.44 151.385 700.192 152.441 700.192C153.145 700.192 153.785 700.344 154.361 700.648C154.953 700.952 155.449 701.384 155.849 701.944V695.92C155.849 695.168 156.201 694.792 156.905 694.792C157.625 694.792 157.985 695.168 157.985 695.92V710.848C157.985 711.616 157.673 712 157.049 712C156.409 712 156.081 711.824 156.065 711.472L156.017 710.344C155.617 710.936 155.105 711.408 154.481 711.76C153.873 712.096 153.193 712.264 152.441 712.264ZM152.513 710.296C153.489 710.296 154.289 709.936 154.913 709.216C155.553 708.496 155.873 707.504 155.873 706.24C155.873 704.96 155.553 703.96 154.913 703.24C154.289 702.52 153.489 702.16 152.513 702.16C151.537 702.16 150.729 702.52 150.089 703.24C149.449 703.96 149.129 704.96 149.129 706.24C149.129 707.504 149.449 708.496 150.089 709.216C150.729 709.936 151.537 710.296 152.513 710.296Z" fill="white"/>
<circle cx="359.35" cy="704.35" r="25.85" fill="white" stroke="white"/>
<circle cx="386.65" cy="704.35" r="23.85" stroke="white" stroke-width="3"/>
</svg>
