<svg width="470" height="763" viewBox="0 0 470 763" fill="none" xmlns="http://www.w3.org/2000/svg">
<rect width="470" height="763" rx="20" fill="#FF6666"/>
<path d="M283.697 491.374C250.636 489.783 226.516 485.755 203.081 459.874C175.554 429.475 153.802 386.792 165.788 345.139C177.656 303.896 219.931 279.031 261.877 282.693C300.192 286.038 310.068 314.08 287.664 343.314C264.121 374.036 224.767 390.355 186.894 393.302C159.294 395.45 110.342 389.924 100.406 357.279C90.2437 323.888 137.713 300.929 160.71 289.993C210.024 266.542 261.187 260.981 315.118 260" stroke="black" stroke-width="3" stroke-linecap="round"/>
<path d="M0 429H470V743C470 754.046 461.046 763 450 763H20C8.9543 763 0 754.046 0 743V429Z" fill="#2E3339"/>
<path d="M355.833 119.5C355.833 120.996 357.046 122.208 358.542 122.208C360.037 122.208 361.25 120.996 361.25 119.5C361.25 118.004 360.037 116.792 358.542 116.792C357.046 116.792 355.833 118.004 355.833 119.5Z" fill="black"/>
<path d="M372.083 119.5C372.083 115.995 370.724 112.626 368.292 110.102C367.792 109.585 367.108 109.287 366.39 109.275C365.671 109.262 364.977 109.535 364.459 110.034C363.942 110.534 363.645 111.218 363.632 111.937C363.619 112.655 363.892 113.35 364.392 113.867C365.8 115.405 366.581 117.415 366.581 119.5C366.581 121.585 365.8 123.595 364.392 125.133C363.892 125.651 363.619 126.345 363.632 127.064C363.645 127.782 363.942 128.466 364.459 128.966C364.977 129.465 365.671 129.738 366.39 129.725C367.108 129.713 367.792 129.415 368.292 128.898C370.724 126.374 372.083 123.005 372.083 119.5V119.5ZM385.625 119.5C385.623 116.229 384.962 112.992 383.683 109.981C382.403 106.971 380.531 104.249 378.177 101.977C377.916 101.73 377.608 101.537 377.272 101.408C376.936 101.28 376.578 101.219 376.218 101.229C375.859 101.239 375.504 101.32 375.176 101.467C374.848 101.614 374.551 101.824 374.304 102.085C373.805 102.613 373.536 103.318 373.556 104.044C373.566 104.404 373.647 104.758 373.794 105.087C373.941 105.415 374.151 105.711 374.412 105.958C376.247 107.727 377.707 109.847 378.704 112.192C379.7 114.538 380.214 117.06 380.214 119.608C380.214 122.157 379.7 124.679 378.704 127.024C377.707 129.37 376.247 131.49 374.412 133.258C374.157 133.509 373.953 133.808 373.814 134.138C373.674 134.468 373.601 134.823 373.6 135.181C373.602 135.711 373.759 136.228 374.052 136.669C374.344 137.11 374.76 137.455 375.247 137.663C375.734 137.87 376.271 137.93 376.792 137.836C377.312 137.741 377.794 137.496 378.177 137.131C380.544 134.847 382.424 132.107 383.704 129.077C384.984 126.047 385.637 122.789 385.625 119.5Z" fill="black"/>
<path d="M388.523 145.825C395.341 138.757 399.151 129.32 399.151 119.5C399.151 109.68 395.341 100.243 388.523 93.175C388.015 92.718 387.352 92.47 386.669 92.4808C385.986 92.4916 385.331 92.7605 384.838 93.2334C384.344 93.7064 384.048 94.3484 384.008 95.0308C383.968 95.7131 384.188 96.3853 384.623 96.9125C390.481 102.973 393.755 111.072 393.755 119.5C393.755 127.929 390.481 136.027 384.623 142.088C384.139 142.59 383.867 143.259 383.865 143.956C383.866 144.321 383.941 144.682 384.085 145.017C384.23 145.352 384.44 145.655 384.704 145.906C385.222 146.4 385.915 146.669 386.63 146.653C387.346 146.638 388.026 146.34 388.523 145.825V145.825Z" fill="black"/>
<path d="M58.56 92.44C56.1547 92.44 54.1453 91.9267 52.532 90.9C50.9187 89.8733 50.112 88.5387 50.112 86.896C50.112 86.0453 50.332 85.3853 50.772 84.916C51.2413 84.4173 51.8573 84.168 52.62 84.168C53.2067 84.168 53.7053 84.3147 54.116 84.608C54.5267 84.9013 54.82 85.312 54.996 85.84C54.3507 86.544 54.028 87.292 54.028 88.084C54.028 88.9933 54.4387 89.7853 55.26 90.46C56.0813 91.1347 57.1813 91.472 58.56 91.472C60.408 91.472 61.9187 91.0613 63.092 90.24C64.2653 89.3893 64.852 88.26 64.852 86.852C64.852 86.0307 64.6027 85.4147 64.104 85.004C63.6053 84.5933 62.6373 84.124 61.2 83.596L54.556 81.176C51.9453 80.2373 50.64 78.492 50.64 75.94C50.64 73.8573 51.3587 72.156 52.796 70.836C54.2333 69.4867 56.2133 68.812 58.736 68.812C60.8187 68.812 62.5933 69.296 64.06 70.264C65.556 71.2027 66.304 72.552 66.304 74.312C66.304 75.016 66.1133 75.588 65.732 76.028C65.3507 76.4387 64.852 76.644 64.236 76.644C63.62 76.644 63.1067 76.4827 62.696 76.16C62.3147 75.808 62.124 75.3387 62.124 74.752C62.5053 74.4587 62.7693 74.1507 62.916 73.828C63.0627 73.476 63.136 73.0653 63.136 72.596C63.136 71.7747 62.7693 71.1 62.036 70.572C61.332 70.044 60.232 69.78 58.736 69.78C57.4453 69.78 56.3307 69.9853 55.392 70.396C54.4827 70.7773 53.7933 71.2907 53.324 71.936C52.8547 72.5813 52.62 73.2413 52.62 73.916C52.62 74.62 52.8693 75.1773 53.368 75.588C53.896 75.9987 54.8493 76.4533 56.228 76.952L62.388 79.152C63.8253 79.68 64.9107 80.4133 65.644 81.352C66.3773 82.2907 66.744 83.508 66.744 85.004C66.744 87.1453 66.0693 88.92 64.72 90.328C63.3707 91.736 61.3173 92.44 58.56 92.44ZM78.3418 92.44C76.4058 92.44 74.8511 91.956 73.6778 90.988C72.5338 90.02 71.9618 88.48 71.9618 86.368V70.528L68.8378 70.088V69.208H71.9618V65.556L76.3618 64.456V69.208H82.0818V70.088L76.3618 70.528V86.28C76.3618 89.3893 77.4764 90.944 79.7058 90.944C80.1751 90.944 80.6151 90.8707 81.0258 90.724C81.4658 90.5773 81.8031 90.4307 82.0378 90.284C82.3018 90.1373 82.4631 90.0347 82.5218 89.976L83.0938 90.68C81.7738 91.8533 80.1898 92.44 78.3418 92.44ZM93.0677 92.44C90.9557 92.44 89.2837 91.912 88.0517 90.856C86.849 89.8 86.2477 88.2307 86.2477 86.148V70.528L83.1677 70.088V69.208H90.6477V86.06C90.6477 87.556 90.9557 88.7293 91.5717 89.58C92.1877 90.4307 93.141 90.856 94.4317 90.856C95.781 90.856 97.0717 90.416 98.3037 89.536C99.565 88.6267 100.68 87.512 101.648 86.192V70.528L98.5677 70.088V69.208H106.048V90.68L109.128 91.12V92H101.648V87.776C100.592 89.2427 99.3157 90.3867 97.8197 91.208C96.353 92.0293 94.769 92.44 93.0677 92.44ZM119.9 92.44C117.495 92.44 115.486 91.9267 113.872 90.9C112.259 89.8733 111.452 88.5387 111.452 86.896C111.452 86.0453 111.672 85.3853 112.112 84.916C112.582 84.4173 113.198 84.168 113.96 84.168C114.547 84.168 115.046 84.3147 115.456 84.608C115.867 84.9013 116.16 85.312 116.336 85.84C115.691 86.544 115.368 87.292 115.368 88.084C115.368 88.9933 115.779 89.7853 116.6 90.46C117.422 91.1347 118.522 91.472 119.9 91.472C121.748 91.472 123.259 91.0613 124.432 90.24C125.606 89.3893 126.192 88.26 126.192 86.852C126.192 86.0307 125.943 85.4147 125.444 85.004C124.946 84.5933 123.978 84.124 122.54 83.596L115.896 81.176C113.286 80.2373 111.98 78.492 111.98 75.94C111.98 73.8573 112.699 72.156 114.136 70.836C115.574 69.4867 117.554 68.812 120.076 68.812C122.159 68.812 123.934 69.296 125.4 70.264C126.896 71.2027 127.644 72.552 127.644 74.312C127.644 75.016 127.454 75.588 127.072 76.028C126.691 76.4387 126.192 76.644 125.576 76.644C124.96 76.644 124.447 76.4827 124.036 76.16C123.655 75.808 123.464 75.3387 123.464 74.752C123.846 74.4587 124.11 74.1507 124.256 73.828C124.403 73.476 124.476 73.0653 124.476 72.596C124.476 71.7747 124.11 71.1 123.376 70.572C122.672 70.044 121.572 69.78 120.076 69.78C118.786 69.78 117.671 69.9853 116.732 70.396C115.823 70.7773 115.134 71.2907 114.664 71.936C114.195 72.5813 113.96 73.2413 113.96 73.916C113.96 74.62 114.21 75.1773 114.708 75.588C115.236 75.9987 116.19 76.4533 117.568 76.952L123.728 79.152C125.166 79.68 126.251 80.4133 126.984 81.352C127.718 82.2907 128.084 83.508 128.084 85.004C128.084 87.1453 127.41 88.92 126.06 90.328C124.711 91.736 122.658 92.44 119.9 92.44ZM139.682 92.44C137.746 92.44 136.192 91.956 135.018 90.988C133.874 90.02 133.302 88.48 133.302 86.368V70.528L130.178 70.088V69.208H133.302V65.556L137.702 64.456V69.208H143.422V70.088L137.702 70.528V86.28C137.702 89.3893 138.817 90.944 141.046 90.944C141.516 90.944 141.956 90.8707 142.366 90.724C142.806 90.5773 143.144 90.4307 143.378 90.284C143.642 90.1373 143.804 90.0347 143.862 89.976L144.434 90.68C143.114 91.8533 141.53 92.44 139.682 92.44Z" fill="black"/>
<path d="M60.2647 502C59.2834 502 58.7927 501.488 58.7927 500.464V481.136C58.7927 480.56 58.9314 480.165 59.2087 479.952C59.5074 479.717 59.9447 479.6 60.5208 479.6C61.3101 479.6 61.9074 479.941 62.3127 480.624L68.6807 490.704L74.9847 480.656C75.2194 480.229 75.4968 479.952 75.8168 479.824C76.1581 479.675 76.5741 479.6 77.0647 479.6C78.0888 479.6 78.6008 480.112 78.6008 481.136V500.464C78.6008 501.488 78.0994 502 77.0968 502C76.0941 502 75.5928 501.488 75.5928 500.464V484.688L70.1208 493.52C69.7581 494.203 69.2781 494.544 68.6807 494.544C68.1048 494.544 67.6141 494.203 67.2087 493.52L61.7368 484.688V500.464C61.7368 501.488 61.2461 502 60.2647 502ZM87.1595 502.256C85.6022 502.299 84.3115 501.947 83.2875 501.2C82.2848 500.432 81.7835 499.333 81.7835 497.904C81.7835 496.859 82.1142 495.952 82.7755 495.184C83.4582 494.416 84.3222 493.819 85.3675 493.392C86.4342 492.944 87.5328 492.72 88.6635 492.72C89.3248 492.677 89.9328 492.741 90.4875 492.912C91.0422 493.061 91.5222 493.285 91.9275 493.584V491.664C91.9275 490.469 91.6715 489.691 91.1595 489.328C90.6688 488.965 89.9008 488.784 88.8555 488.784C88.1942 488.784 87.4902 488.88 86.7435 489.072C86.0182 489.243 85.3355 489.477 84.6955 489.776C84.2475 489.947 83.8635 490.011 83.5435 489.968C83.2235 489.904 82.9568 489.701 82.7435 489.36C82.5302 488.997 82.4768 488.656 82.5835 488.336C82.7115 487.995 82.9995 487.728 83.4475 487.536C84.2368 487.152 85.1008 486.843 86.0395 486.608C86.9995 486.373 87.9382 486.256 88.8555 486.256C90.8182 486.256 92.2795 486.651 93.2395 487.44C94.1995 488.208 94.6795 489.616 94.6795 491.664V499.376C94.6795 499.717 94.7008 499.941 94.7435 500.048C94.8075 500.133 94.9462 500.208 95.1595 500.272C95.4155 500.357 95.6928 500.432 95.9915 500.496C96.2902 500.539 96.4395 500.645 96.4395 500.816C96.4395 501.52 96.0768 501.947 95.3515 502.096C94.8822 502.203 94.4555 502.256 94.0715 502.256C93.3888 502.256 92.8982 502.128 92.5995 501.872C92.3008 501.616 92.0982 501.157 91.9915 500.496C91.4155 501.072 90.6902 501.499 89.8155 501.776C88.9408 502.053 88.0555 502.213 87.1595 502.256ZM87.1915 499.728C88.0875 499.707 88.8982 499.579 89.6235 499.344C90.3702 499.088 90.9568 498.736 91.3835 498.288C91.8102 497.819 92.0022 497.264 91.9595 496.624C91.9168 496.027 91.6075 495.6 91.0315 495.344C90.4768 495.088 89.7622 494.981 88.8875 495.024C88.0982 495.045 87.3728 495.195 86.7115 495.472C86.0502 495.728 85.5168 496.069 85.1115 496.496C84.7275 496.923 84.5355 497.403 84.5355 497.936C84.5568 498.533 84.8022 498.992 85.2715 499.312C85.7408 499.611 86.3808 499.749 87.1915 499.728ZM100.477 502C99.5165 502 99.0365 501.488 99.0365 500.464V488.144C99.0365 487.141 99.5378 486.64 100.541 486.64C100.882 486.64 101.181 486.725 101.437 486.896C101.693 487.067 101.821 487.387 101.821 487.856V489.04C102.247 488.208 102.887 487.536 103.741 487.024C104.615 486.512 105.554 486.256 106.557 486.256C107.858 486.256 108.509 486.779 108.509 487.824C108.509 488.272 108.381 488.603 108.125 488.816C107.89 489.008 107.623 489.093 107.325 489.072C107.175 489.051 107.005 489.04 106.813 489.04C106.621 489.019 106.418 489.008 106.205 489.008C105.01 489.008 103.997 489.403 103.165 490.192C102.333 490.96 101.917 491.973 101.917 493.232V500.464C101.917 501.488 101.437 502 100.477 502ZM112.473 502C111.513 502 111.033 501.488 111.033 500.464V488.144C111.033 487.141 111.513 486.64 112.473 486.64C113.412 486.64 113.881 487.141 113.881 488.144V500.464C113.881 501.488 113.412 502 112.473 502ZM112.441 483.76C111.908 483.76 111.449 483.579 111.065 483.216C110.703 482.832 110.521 482.373 110.521 481.84C110.521 481.307 110.703 480.859 111.065 480.496C111.449 480.112 111.908 479.92 112.441 479.92C112.953 479.92 113.391 480.112 113.753 480.496C114.137 480.859 114.329 481.307 114.329 481.84C114.329 482.373 114.137 482.832 113.753 483.216C113.391 483.579 112.953 483.76 112.441 483.76ZM122.615 502.256C121.057 502.299 119.767 501.947 118.743 501.2C117.74 500.432 117.239 499.333 117.239 497.904C117.239 496.859 117.569 495.952 118.231 495.184C118.913 494.416 119.777 493.819 120.823 493.392C121.889 492.944 122.988 492.72 124.119 492.72C124.78 492.677 125.388 492.741 125.943 492.912C126.497 493.061 126.977 493.285 127.383 493.584V491.664C127.383 490.469 127.127 489.691 126.615 489.328C126.124 488.965 125.356 488.784 124.311 488.784C123.649 488.784 122.945 488.88 122.199 489.072C121.473 489.243 120.791 489.477 120.151 489.776C119.703 489.947 119.319 490.011 118.999 489.968C118.679 489.904 118.412 489.701 118.199 489.36C117.985 488.997 117.932 488.656 118.039 488.336C118.167 487.995 118.455 487.728 118.903 487.536C119.692 487.152 120.556 486.843 121.495 486.608C122.455 486.373 123.393 486.256 124.311 486.256C126.273 486.256 127.735 486.651 128.695 487.44C129.655 488.208 130.135 489.616 130.135 491.664V499.376C130.135 499.717 130.156 499.941 130.199 500.048C130.263 500.133 130.401 500.208 130.615 500.272C130.871 500.357 131.148 500.432 131.447 500.496C131.745 500.539 131.895 500.645 131.895 500.816C131.895 501.52 131.532 501.947 130.807 502.096C130.337 502.203 129.911 502.256 129.527 502.256C128.844 502.256 128.353 502.128 128.055 501.872C127.756 501.616 127.553 501.157 127.447 500.496C126.871 501.072 126.145 501.499 125.271 501.776C124.396 502.053 123.511 502.213 122.615 502.256ZM122.647 499.728C123.543 499.707 124.353 499.579 125.079 499.344C125.825 499.088 126.412 498.736 126.839 498.288C127.265 497.819 127.457 497.264 127.415 496.624C127.372 496.027 127.063 495.6 126.487 495.344C125.932 495.088 125.217 494.981 124.343 495.024C123.553 495.045 122.828 495.195 122.167 495.472C121.505 495.728 120.972 496.069 120.567 496.496C120.183 496.923 119.991 497.403 119.991 497.936C120.012 498.533 120.257 498.992 120.727 499.312C121.196 499.611 121.836 499.749 122.647 499.728ZM135.932 502C134.972 502 134.492 501.488 134.492 500.464V488.144C134.492 487.141 134.929 486.64 135.804 486.64C136.7 486.64 137.158 486.896 137.18 487.408L137.244 488.624C137.692 487.984 138.289 487.429 139.036 486.96C139.804 486.491 140.678 486.256 141.66 486.256C143.281 486.256 144.593 486.779 145.596 487.824C146.62 488.848 147.132 490.341 147.132 492.304V500.464C147.132 501.488 146.652 502 145.692 502C144.753 502 144.284 501.488 144.284 500.464V492.912C144.284 491.568 143.985 490.565 143.388 489.904C142.79 489.221 142.012 488.88 141.052 488.88C139.964 488.88 139.078 489.243 138.396 489.968C137.713 490.672 137.372 491.621 137.372 492.816V500.464C137.372 501.488 136.892 502 135.932 502ZM152.26 502C151.3 502 150.82 501.488 150.82 500.464V488.144C150.82 487.141 151.258 486.64 152.132 486.64C153.028 486.64 153.487 486.896 153.508 487.408L153.572 488.624C154.02 487.984 154.618 487.429 155.364 486.96C156.132 486.491 157.007 486.256 157.988 486.256C159.61 486.256 160.922 486.779 161.924 487.824C162.948 488.848 163.46 490.341 163.46 492.304V500.464C163.46 501.488 162.98 502 162.02 502C161.082 502 160.612 501.488 160.612 500.464V492.912C160.612 491.568 160.314 490.565 159.716 489.904C159.119 489.221 158.34 488.88 157.38 488.88C156.292 488.88 155.407 489.243 154.724 489.968C154.042 490.672 153.7 491.621 153.7 492.816V500.464C153.7 501.488 153.22 502 152.26 502ZM171.757 502.256C170.2 502.299 168.909 501.947 167.885 501.2C166.882 500.432 166.381 499.333 166.381 497.904C166.381 496.859 166.712 495.952 167.373 495.184C168.056 494.416 168.92 493.819 169.965 493.392C171.032 492.944 172.13 492.72 173.261 492.72C173.922 492.677 174.53 492.741 175.085 492.912C175.64 493.061 176.12 493.285 176.525 493.584V491.664C176.525 490.469 176.269 489.691 175.757 489.328C175.266 488.965 174.498 488.784 173.453 488.784C172.792 488.784 172.088 488.88 171.341 489.072C170.616 489.243 169.933 489.477 169.293 489.776C168.845 489.947 168.461 490.011 168.141 489.968C167.821 489.904 167.554 489.701 167.341 489.36C167.128 488.997 167.074 488.656 167.181 488.336C167.309 487.995 167.597 487.728 168.045 487.536C168.834 487.152 169.698 486.843 170.637 486.608C171.597 486.373 172.536 486.256 173.453 486.256C175.416 486.256 176.877 486.651 177.837 487.44C178.797 488.208 179.277 489.616 179.277 491.664V499.376C179.277 499.717 179.298 499.941 179.341 500.048C179.405 500.133 179.544 500.208 179.757 500.272C180.013 500.357 180.29 500.432 180.589 500.496C180.888 500.539 181.037 500.645 181.037 500.816C181.037 501.52 180.674 501.947 179.949 502.096C179.48 502.203 179.053 502.256 178.669 502.256C177.986 502.256 177.496 502.128 177.197 501.872C176.898 501.616 176.696 501.157 176.589 500.496C176.013 501.072 175.288 501.499 174.413 501.776C173.538 502.053 172.653 502.213 171.757 502.256ZM171.789 499.728C172.685 499.707 173.496 499.579 174.221 499.344C174.968 499.088 175.554 498.736 175.981 498.288C176.408 497.819 176.6 497.264 176.557 496.624C176.514 496.027 176.205 495.6 175.629 495.344C175.074 495.088 174.36 494.981 173.485 495.024C172.696 495.045 171.97 495.195 171.309 495.472C170.648 495.728 170.114 496.069 169.709 496.496C169.325 496.923 169.133 497.403 169.133 497.936C169.154 498.533 169.4 498.992 169.869 499.312C170.338 499.611 170.978 499.749 171.789 499.728ZM193.723 502C192.763 502 192.283 501.488 192.283 500.464V481.136C192.283 480.112 192.784 479.6 193.787 479.6H205.435C206.437 479.6 206.939 480.059 206.939 480.976C206.939 481.893 206.437 482.352 205.435 482.352H195.195V489.168H204.411C205.435 489.168 205.947 489.637 205.947 490.576C205.947 491.493 205.435 491.952 204.411 491.952H195.195V500.464C195.195 501.488 194.704 502 193.723 502ZM210.638 502C209.678 502 209.198 501.488 209.198 500.464V488.144C209.198 487.141 209.699 486.64 210.702 486.64C211.043 486.64 211.342 486.725 211.598 486.896C211.854 487.067 211.982 487.387 211.982 487.856V489.04C212.408 488.208 213.048 487.536 213.902 487.024C214.776 486.512 215.715 486.256 216.718 486.256C218.019 486.256 218.67 486.779 218.67 487.824C218.67 488.272 218.542 488.603 218.286 488.816C218.051 489.008 217.784 489.093 217.486 489.072C217.336 489.051 217.166 489.04 216.974 489.04C216.782 489.019 216.579 489.008 216.366 489.008C215.171 489.008 214.158 489.403 213.326 490.192C212.494 490.96 212.078 491.973 212.078 493.232V500.464C212.078 501.488 211.598 502 210.638 502ZM225.291 502.256C223.733 502.299 222.443 501.947 221.419 501.2C220.416 500.432 219.915 499.333 219.915 497.904C219.915 496.859 220.245 495.952 220.907 495.184C221.589 494.416 222.453 493.819 223.499 493.392C224.565 492.944 225.664 492.72 226.795 492.72C227.456 492.677 228.064 492.741 228.619 492.912C229.173 493.061 229.653 493.285 230.059 493.584V491.664C230.059 490.469 229.803 489.691 229.291 489.328C228.8 488.965 228.032 488.784 226.987 488.784C226.325 488.784 225.621 488.88 224.875 489.072C224.149 489.243 223.467 489.477 222.827 489.776C222.379 489.947 221.995 490.011 221.675 489.968C221.355 489.904 221.088 489.701 220.875 489.36C220.661 488.997 220.608 488.656 220.715 488.336C220.843 487.995 221.131 487.728 221.579 487.536C222.368 487.152 223.232 486.843 224.171 486.608C225.131 486.373 226.069 486.256 226.987 486.256C228.949 486.256 230.411 486.651 231.371 487.44C232.331 488.208 232.811 489.616 232.811 491.664V499.376C232.811 499.717 232.832 499.941 232.875 500.048C232.939 500.133 233.077 500.208 233.291 500.272C233.547 500.357 233.824 500.432 234.123 500.496C234.421 500.539 234.571 500.645 234.571 500.816C234.571 501.52 234.208 501.947 233.483 502.096C233.013 502.203 232.587 502.256 232.203 502.256C231.52 502.256 231.029 502.128 230.731 501.872C230.432 501.616 230.229 501.157 230.123 500.496C229.547 501.072 228.821 501.499 227.947 501.776C227.072 502.053 226.187 502.213 225.291 502.256ZM225.323 499.728C226.219 499.707 227.029 499.579 227.755 499.344C228.501 499.088 229.088 498.736 229.515 498.288C229.941 497.819 230.133 497.264 230.091 496.624C230.048 496.027 229.739 495.6 229.163 495.344C228.608 495.088 227.893 494.981 227.019 495.024C226.229 495.045 225.504 495.195 224.843 495.472C224.181 495.728 223.648 496.069 223.243 496.496C222.859 496.923 222.667 497.403 222.667 497.936C222.688 498.533 222.933 498.992 223.403 499.312C223.872 499.611 224.512 499.749 225.323 499.728ZM238.608 502C237.648 502 237.168 501.488 237.168 500.464V488.144C237.168 487.141 237.605 486.64 238.48 486.64C239.376 486.64 239.834 486.896 239.856 487.408L239.92 488.624C240.368 487.984 240.965 487.429 241.712 486.96C242.48 486.491 243.354 486.256 244.336 486.256C245.957 486.256 247.269 486.779 248.272 487.824C249.296 488.848 249.808 490.341 249.808 492.304V500.464C249.808 501.488 249.328 502 248.368 502C247.429 502 246.96 501.488 246.96 500.464V492.912C246.96 491.568 246.661 490.565 246.064 489.904C245.466 489.221 244.688 488.88 243.728 488.88C242.64 488.88 241.754 489.243 241.072 489.968C240.389 490.672 240.048 491.621 240.048 492.816V500.464C240.048 501.488 239.568 502 238.608 502ZM259.96 502.352C258.552 502.352 257.294 502.021 256.184 501.36C255.096 500.677 254.232 499.739 253.592 498.544C252.974 497.328 252.664 495.92 252.664 494.32C252.664 492.72 252.974 491.312 253.592 490.096C254.232 488.88 255.096 487.941 256.184 487.28C257.294 486.597 258.552 486.256 259.96 486.256C261.752 486.256 263.288 486.811 264.568 487.92C264.974 488.219 265.155 488.56 265.112 488.944C265.091 489.328 264.899 489.648 264.536 489.904C264.174 490.181 263.854 490.299 263.576 490.256C263.299 490.213 262.947 490.053 262.52 489.776C261.795 489.179 260.942 488.88 259.96 488.88C258.659 488.88 257.592 489.36 256.76 490.32C255.95 491.28 255.544 492.613 255.544 494.32C255.544 496.005 255.95 497.328 256.76 498.288C257.592 499.248 258.659 499.728 259.96 499.728C260.92 499.728 261.763 499.451 262.488 498.896C262.872 498.619 263.214 498.448 263.512 498.384C263.811 498.32 264.142 498.416 264.504 498.672C264.867 498.949 265.07 499.269 265.112 499.632C265.155 499.995 264.984 500.336 264.6 500.656C263.299 501.787 261.752 502.352 259.96 502.352ZM274.384 502.352C272.934 502.352 271.654 502.043 270.544 501.424C269.435 500.805 268.571 499.899 267.952 498.704C267.334 497.488 267.024 496.027 267.024 494.32C267.024 492.677 267.334 491.259 267.952 490.064C268.571 488.848 269.414 487.909 270.48 487.248C271.568 486.587 272.816 486.256 274.224 486.256C275.632 486.256 276.827 486.597 277.808 487.28C278.811 487.941 279.568 488.795 280.08 489.84C280.614 490.885 280.88 491.963 280.88 493.072C280.88 493.691 280.752 494.107 280.496 494.32C280.24 494.512 279.867 494.608 279.376 494.608H269.84C269.883 496.315 270.31 497.616 271.12 498.512C271.952 499.387 273.051 499.824 274.416 499.824C276.038 499.824 277.264 499.173 278.096 497.872C278.438 497.509 278.758 497.275 279.056 497.168C279.355 497.04 279.675 497.093 280.016 497.328C280.379 497.563 280.582 497.861 280.624 498.224C280.688 498.587 280.55 498.981 280.208 499.408C279.504 500.411 278.662 501.157 277.68 501.648C276.72 502.117 275.622 502.352 274.384 502.352ZM270 492.304H278.064C277.894 491.195 277.467 490.299 276.784 489.616C276.102 488.933 275.238 488.592 274.192 488.592C273.083 488.592 272.166 488.912 271.44 489.552C270.715 490.171 270.235 491.088 270 492.304ZM290.079 502.352C288.629 502.352 287.53 502.075 286.783 501.52C286.037 500.944 285.663 499.856 285.663 498.256V489.136H284.063C283.061 489.136 282.559 488.72 282.559 487.888C282.559 487.461 282.666 487.152 282.879 486.96C283.114 486.747 283.509 486.64 284.063 486.64H285.663V482.64C285.663 481.637 286.143 481.136 287.103 481.136C288.042 481.136 288.511 481.637 288.511 482.64V486.64H291.455C292.458 486.64 292.959 487.056 292.959 487.888C292.959 488.72 292.458 489.136 291.455 489.136H288.511V497.648C288.511 498.48 288.693 499.045 289.055 499.344C289.439 499.621 290.005 499.76 290.751 499.76C290.794 499.76 290.858 499.76 290.943 499.76C291.519 499.76 291.999 499.813 292.383 499.92C292.767 500.005 292.959 500.336 292.959 500.912C292.959 501.552 292.661 501.947 292.063 502.096C291.487 502.267 290.826 502.352 290.079 502.352ZM301.627 502.352C300.176 502.352 299.077 502.075 298.331 501.52C297.584 500.944 297.211 499.856 297.211 498.256V489.136H295.611C294.608 489.136 294.107 488.72 294.107 487.888C294.107 487.461 294.213 487.152 294.427 486.96C294.661 486.747 295.056 486.64 295.611 486.64H297.211V482.64C297.211 481.637 297.691 481.136 298.651 481.136C299.589 481.136 300.059 481.637 300.059 482.64V486.64H303.003C304.005 486.64 304.507 487.056 304.507 487.888C304.507 488.72 304.005 489.136 303.003 489.136H300.059V497.648C300.059 498.48 300.24 499.045 300.603 499.344C300.987 499.621 301.552 499.76 302.299 499.76C302.341 499.76 302.405 499.76 302.491 499.76C303.067 499.76 303.547 499.813 303.931 499.92C304.315 500.005 304.507 500.336 304.507 500.912C304.507 501.552 304.208 501.947 303.611 502.096C303.035 502.267 302.373 502.352 301.627 502.352ZM313.558 502.352C312.108 502.352 310.828 502.043 309.718 501.424C308.609 500.805 307.745 499.899 307.126 498.704C306.508 497.488 306.198 496.027 306.198 494.32C306.198 492.677 306.508 491.259 307.126 490.064C307.745 488.848 308.588 487.909 309.654 487.248C310.742 486.587 311.99 486.256 313.398 486.256C314.806 486.256 316.001 486.597 316.982 487.28C317.985 487.941 318.742 488.795 319.254 489.84C319.788 490.885 320.054 491.963 320.054 493.072C320.054 493.691 319.926 494.107 319.67 494.32C319.414 494.512 319.041 494.608 318.55 494.608H309.014C309.057 496.315 309.484 497.616 310.294 498.512C311.126 499.387 312.225 499.824 313.59 499.824C315.212 499.824 316.438 499.173 317.27 497.872C317.612 497.509 317.932 497.275 318.23 497.168C318.529 497.04 318.849 497.093 319.19 497.328C319.553 497.563 319.756 497.861 319.798 498.224C319.862 498.587 319.724 498.981 319.382 499.408C318.678 500.411 317.836 501.157 316.854 501.648C315.894 502.117 314.796 502.352 313.558 502.352ZM309.174 492.304H317.238C317.068 491.195 316.641 490.299 315.958 489.616C315.276 488.933 314.412 488.592 313.366 488.592C312.257 488.592 311.34 488.912 310.614 489.552C309.889 490.171 309.409 491.088 309.174 492.304Z" fill="white"/>
<path d="M50.976 712C50.224 712 49.848 711.616 49.848 710.848V696.352C49.848 695.584 50.224 695.2 50.976 695.2H55.008C56.768 695.2 58.248 695.544 59.448 696.232C60.664 696.92 61.584 697.896 62.208 699.16C62.848 700.408 63.168 701.888 63.168 703.6C63.168 705.296 62.848 706.776 62.208 708.04C61.584 709.304 60.664 710.28 59.448 710.968C58.248 711.656 56.768 712 55.008 712H50.976ZM52.032 709.936H54.864C56.208 709.936 57.32 709.672 58.2 709.144C59.096 708.6 59.768 707.856 60.216 706.912C60.664 705.952 60.888 704.848 60.888 703.6C60.888 702.336 60.664 701.232 60.216 700.288C59.768 699.344 59.096 698.608 58.2 698.08C57.32 697.536 56.208 697.264 54.864 697.264H52.032V709.936ZM70.1724 712.264C69.0844 712.264 68.1244 712.032 67.2924 711.568C66.4604 711.104 65.8124 710.424 65.3484 709.528C64.8844 708.616 64.6524 707.52 64.6524 706.24C64.6524 705.008 64.8844 703.944 65.3484 703.048C65.8124 702.136 66.4444 701.432 67.2444 700.936C68.0604 700.44 68.9964 700.192 70.0524 700.192C71.1084 700.192 72.0044 700.448 72.7404 700.96C73.4924 701.456 74.0604 702.096 74.4444 702.88C74.8444 703.664 75.0444 704.472 75.0444 705.304C75.0444 705.768 74.9484 706.08 74.7564 706.24C74.5644 706.384 74.2844 706.456 73.9164 706.456H66.7644C66.7964 707.736 67.1164 708.712 67.7244 709.384C68.3484 710.04 69.1724 710.368 70.1964 710.368C71.4124 710.368 72.3324 709.88 72.9564 708.904C73.2124 708.632 73.4524 708.456 73.6764 708.376C73.9004 708.28 74.1404 708.32 74.3964 708.496C74.6684 708.672 74.8204 708.896 74.8524 709.168C74.9004 709.44 74.7964 709.736 74.5404 710.056C74.0124 710.808 73.3804 711.368 72.6444 711.736C71.9244 712.088 71.1004 712.264 70.1724 712.264ZM66.8844 704.728H72.9324C72.8044 703.896 72.4844 703.224 71.9724 702.712C71.4604 702.2 70.8124 701.944 70.0284 701.944C69.1964 701.944 68.5084 702.184 67.9644 702.664C67.4204 703.128 67.0604 703.816 66.8844 704.728ZM82.9035 712.264C81.3515 712.264 80.1595 711.576 79.3275 710.2V711.136C79.3275 711.44 79.2315 711.664 79.0395 711.808C78.8475 711.936 78.5995 712 78.2955 712C77.6555 712 77.3355 711.616 77.3355 710.848V695.92C77.3355 695.168 77.6955 694.792 78.4155 694.792C79.1355 694.792 79.4955 695.168 79.4955 695.92V701.944C79.8955 701.384 80.3835 700.952 80.9595 700.648C81.5355 700.344 82.1835 700.192 82.9035 700.192C83.9595 700.192 84.8955 700.44 85.7115 700.936C86.5275 701.416 87.1675 702.112 87.6315 703.024C88.1115 703.92 88.3515 704.992 88.3515 706.24C88.3515 707.472 88.1115 708.544 87.6315 709.456C87.1675 710.352 86.5275 711.048 85.7115 711.544C84.8955 712.024 83.9595 712.264 82.9035 712.264ZM82.8315 710.296C83.8075 710.296 84.6155 709.936 85.2555 709.216C85.8955 708.496 86.2155 707.504 86.2155 706.24C86.2155 704.96 85.8955 703.96 85.2555 703.24C84.6155 702.52 83.8075 702.16 82.8315 702.16C81.8555 702.16 81.0475 702.52 80.4075 703.24C79.7835 703.96 79.4715 704.96 79.4715 706.24C79.4715 707.504 79.7835 708.496 80.4075 709.216C81.0475 709.936 81.8555 710.296 82.8315 710.296ZM91.9367 712C91.2167 712 90.8567 711.616 90.8567 710.848V701.608C90.8567 700.856 91.2167 700.48 91.9367 700.48C92.6407 700.48 92.9927 700.856 92.9927 701.608V710.848C92.9927 711.616 92.6407 712 91.9367 712ZM91.9127 698.32C91.5127 698.32 91.1687 698.184 90.8807 697.912C90.6087 697.624 90.4727 697.28 90.4727 696.88C90.4727 696.48 90.6087 696.144 90.8807 695.872C91.1687 695.584 91.5127 695.44 91.9127 695.44C92.2967 695.44 92.6247 695.584 92.8967 695.872C93.1847 696.144 93.3287 696.48 93.3287 696.88C93.3287 697.28 93.1847 697.624 92.8967 697.912C92.6247 698.184 92.2967 698.32 91.9127 698.32ZM100.694 712.264C99.6064 712.264 98.7824 712.056 98.2224 711.64C97.6624 711.208 97.3824 710.392 97.3824 709.192V702.352H96.1824C95.4304 702.352 95.0544 702.04 95.0544 701.416C95.0544 701.096 95.1344 700.864 95.2944 700.72C95.4704 700.56 95.7664 700.48 96.1824 700.48H97.3824V697.48C97.3824 696.728 97.7424 696.352 98.4624 696.352C99.1664 696.352 99.5184 696.728 99.5184 697.48V700.48H101.726C102.478 700.48 102.854 700.792 102.854 701.416C102.854 702.04 102.478 702.352 101.726 702.352H99.5184V708.736C99.5184 709.36 99.6544 709.784 99.9264 710.008C100.214 710.216 100.638 710.32 101.198 710.32C101.23 710.32 101.278 710.32 101.342 710.32C101.774 710.32 102.134 710.36 102.422 710.44C102.71 710.504 102.854 710.752 102.854 711.184C102.854 711.664 102.63 711.96 102.182 712.072C101.75 712.2 101.254 712.264 100.694 712.264ZM118.146 712.36C116.626 712.36 115.282 712 114.114 711.28C112.946 710.56 112.026 709.544 111.354 708.232C110.698 706.92 110.37 705.376 110.37 703.6C110.37 701.824 110.698 700.28 111.354 698.968C112.026 697.64 112.946 696.616 114.114 695.896C115.282 695.16 116.626 694.792 118.146 694.792C119.314 694.792 120.378 695.008 121.338 695.44C122.298 695.872 123.122 696.488 123.81 697.288C124.066 697.56 124.146 697.84 124.05 698.128C123.97 698.4 123.802 698.624 123.546 698.8L123.45 698.848C123.274 698.96 123.034 699.008 122.73 698.992C122.442 698.96 122.17 698.824 121.914 698.584C120.97 697.512 119.714 696.976 118.146 696.976C117.058 696.976 116.098 697.248 115.266 697.792C114.45 698.336 113.81 699.104 113.346 700.096C112.882 701.072 112.65 702.24 112.65 703.6C112.65 704.944 112.882 706.112 113.346 707.104C113.81 708.08 114.45 708.84 115.266 709.384C116.098 709.928 117.058 710.2 118.146 710.2C119.682 710.2 120.938 709.664 121.914 708.592C122.17 708.352 122.426 708.216 122.682 708.184C122.954 708.152 123.21 708.2 123.45 708.328L123.498 708.352C123.77 708.496 123.954 708.712 124.05 709C124.146 709.288 124.074 709.568 123.834 709.84C123.146 710.64 122.314 711.264 121.338 711.712C120.378 712.144 119.314 712.36 118.146 712.36ZM130.071 712.192C128.903 712.224 127.935 711.96 127.167 711.4C126.415 710.824 126.039 710 126.039 708.928C126.039 708.144 126.287 707.464 126.783 706.888C127.295 706.312 127.943 705.864 128.727 705.544C129.527 705.208 130.351 705.04 131.199 705.04C131.695 705.008 132.151 705.056 132.567 705.184C132.983 705.296 133.343 705.464 133.647 705.688V704.248C133.647 703.352 133.455 702.768 133.071 702.496C132.703 702.224 132.127 702.088 131.343 702.088C130.847 702.088 130.319 702.16 129.759 702.304C129.215 702.432 128.703 702.608 128.223 702.832C127.887 702.96 127.599 703.008 127.359 702.976C127.119 702.928 126.919 702.776 126.759 702.52C126.599 702.248 126.559 701.992 126.639 701.752C126.735 701.496 126.951 701.296 127.287 701.152C127.879 700.864 128.527 700.632 129.231 700.456C129.951 700.28 130.655 700.192 131.343 700.192C132.815 700.192 133.911 700.488 134.631 701.08C135.351 701.656 135.711 702.712 135.711 704.248V710.032C135.711 710.288 135.727 710.456 135.759 710.536C135.807 710.6 135.911 710.656 136.071 710.704C136.263 710.768 136.471 710.824 136.695 710.872C136.919 710.904 137.031 710.984 137.031 711.112C137.031 711.64 136.759 711.96 136.215 712.072C135.863 712.152 135.543 712.192 135.255 712.192C134.743 712.192 134.375 712.096 134.151 711.904C133.927 711.712 133.775 711.368 133.695 710.872C133.263 711.304 132.719 711.624 132.063 711.832C131.407 712.04 130.743 712.16 130.071 712.192ZM130.095 710.296C130.767 710.28 131.375 710.184 131.919 710.008C132.479 709.816 132.919 709.552 133.239 709.216C133.559 708.864 133.703 708.448 133.671 707.968C133.639 707.52 133.407 707.2 132.975 707.008C132.559 706.816 132.023 706.736 131.367 706.768C130.775 706.784 130.231 706.896 129.735 707.104C129.239 707.296 128.839 707.552 128.535 707.872C128.247 708.192 128.103 708.552 128.103 708.952C128.119 709.4 128.303 709.744 128.655 709.984C129.007 710.208 129.487 710.312 130.095 710.296ZM140.059 712C139.339 712 138.979 711.616 138.979 710.848V701.608C138.979 700.856 139.355 700.48 140.107 700.48C140.363 700.48 140.587 700.544 140.779 700.672C140.971 700.8 141.067 701.04 141.067 701.392V702.28C141.387 701.656 141.867 701.152 142.507 700.768C143.163 700.384 143.867 700.192 144.619 700.192C145.595 700.192 146.083 700.584 146.083 701.368C146.083 701.704 145.987 701.952 145.795 702.112C145.619 702.256 145.419 702.32 145.195 702.304C145.083 702.288 144.955 702.28 144.811 702.28C144.667 702.264 144.515 702.256 144.355 702.256C143.459 702.256 142.699 702.552 142.075 703.144C141.451 703.72 141.139 704.48 141.139 705.424V710.848C141.139 711.616 140.779 712 140.059 712ZM152.441 712.264C151.385 712.264 150.441 712.024 149.609 711.544C148.793 711.048 148.145 710.352 147.665 709.456C147.201 708.544 146.969 707.472 146.969 706.24C146.969 704.992 147.201 703.92 147.665 703.024C148.145 702.112 148.793 701.416 149.609 700.936C150.441 700.44 151.385 700.192 152.441 700.192C153.145 700.192 153.785 700.344 154.361 700.648C154.953 700.952 155.449 701.384 155.849 701.944V695.92C155.849 695.168 156.201 694.792 156.905 694.792C157.625 694.792 157.985 695.168 157.985 695.92V710.848C157.985 711.616 157.673 712 157.049 712C156.409 712 156.081 711.824 156.065 711.472L156.017 710.344C155.617 710.936 155.105 711.408 154.481 711.76C153.873 712.096 153.193 712.264 152.441 712.264ZM152.513 710.296C153.489 710.296 154.289 709.936 154.913 709.216C155.553 708.496 155.873 707.504 155.873 706.24C155.873 704.96 155.553 703.96 154.913 703.24C154.289 702.52 153.489 702.16 152.513 702.16C151.537 702.16 150.729 702.52 150.089 703.24C149.449 703.96 149.129 704.96 149.129 706.24C149.129 707.504 149.449 708.496 150.089 709.216C150.729 709.936 151.537 710.296 152.513 710.296Z" fill="white"/>
<circle cx="359.35" cy="704.35" r="25.85" fill="white" stroke="white"/>
<circle cx="386.65" cy="704.35" r="23.85" stroke="white" stroke-width="3"/>
</svg>
