<svg width="470" height="763" viewBox="0 0 470 763" fill="none" xmlns="http://www.w3.org/2000/svg">
<rect width="470" height="763" rx="20" fill="#DCB1FF"/>
<path d="M256.456 573.4H278.92V579.256L264.76 600.664C264.088 601.688 263.576 602.568 263.224 603.304C262.872 604.04 262.696 604.792 262.696 605.56V607H258.76V605.272C258.76 604.696 258.808 604.152 258.904 603.64C259.032 603.128 259.208 602.616 259.432 602.104C259.688 601.56 259.992 601 260.344 600.424C260.728 599.816 261.176 599.128 261.688 598.36L275.464 577.72V577.144H256.456V573.4ZM296.503 573.4H304.327V596.92H309.511V600.664H304.327V607H300.295V600.664H284.743V595.096L296.503 573.4ZM288.199 596.344V596.92H300.295V575.128H299.719L288.199 596.344ZM315.525 591.16V573.4H336.549V577.144H319.461V589.144H320.037C320.357 588.504 320.773 587.896 321.285 587.32C321.797 586.712 322.389 586.184 323.061 585.736C323.765 585.288 324.549 584.936 325.413 584.68C326.277 584.392 327.237 584.248 328.293 584.248C329.829 584.248 331.237 584.504 332.517 585.016C333.829 585.528 334.949 586.248 335.877 587.176C336.805 588.104 337.525 589.224 338.037 590.536C338.581 591.848 338.853 593.304 338.853 594.904V595.768C338.853 597.368 338.597 598.888 338.085 600.328C337.573 601.736 336.821 603 335.829 604.12C334.837 605.208 333.605 606.072 332.133 606.712C330.661 607.352 328.965 607.672 327.045 607.672C325.093 607.672 323.365 607.384 321.861 606.808C320.357 606.232 319.093 605.432 318.069 604.408C317.045 603.384 316.261 602.184 315.717 600.808C315.205 599.4 314.949 597.88 314.949 596.248V594.904H318.981V595.96C318.981 598.616 319.717 600.616 321.189 601.96C322.693 603.272 324.645 603.928 327.045 603.928C328.325 603.928 329.445 603.704 330.405 603.256C331.397 602.776 332.213 602.152 332.853 601.384C333.525 600.584 334.021 599.672 334.341 598.648C334.661 597.592 334.821 596.504 334.821 595.384V595.096C334.821 594.104 334.645 593.176 334.293 592.312C333.973 591.448 333.509 590.696 332.901 590.056C332.325 589.416 331.605 588.92 330.741 588.568C329.909 588.184 328.997 587.992 328.005 587.992C327.333 587.992 326.709 588.088 326.133 588.28C325.589 588.472 325.109 588.728 324.693 589.048C324.277 589.336 323.925 589.672 323.637 590.056C323.381 590.44 323.205 590.808 323.109 591.16H315.525Z" fill="black"/>
<path d="M259.57 545.27C258.43 545.27 257.422 545 256.546 544.46C255.67 543.92 254.98 543.158 254.476 542.174C253.984 541.19 253.738 540.032 253.738 538.7C253.738 537.368 253.984 536.21 254.476 535.226C254.98 534.23 255.67 533.462 256.546 532.922C257.422 532.37 258.43 532.094 259.57 532.094C260.446 532.094 261.244 532.256 261.964 532.58C262.684 532.904 263.302 533.366 263.818 533.966C264.01 534.17 264.07 534.38 263.998 534.596C263.938 534.8 263.812 534.968 263.62 535.1L263.548 535.136C263.416 535.22 263.236 535.256 263.008 535.244C262.792 535.22 262.588 535.118 262.396 534.938C261.688 534.134 260.746 533.732 259.57 533.732C258.754 533.732 258.034 533.936 257.41 534.344C256.798 534.752 256.318 535.328 255.97 536.072C255.622 536.804 255.448 537.68 255.448 538.7C255.448 539.708 255.622 540.584 255.97 541.328C256.318 542.06 256.798 542.63 257.41 543.038C258.034 543.446 258.754 543.65 259.57 543.65C260.722 543.65 261.664 543.248 262.396 542.444C262.588 542.264 262.78 542.162 262.972 542.138C263.176 542.114 263.368 542.15 263.548 542.246L263.584 542.264C263.788 542.372 263.926 542.534 263.998 542.75C264.07 542.966 264.016 543.176 263.836 543.38C263.32 543.98 262.696 544.448 261.964 544.784C261.244 545.108 260.446 545.27 259.57 545.27ZM270.368 545.036C270.14 545.036 269.924 544.976 269.72 544.856C269.528 544.724 269.384 544.544 269.288 544.316L265.328 533.39C265.088 532.73 265.316 532.4 266.012 532.4C266.504 532.4 266.828 532.634 266.984 533.102L270.35 542.678L273.734 533.102C273.902 532.634 274.238 532.4 274.742 532.4C275.042 532.4 275.246 532.49 275.354 532.67C275.474 532.85 275.486 533.09 275.39 533.39L271.412 544.316C271.328 544.544 271.19 544.724 270.998 544.856C270.806 544.976 270.596 545.036 270.368 545.036ZM281.86 545.27C280.72 545.27 279.712 545 278.836 544.46C277.96 543.92 277.27 543.158 276.766 542.174C276.274 541.19 276.028 540.032 276.028 538.7C276.028 537.368 276.274 536.21 276.766 535.226C277.27 534.23 277.96 533.462 278.836 532.922C279.712 532.37 280.72 532.094 281.86 532.094C282.736 532.094 283.534 532.256 284.254 532.58C284.974 532.904 285.592 533.366 286.108 533.966C286.3 534.17 286.36 534.38 286.288 534.596C286.228 534.8 286.102 534.968 285.91 535.1L285.838 535.136C285.706 535.22 285.526 535.256 285.298 535.244C285.082 535.22 284.878 535.118 284.686 534.938C283.978 534.134 283.036 533.732 281.86 533.732C281.044 533.732 280.324 533.936 279.7 534.344C279.088 534.752 278.608 535.328 278.26 536.072C277.912 536.804 277.738 537.68 277.738 538.7C277.738 539.708 277.912 540.584 278.26 541.328C278.608 542.06 279.088 542.63 279.7 543.038C280.324 543.446 281.044 543.65 281.86 543.65C283.012 543.65 283.954 543.248 284.686 542.444C284.878 542.264 285.07 542.162 285.262 542.138C285.466 542.114 285.658 542.15 285.838 542.246L285.874 542.264C286.078 542.372 286.216 542.534 286.288 542.75C286.36 542.966 286.306 543.176 286.126 543.38C285.61 543.98 284.986 544.448 284.254 544.784C283.534 545.108 282.736 545.27 281.86 545.27Z" fill="black"/>
<path d="M255.88 449.456C255.88 445.104 256.92 441.728 259 439.328C261.08 436.928 263.976 435.728 267.688 435.728C271.4 435.728 274.296 436.928 276.376 439.328C278.456 441.728 279.496 445.104 279.496 449.456V456.944C279.496 461.424 278.456 464.832 276.376 467.168C274.296 469.504 271.4 470.672 267.688 470.672C263.976 470.672 261.08 469.504 259 467.168C256.92 464.832 255.88 461.424 255.88 456.944V449.456ZM267.688 467.024C270.28 467.024 272.216 466.128 273.496 464.336C274.808 462.512 275.464 459.952 275.464 456.656V449.744C275.464 448.208 275.304 446.816 274.984 445.568C274.664 444.288 274.168 443.2 273.496 442.304C272.856 441.376 272.04 440.656 271.048 440.144C270.088 439.632 268.968 439.376 267.688 439.376C266.376 439.376 265.24 439.632 264.28 440.144C263.32 440.656 262.504 441.376 261.832 442.304C261.192 443.2 260.712 444.288 260.392 445.568C260.072 446.816 259.912 448.208 259.912 449.744V456.656C259.912 459.952 260.552 462.512 261.832 464.336C263.144 466.128 265.096 467.024 267.688 467.024ZM264.616 453.2C264.616 452.368 264.92 451.648 265.528 451.04C266.136 450.432 266.856 450.128 267.688 450.128C268.52 450.128 269.24 450.432 269.848 451.04C270.456 451.648 270.76 452.368 270.76 453.2C270.76 454.032 270.456 454.752 269.848 455.36C269.24 455.968 268.52 456.272 267.688 456.272C266.856 456.272 266.136 455.968 265.528 455.36C264.92 454.752 264.616 454.032 264.616 453.2ZM296.503 436.4H304.327V459.92H309.511V463.664H304.327V470H300.295V463.664H284.743V458.096L296.503 436.4ZM288.199 459.344V459.92H300.295V438.128H299.719L288.199 459.344ZM331.797 431.312L335.157 432.368L321.189 475.088L317.781 474.032L331.797 431.312ZM367.284 466.256V470H344.532V464.24C344.532 462.704 344.788 461.376 345.3 460.256C345.812 459.104 346.532 458.128 347.46 457.328C348.42 456.496 349.572 455.808 350.916 455.264C352.26 454.72 353.78 454.256 355.476 453.872C358.324 453.232 360.372 452.32 361.62 451.136C362.9 449.952 363.54 448.496 363.54 446.768V446.48C363.54 445.616 363.396 444.768 363.108 443.936C362.82 443.104 362.372 442.352 361.764 441.68C361.156 441.008 360.372 440.48 359.412 440.096C358.484 439.68 357.364 439.472 356.052 439.472C353.588 439.472 351.668 440.224 350.292 441.728C348.948 443.232 348.276 445.232 348.276 447.728V449.84H344.244V447.44C344.244 445.904 344.5 444.432 345.012 443.024C345.524 441.616 346.276 440.368 347.268 439.28C348.26 438.192 349.492 437.328 350.964 436.688C352.436 436.048 354.132 435.728 356.052 435.728C358.004 435.728 359.7 436.032 361.14 436.64C362.58 437.216 363.78 438 364.74 438.992C365.7 439.952 366.404 441.056 366.852 442.304C367.332 443.52 367.572 444.768 367.572 446.048V446.912C367.572 449.472 366.772 451.664 365.172 453.488C363.572 455.28 361.012 456.56 357.492 457.328C354.42 458 352.164 458.896 350.724 460.016C349.284 461.104 348.564 462.704 348.564 464.816V466.256H367.284ZM374.019 436.4H396.483V442.256L382.323 463.664C381.651 464.688 381.139 465.568 380.787 466.304C380.435 467.04 380.259 467.792 380.259 468.56V470H376.323V468.272C376.323 467.696 376.371 467.152 376.467 466.64C376.595 466.128 376.771 465.616 376.995 465.104C377.251 464.56 377.555 464 377.907 463.424C378.291 462.816 378.739 462.128 379.251 461.36L393.027 440.72V440.144H374.019V436.4Z" fill="black"/>
<path d="M255.232 408C254.668 408 254.386 407.712 254.386 407.136V396.264C254.386 395.688 254.668 395.4 255.232 395.4H261.676C262.252 395.4 262.54 395.658 262.54 396.174C262.54 396.69 262.252 396.948 261.676 396.948H256.024V400.782H261.118C261.682 400.782 261.964 401.046 261.964 401.574C261.964 402.09 261.682 402.348 261.118 402.348H256.024V406.452H261.892C262.468 406.452 262.756 406.71 262.756 407.226C262.756 407.742 262.468 408 261.892 408H255.232ZM264.844 408C264.424 408 264.172 407.892 264.088 407.676C264.004 407.46 264.046 407.22 264.214 406.956L267.76 401.394L264.574 396.444C264.334 396.096 264.274 395.838 264.394 395.67C264.514 395.49 264.778 395.4 265.186 395.4C265.642 395.4 265.984 395.592 266.212 395.976L268.66 399.9L271.09 395.976C271.318 395.592 271.66 395.4 272.116 395.4C272.92 395.4 273.124 395.748 272.728 396.444L269.56 401.394L273.106 406.956C273.298 407.256 273.34 407.508 273.232 407.712C273.136 407.904 272.878 408 272.458 408C272.002 408 271.66 407.808 271.432 407.424L268.66 402.906L265.87 407.424C265.642 407.808 265.3 408 264.844 408ZM276.009 408C275.469 408 275.199 407.712 275.199 407.136V396.246C275.199 395.682 275.481 395.4 276.045 395.4H280.833C282.021 395.4 282.939 395.676 283.587 396.228C284.247 396.78 284.577 397.656 284.577 398.856C284.577 400.068 284.247 400.956 283.587 401.52C282.939 402.084 282.021 402.366 280.833 402.366H276.837V407.136C276.837 407.712 276.561 408 276.009 408ZM276.837 400.8H280.635C281.355 400.8 281.901 400.65 282.273 400.35C282.657 400.038 282.849 399.54 282.849 398.856C282.849 398.184 282.657 397.698 282.273 397.398C281.901 397.098 281.355 396.948 280.635 396.948H276.837V400.8ZM286.987 408C286.447 408 286.177 407.712 286.177 407.136V396.264C286.177 395.688 286.447 395.4 286.987 395.4C287.539 395.4 287.815 395.688 287.815 396.264V407.136C287.815 407.712 287.539 408 286.987 408ZM291.039 408C290.499 408 290.229 407.712 290.229 407.136V396.246C290.229 395.682 290.511 395.4 291.075 395.4H295.863C297.051 395.4 297.969 395.676 298.617 396.228C299.277 396.78 299.607 397.656 299.607 398.856C299.607 399.924 299.349 400.74 298.833 401.304C298.317 401.868 297.567 402.198 296.583 402.294L299.013 406.992C299.157 407.292 299.187 407.538 299.103 407.73C299.019 407.91 298.839 408 298.563 408H298.311C297.831 408 297.495 407.784 297.303 407.352L294.855 402.366H291.867V407.136C291.867 407.712 291.591 408 291.039 408ZM291.867 400.8H295.665C296.385 400.8 296.931 400.65 297.303 400.35C297.687 400.038 297.879 399.54 297.879 398.856C297.879 398.184 297.687 397.698 297.303 397.398C296.931 397.098 296.385 396.948 295.665 396.948H291.867V400.8ZM305.504 408C304.94 408 304.658 407.712 304.658 407.136V402.636L301.04 396.426C300.848 396.102 300.806 395.85 300.914 395.67C301.034 395.49 301.28 395.4 301.652 395.4C301.904 395.4 302.108 395.448 302.264 395.544C302.432 395.64 302.576 395.79 302.696 395.994L305.504 400.836L308.276 395.994C308.516 395.598 308.858 395.4 309.302 395.4C309.686 395.4 309.932 395.502 310.04 395.706C310.148 395.898 310.118 396.138 309.95 396.426L306.332 402.636V407.136C306.332 407.712 306.056 408 305.504 408ZM317.523 408C316.959 408 316.677 407.712 316.677 407.136V396.264C316.677 395.688 316.959 395.4 317.523 395.4H320.547C321.867 395.4 322.977 395.658 323.877 396.174C324.789 396.69 325.479 397.422 325.947 398.37C326.427 399.306 326.667 400.416 326.667 401.7C326.667 402.972 326.427 404.082 325.947 405.03C325.479 405.978 324.789 406.71 323.877 407.226C322.977 407.742 321.867 408 320.547 408H317.523ZM318.315 406.452H320.439C321.447 406.452 322.281 406.254 322.941 405.858C323.613 405.45 324.117 404.892 324.453 404.184C324.789 403.464 324.957 402.636 324.957 401.7C324.957 400.752 324.789 399.924 324.453 399.216C324.117 398.508 323.613 397.956 322.941 397.56C322.281 397.152 321.447 396.948 320.439 396.948H318.315V406.452ZM327.667 408C327.403 408 327.217 407.922 327.109 407.766C327.013 407.598 327.013 407.376 327.109 407.1L331.429 396.012C331.585 395.604 331.885 395.4 332.329 395.4H332.455C332.899 395.4 333.199 395.604 333.355 396.012L337.675 407.1C337.771 407.376 337.771 407.598 337.675 407.766C337.579 407.922 337.393 408 337.117 408H336.847C336.391 408 336.091 407.79 335.947 407.37L334.975 404.778H329.773L328.783 407.37C328.639 407.79 328.345 408 327.901 408H327.667ZM330.331 403.23H334.417L332.401 397.758L330.331 403.23ZM341.521 408C340.957 408 340.675 407.712 340.675 407.136V396.948H337.579C337.003 396.948 336.715 396.69 336.715 396.174C336.715 395.658 337.003 395.4 337.579 395.4H345.427C345.991 395.4 346.273 395.658 346.273 396.174C346.273 396.69 345.991 396.948 345.427 396.948H342.331V407.136C342.331 407.712 342.061 408 341.521 408ZM348.734 408C348.17 408 347.888 407.712 347.888 407.136V396.264C347.888 395.688 348.17 395.4 348.734 395.4H355.178C355.754 395.4 356.042 395.658 356.042 396.174C356.042 396.69 355.754 396.948 355.178 396.948H349.526V400.782H354.62C355.184 400.782 355.466 401.046 355.466 401.574C355.466 402.09 355.184 402.348 354.62 402.348H349.526V406.452H355.394C355.97 406.452 356.258 406.71 356.258 407.226C356.258 407.742 355.97 408 355.394 408H348.734Z" fill="black"/>
<path d="M257.104 129.1H283.78V136.054L266.965 161.476C266.167 162.692 265.559 163.737 265.141 164.611C264.723 165.485 264.514 166.378 264.514 167.29V169H259.84V166.948C259.84 166.264 259.897 165.618 260.011 165.01C260.163 164.402 260.372 163.794 260.638 163.186C260.942 162.54 261.303 161.875 261.721 161.191C262.177 160.469 262.709 159.652 263.317 158.74L279.676 134.23V133.546H257.104V129.1ZM304.83 169.798C302.816 169.798 300.992 169.532 299.358 169C297.724 168.43 296.318 167.67 295.14 166.72C293.962 165.732 293.05 164.592 292.404 163.3C291.796 161.97 291.492 160.526 291.492 158.968V158.284C291.492 156.916 291.701 155.7 292.119 154.636C292.537 153.572 293.088 152.641 293.772 151.843C294.456 151.045 295.235 150.38 296.109 149.848C297.021 149.316 297.952 148.917 298.902 148.651V147.967C298.028 147.701 297.211 147.302 296.451 146.77C295.691 146.238 295.007 145.611 294.399 144.889C293.829 144.167 293.373 143.35 293.031 142.438C292.689 141.488 292.518 140.462 292.518 139.36V138.676C292.518 137.156 292.822 135.769 293.43 134.515C294.038 133.223 294.893 132.121 295.995 131.209C297.135 130.297 298.465 129.594 299.985 129.1C301.543 128.568 303.272 128.302 305.172 128.302H305.514C307.376 128.302 309.086 128.568 310.644 129.1C312.202 129.594 313.532 130.297 314.634 131.209C315.774 132.121 316.648 133.223 317.256 134.515C317.864 135.769 318.168 137.156 318.168 138.676V139.36C318.168 140.462 317.997 141.488 317.655 142.438C317.313 143.35 316.838 144.167 316.23 144.889C315.66 145.611 314.976 146.238 314.178 146.77C313.418 147.302 312.62 147.701 311.784 147.967V148.651C312.734 148.917 313.646 149.316 314.52 149.848C315.432 150.38 316.23 151.045 316.914 151.843C317.598 152.641 318.149 153.572 318.567 154.636C318.985 155.7 319.194 156.916 319.194 158.284V158.968C319.194 160.526 318.871 161.97 318.225 163.3C317.617 164.592 316.724 165.732 315.546 166.72C314.368 167.67 312.962 168.43 311.328 169C309.694 169.532 307.87 169.798 305.856 169.798H304.83ZM305.685 165.466C308.269 165.466 310.359 164.801 311.955 163.471C313.589 162.141 314.406 160.412 314.406 158.284V157.942C314.406 155.586 313.57 153.762 311.898 152.47C310.264 151.178 308.136 150.532 305.514 150.532H305.172C302.55 150.532 300.403 151.178 298.731 152.47C297.097 153.762 296.28 155.586 296.28 157.942V158.284C296.28 160.412 297.078 162.141 298.674 163.471C300.308 164.801 302.417 165.466 305.001 165.466H305.685ZM305.343 146.086C307.737 146.086 309.675 145.459 311.157 144.205C312.639 142.951 313.38 141.374 313.38 139.474V139.132C313.38 137.194 312.639 135.636 311.157 134.458C309.713 133.242 307.775 132.634 305.343 132.634C302.911 132.634 300.954 133.242 299.472 134.458C298.028 135.636 297.306 137.194 297.306 139.132V139.474C297.306 141.374 298.047 142.951 299.529 144.205C301.011 145.459 302.949 146.086 305.343 146.086ZM331.866 157.372C331.866 159.842 332.626 161.837 334.146 163.357C335.666 164.839 337.775 165.58 340.473 165.58C341.765 165.58 342.943 165.352 344.007 164.896C345.109 164.44 346.04 163.794 346.8 162.958C347.598 162.084 348.206 161.077 348.624 159.937C349.08 158.759 349.308 157.448 349.308 156.004V150.076H348.624C347.75 151.748 346.496 153.059 344.862 154.009C343.228 154.959 341.328 155.434 339.162 155.434C337.3 155.434 335.59 155.149 334.032 154.579C332.474 154.009 331.125 153.173 329.985 152.071C328.845 150.931 327.952 149.563 327.306 147.967C326.698 146.371 326.394 144.547 326.394 142.495V141.811C326.394 139.835 326.736 138.03 327.42 136.396C328.104 134.724 329.054 133.299 330.27 132.121C331.524 130.905 332.987 129.974 334.659 129.328C336.369 128.644 338.231 128.302 340.245 128.302C342.259 128.302 344.102 128.644 345.774 129.328C347.484 129.974 348.947 130.886 350.163 132.064C351.417 133.242 352.386 134.648 353.07 136.282C353.754 137.916 354.096 139.702 354.096 141.64V156.004C354.096 158.132 353.735 160.051 353.013 161.761C352.329 163.433 351.36 164.877 350.106 166.093C348.89 167.271 347.446 168.183 345.774 168.829C344.102 169.475 342.297 169.798 340.359 169.798C338.421 169.798 336.635 169.513 335.001 168.943C333.367 168.373 331.961 167.556 330.783 166.492C329.605 165.39 328.693 164.079 328.047 162.559C327.401 161.001 327.078 159.272 327.078 157.372H331.866ZM340.245 132.52C338.877 132.52 337.623 132.748 336.483 133.204C335.381 133.66 334.431 134.306 333.633 135.142C332.835 135.978 332.227 136.966 331.809 138.106C331.391 139.208 331.182 140.405 331.182 141.697V142.381C331.182 143.711 331.41 144.927 331.866 146.029C332.322 147.093 332.949 148.024 333.747 148.822C334.545 149.582 335.495 150.171 336.597 150.589C337.699 151.007 338.915 151.216 340.245 151.216C341.537 151.216 342.734 151.007 343.836 150.589C344.938 150.133 345.888 149.525 346.686 148.765C347.522 148.005 348.168 147.093 348.624 146.029C349.08 144.965 349.308 143.825 349.308 142.609V141.526C349.308 140.272 349.099 139.094 348.681 137.992C348.263 136.89 347.655 135.94 346.857 135.142C346.059 134.306 345.09 133.66 343.95 133.204C342.848 132.748 341.613 132.52 340.245 132.52ZM374.633 169.798C372.619 169.798 370.795 169.532 369.161 169C367.527 168.43 366.121 167.67 364.943 166.72C363.765 165.732 362.853 164.592 362.207 163.3C361.599 161.97 361.295 160.526 361.295 158.968V158.284C361.295 156.916 361.504 155.7 361.922 154.636C362.34 153.572 362.891 152.641 363.575 151.843C364.259 151.045 365.038 150.38 365.912 149.848C366.824 149.316 367.755 148.917 368.705 148.651V147.967C367.831 147.701 367.014 147.302 366.254 146.77C365.494 146.238 364.81 145.611 364.202 144.889C363.632 144.167 363.176 143.35 362.834 142.438C362.492 141.488 362.321 140.462 362.321 139.36V138.676C362.321 137.156 362.625 135.769 363.233 134.515C363.841 133.223 364.696 132.121 365.798 131.209C366.938 130.297 368.268 129.594 369.788 129.1C371.346 128.568 373.075 128.302 374.975 128.302H375.317C377.179 128.302 378.889 128.568 380.447 129.1C382.005 129.594 383.335 130.297 384.437 131.209C385.577 132.121 386.451 133.223 387.059 134.515C387.667 135.769 387.971 137.156 387.971 138.676V139.36C387.971 140.462 387.8 141.488 387.458 142.438C387.116 143.35 386.641 144.167 386.033 144.889C385.463 145.611 384.779 146.238 383.981 146.77C383.221 147.302 382.423 147.701 381.587 147.967V148.651C382.537 148.917 383.449 149.316 384.323 149.848C385.235 150.38 386.033 151.045 386.717 151.843C387.401 152.641 387.952 153.572 388.37 154.636C388.788 155.7 388.997 156.916 388.997 158.284V158.968C388.997 160.526 388.674 161.97 388.028 163.3C387.42 164.592 386.527 165.732 385.349 166.72C384.171 167.67 382.765 168.43 381.131 169C379.497 169.532 377.673 169.798 375.659 169.798H374.633ZM375.488 165.466C378.072 165.466 380.162 164.801 381.758 163.471C383.392 162.141 384.209 160.412 384.209 158.284V157.942C384.209 155.586 383.373 153.762 381.701 152.47C380.067 151.178 377.939 150.532 375.317 150.532H374.975C372.353 150.532 370.206 151.178 368.534 152.47C366.9 153.762 366.083 155.586 366.083 157.942V158.284C366.083 160.412 366.881 162.141 368.477 163.471C370.111 164.801 372.22 165.466 374.804 165.466H375.488ZM375.146 146.086C377.54 146.086 379.478 145.459 380.96 144.205C382.442 142.951 383.183 141.374 383.183 139.474V139.132C383.183 137.194 382.442 135.636 380.96 134.458C379.516 133.242 377.578 132.634 375.146 132.634C372.714 132.634 370.757 133.242 369.275 134.458C367.831 135.636 367.109 137.194 367.109 139.132V139.474C367.109 141.374 367.85 142.951 369.332 144.205C370.814 145.459 372.752 146.086 375.146 146.086ZM256.42 201.604C256.42 196.436 257.655 192.427 260.125 189.577C262.595 186.727 266.034 185.302 270.442 185.302C274.85 185.302 278.289 186.727 280.759 189.577C283.229 192.427 284.464 196.436 284.464 201.604V210.496C284.464 215.816 283.229 219.863 280.759 222.637C278.289 225.411 274.85 226.798 270.442 226.798C266.034 226.798 262.595 225.411 260.125 222.637C257.655 219.863 256.42 215.816 256.42 210.496V201.604ZM270.442 222.466C273.52 222.466 275.819 221.402 277.339 219.274C278.897 217.108 279.676 214.068 279.676 210.154V201.946C279.676 200.122 279.486 198.469 279.106 196.987C278.726 195.467 278.137 194.175 277.339 193.111C276.579 192.009 275.61 191.154 274.432 190.546C273.292 189.938 271.962 189.634 270.442 189.634C268.884 189.634 267.535 189.938 266.395 190.546C265.255 191.154 264.286 192.009 263.488 193.111C262.728 194.175 262.158 195.467 261.778 196.987C261.398 198.469 261.208 200.122 261.208 201.946V210.154C261.208 214.068 261.968 217.108 263.488 219.274C265.046 221.402 267.364 222.466 270.442 222.466ZM266.794 206.05C266.794 205.062 267.155 204.207 267.877 203.485C268.599 202.763 269.454 202.402 270.442 202.402C271.43 202.402 272.285 202.763 273.007 203.485C273.729 204.207 274.09 205.062 274.09 206.05C274.09 207.038 273.729 207.893 273.007 208.615C272.285 209.337 271.43 209.698 270.442 209.698C269.454 209.698 268.599 209.337 267.877 208.615C267.155 207.893 266.794 207.038 266.794 206.05ZM291.321 201.604C291.321 196.436 292.556 192.427 295.026 189.577C297.496 186.727 300.935 185.302 305.343 185.302C309.751 185.302 313.19 186.727 315.66 189.577C318.13 192.427 319.365 196.436 319.365 201.604V210.496C319.365 215.816 318.13 219.863 315.66 222.637C313.19 225.411 309.751 226.798 305.343 226.798C300.935 226.798 297.496 225.411 295.026 222.637C292.556 219.863 291.321 215.816 291.321 210.496V201.604ZM305.343 222.466C308.421 222.466 310.72 221.402 312.24 219.274C313.798 217.108 314.577 214.068 314.577 210.154V201.946C314.577 200.122 314.387 198.469 314.007 196.987C313.627 195.467 313.038 194.175 312.24 193.111C311.48 192.009 310.511 191.154 309.333 190.546C308.193 189.938 306.863 189.634 305.343 189.634C303.785 189.634 302.436 189.938 301.296 190.546C300.156 191.154 299.187 192.009 298.389 193.111C297.629 194.175 297.059 195.467 296.679 196.987C296.299 198.469 296.109 200.122 296.109 201.946V210.154C296.109 214.068 296.869 217.108 298.389 219.274C299.947 221.402 302.265 222.466 305.343 222.466ZM301.695 206.05C301.695 205.062 302.056 204.207 302.778 203.485C303.5 202.763 304.355 202.402 305.343 202.402C306.331 202.402 307.186 202.763 307.908 203.485C308.63 204.207 308.991 205.062 308.991 206.05C308.991 207.038 308.63 207.893 307.908 208.615C307.186 209.337 306.331 209.698 305.343 209.698C304.355 209.698 303.5 209.337 302.778 208.615C302.056 207.893 301.695 207.038 301.695 206.05ZM338.136 221.554V188.209H337.452L330.897 203.2H326.166V202.858L333.633 186.1H342.924V221.554H354.21V226H326.85V221.554H338.136ZM388.712 221.554V226H361.694V219.16C361.694 217.336 361.998 215.759 362.606 214.429C363.214 213.061 364.069 211.902 365.171 210.952C366.311 209.964 367.679 209.147 369.275 208.501C370.871 207.855 372.676 207.304 374.69 206.848C378.072 206.088 380.504 205.005 381.986 203.599C383.506 202.193 384.266 200.464 384.266 198.412V198.07C384.266 197.044 384.095 196.037 383.753 195.049C383.411 194.061 382.879 193.168 382.157 192.37C381.435 191.572 380.504 190.945 379.364 190.489C378.262 189.995 376.932 189.748 375.374 189.748C372.448 189.748 370.168 190.641 368.534 192.427C366.938 194.213 366.14 196.588 366.14 199.552V202.06H361.352V199.21C361.352 197.386 361.656 195.638 362.264 193.966C362.872 192.294 363.765 190.812 364.943 189.52C366.121 188.228 367.584 187.202 369.332 186.442C371.08 185.682 373.094 185.302 375.374 185.302C377.692 185.302 379.706 185.663 381.416 186.385C383.126 187.069 384.551 188 385.691 189.178C386.831 190.318 387.667 191.629 388.199 193.111C388.769 194.555 389.054 196.037 389.054 197.557V198.583C389.054 201.623 388.104 204.226 386.204 206.392C384.304 208.52 381.264 210.04 377.084 210.952C373.436 211.75 370.757 212.814 369.047 214.144C367.337 215.436 366.482 217.336 366.482 219.844V221.554H388.712ZM257.446 264.19V243.1H282.412V247.546H262.12V261.796H262.804C263.184 261.036 263.678 260.314 264.286 259.63C264.894 258.908 265.597 258.281 266.395 257.749C267.231 257.217 268.162 256.799 269.188 256.495C270.214 256.153 271.354 255.982 272.608 255.982C274.432 255.982 276.104 256.286 277.624 256.894C279.182 257.502 280.512 258.357 281.614 259.459C282.716 260.561 283.571 261.891 284.179 263.449C284.825 265.007 285.148 266.736 285.148 268.636V269.662C285.148 271.562 284.844 273.367 284.236 275.077C283.628 276.749 282.735 278.25 281.557 279.58C280.379 280.872 278.916 281.898 277.168 282.658C275.42 283.418 273.406 283.798 271.126 283.798C268.808 283.798 266.756 283.456 264.97 282.772C263.184 282.088 261.683 281.138 260.467 279.922C259.251 278.706 258.32 277.281 257.674 275.647C257.066 273.975 256.762 272.17 256.762 270.232V268.636H261.55V269.89C261.55 273.044 262.424 275.419 264.172 277.015C265.958 278.573 268.276 279.352 271.126 279.352C272.646 279.352 273.976 279.086 275.116 278.554C276.294 277.984 277.263 277.243 278.023 276.331C278.821 275.381 279.41 274.298 279.79 273.082C280.17 271.828 280.36 270.536 280.36 269.206V268.864C280.36 267.686 280.151 266.584 279.733 265.558C279.353 264.532 278.802 263.639 278.08 262.879C277.396 262.119 276.541 261.53 275.515 261.112C274.527 260.656 273.444 260.428 272.266 260.428C271.468 260.428 270.727 260.542 270.043 260.77C269.397 260.998 268.827 261.302 268.333 261.682C267.839 262.024 267.421 262.423 267.079 262.879C266.775 263.335 266.566 263.772 266.452 264.19H257.446ZM304.659 243.1H313.95V271.03H320.106V275.476H313.95V283H309.162V275.476H290.694V268.864L304.659 243.1ZM294.798 270.346V271.03H309.162V245.152H308.478L294.798 270.346ZM348.624 254.728C348.624 252.258 347.864 250.282 346.344 248.8C344.824 247.28 342.715 246.52 340.017 246.52C338.725 246.52 337.528 246.748 336.426 247.204C335.362 247.66 334.431 248.325 333.633 249.199C332.873 250.035 332.265 251.042 331.809 252.22C331.391 253.398 331.182 254.69 331.182 256.096V262.024H331.866C332.778 260.352 334.07 259.041 335.742 258.091C337.452 257.141 339.352 256.666 341.442 256.666C343.266 256.666 344.957 256.97 346.515 257.578C348.073 258.148 349.403 259.003 350.505 260.143C351.645 261.283 352.519 262.67 353.127 264.304C353.773 265.9 354.096 267.724 354.096 269.776V270.46C354.096 272.436 353.735 274.241 353.013 275.875C352.329 277.509 351.36 278.915 350.106 280.093C348.89 281.271 347.427 282.183 345.717 282.829C344.045 283.475 342.221 283.798 340.245 283.798C338.269 283.798 336.426 283.475 334.716 282.829C333.044 282.183 331.581 281.29 330.327 280.15C329.111 278.972 328.142 277.585 327.42 275.989C326.736 274.355 326.394 272.569 326.394 270.631V256.096C326.394 254.006 326.755 252.106 327.477 250.396C328.199 248.686 329.187 247.242 330.441 246.064C331.695 244.848 333.139 243.917 334.773 243.271C336.445 242.625 338.231 242.302 340.131 242.302C342.031 242.302 343.798 242.587 345.432 243.157C347.066 243.727 348.472 244.563 349.65 245.665C350.828 246.729 351.74 248.04 352.386 249.598C353.07 251.118 353.412 252.828 353.412 254.728H348.624ZM340.245 279.58C341.613 279.58 342.848 279.371 343.95 278.953C345.09 278.497 346.059 277.87 346.857 277.072C347.655 276.274 348.263 275.324 348.681 274.222C349.099 273.12 349.308 271.904 349.308 270.574V269.89C349.308 268.56 349.08 267.344 348.624 266.242C348.168 265.14 347.541 264.19 346.743 263.392C345.945 262.594 344.976 261.986 343.836 261.568C342.734 261.112 341.537 260.884 340.245 260.884C338.953 260.884 337.756 261.112 336.654 261.568C335.552 262.024 334.583 262.651 333.747 263.449C332.949 264.247 332.322 265.178 331.866 266.242C331.41 267.306 331.182 268.446 331.182 269.662V270.745C331.182 271.999 331.391 273.177 331.809 274.279C332.227 275.343 332.835 276.274 333.633 277.072C334.431 277.87 335.381 278.497 336.483 278.953C337.623 279.371 338.877 279.58 340.245 279.58ZM361.124 258.604C361.124 253.436 362.359 249.427 364.829 246.577C367.299 243.727 370.738 242.302 375.146 242.302C379.554 242.302 382.993 243.727 385.463 246.577C387.933 249.427 389.168 253.436 389.168 258.604V267.496C389.168 272.816 387.933 276.863 385.463 279.637C382.993 282.411 379.554 283.798 375.146 283.798C370.738 283.798 367.299 282.411 364.829 279.637C362.359 276.863 361.124 272.816 361.124 267.496V258.604ZM375.146 279.466C378.224 279.466 380.523 278.402 382.043 276.274C383.601 274.108 384.38 271.068 384.38 267.154V258.946C384.38 257.122 384.19 255.469 383.81 253.987C383.43 252.467 382.841 251.175 382.043 250.111C381.283 249.009 380.314 248.154 379.136 247.546C377.996 246.938 376.666 246.634 375.146 246.634C373.588 246.634 372.239 246.938 371.099 247.546C369.959 248.154 368.99 249.009 368.192 250.111C367.432 251.175 366.862 252.467 366.482 253.987C366.102 255.469 365.912 257.122 365.912 258.946V267.154C365.912 271.068 366.672 274.108 368.192 276.274C369.75 278.402 372.068 279.466 375.146 279.466ZM371.498 263.05C371.498 262.062 371.859 261.207 372.581 260.485C373.303 259.763 374.158 259.402 375.146 259.402C376.134 259.402 376.989 259.763 377.711 260.485C378.433 261.207 378.794 262.062 378.794 263.05C378.794 264.038 378.433 264.893 377.711 265.615C376.989 266.337 376.134 266.698 375.146 266.698C374.158 266.698 373.303 266.337 372.581 265.615C371.859 264.893 371.498 264.038 371.498 263.05ZM284.008 335.554V340H256.99V333.16C256.99 331.336 257.294 329.759 257.902 328.429C258.51 327.061 259.365 325.902 260.467 324.952C261.607 323.964 262.975 323.147 264.571 322.501C266.167 321.855 267.972 321.304 269.986 320.848C273.368 320.088 275.8 319.005 277.282 317.599C278.802 316.193 279.562 314.464 279.562 312.412V312.07C279.562 311.044 279.391 310.037 279.049 309.049C278.707 308.061 278.175 307.168 277.453 306.37C276.731 305.572 275.8 304.945 274.66 304.489C273.558 303.995 272.228 303.748 270.67 303.748C267.744 303.748 265.464 304.641 263.83 306.427C262.234 308.213 261.436 310.588 261.436 313.552V316.06H256.648V313.21C256.648 311.386 256.952 309.638 257.56 307.966C258.168 306.294 259.061 304.812 260.239 303.52C261.417 302.228 262.88 301.202 264.628 300.442C266.376 299.682 268.39 299.302 270.67 299.302C272.988 299.302 275.002 299.663 276.712 300.385C278.422 301.069 279.847 302 280.987 303.178C282.127 304.318 282.963 305.629 283.495 307.111C284.065 308.555 284.35 310.037 284.35 311.557V312.583C284.35 315.623 283.4 318.226 281.5 320.392C279.6 322.52 276.56 324.04 272.38 324.952C268.732 325.75 266.053 326.814 264.343 328.144C262.633 329.436 261.778 331.336 261.778 333.844V335.554H284.008ZM301.41 320.164V313.552L314.406 305.23V304.546H291.834V300.1H318.51V307.396L305.514 315.718V316.402H307.794C309.314 316.402 310.777 316.649 312.183 317.143C313.589 317.637 314.824 318.359 315.888 319.309C316.99 320.259 317.864 321.437 318.51 322.843C319.194 324.211 319.536 325.807 319.536 327.631V328.657C319.536 330.367 319.194 331.963 318.51 333.445C317.826 334.927 316.876 336.219 315.66 337.321C314.444 338.385 313 339.24 311.328 339.886C309.694 340.494 307.908 340.798 305.97 340.798C303.728 340.798 301.714 340.456 299.928 339.772C298.142 339.088 296.622 338.157 295.368 336.979C294.114 335.763 293.145 334.357 292.461 332.761C291.815 331.127 291.492 329.398 291.492 327.574V324.496H296.28V327.232C296.28 328.676 296.508 329.968 296.964 331.108C297.458 332.21 298.123 333.16 298.959 333.958C299.833 334.718 300.859 335.307 302.037 335.725C303.215 336.143 304.488 336.352 305.856 336.352C307.11 336.352 308.269 336.143 309.333 335.725C310.435 335.307 311.385 334.737 312.183 334.015C312.981 333.255 313.608 332.381 314.064 331.393C314.52 330.367 314.748 329.284 314.748 328.144V327.802C314.748 325.408 313.988 323.546 312.468 322.216C310.948 320.848 309.048 320.164 306.768 320.164H301.41ZM338.136 335.554V302.209H337.452L330.897 317.2H326.166V316.858L333.633 300.1H342.924V335.554H354.21V340H326.85V335.554H338.136ZM362.15 321.19V300.1H387.116V304.546H366.824V318.796H367.508C367.888 318.036 368.382 317.314 368.99 316.63C369.598 315.908 370.301 315.281 371.099 314.749C371.935 314.217 372.866 313.799 373.892 313.495C374.918 313.153 376.058 312.982 377.312 312.982C379.136 312.982 380.808 313.286 382.328 313.894C383.886 314.502 385.216 315.357 386.318 316.459C387.42 317.561 388.275 318.891 388.883 320.449C389.529 322.007 389.852 323.736 389.852 325.636V326.662C389.852 328.562 389.548 330.367 388.94 332.077C388.332 333.749 387.439 335.25 386.261 336.58C385.083 337.872 383.62 338.898 381.872 339.658C380.124 340.418 378.11 340.798 375.83 340.798C373.512 340.798 371.46 340.456 369.674 339.772C367.888 339.088 366.387 338.138 365.171 336.922C363.955 335.706 363.024 334.281 362.378 332.647C361.77 330.975 361.466 329.17 361.466 327.232V325.636H366.254V326.89C366.254 330.044 367.128 332.419 368.876 334.015C370.662 335.573 372.98 336.352 375.83 336.352C377.35 336.352 378.68 336.086 379.82 335.554C380.998 334.984 381.967 334.243 382.727 333.331C383.525 332.381 384.114 331.298 384.494 330.082C384.874 328.828 385.064 327.536 385.064 326.206V325.864C385.064 324.686 384.855 323.584 384.437 322.558C384.057 321.532 383.506 320.639 382.784 319.879C382.1 319.119 381.245 318.53 380.219 318.112C379.231 317.656 378.148 317.428 376.97 317.428C376.172 317.428 375.431 317.542 374.747 317.77C374.101 317.998 373.531 318.302 373.037 318.682C372.543 319.024 372.125 319.423 371.783 319.879C371.479 320.335 371.27 320.772 371.156 321.19H362.15Z" fill="black"/>
<path d="M259.57 105.27C258.43 105.27 257.422 105 256.546 104.46C255.67 103.92 254.98 103.158 254.476 102.174C253.984 101.19 253.738 100.032 253.738 98.7C253.738 97.368 253.984 96.21 254.476 95.226C254.98 94.23 255.67 93.462 256.546 92.922C257.422 92.37 258.43 92.094 259.57 92.094C260.446 92.094 261.244 92.256 261.964 92.58C262.684 92.904 263.302 93.366 263.818 93.966C264.01 94.17 264.07 94.38 263.998 94.596C263.938 94.8 263.812 94.968 263.62 95.1L263.548 95.136C263.416 95.22 263.236 95.256 263.008 95.244C262.792 95.22 262.588 95.118 262.396 94.938C261.688 94.134 260.746 93.732 259.57 93.732C258.754 93.732 258.034 93.936 257.41 94.344C256.798 94.752 256.318 95.328 255.97 96.072C255.622 96.804 255.448 97.68 255.448 98.7C255.448 99.708 255.622 100.584 255.97 101.328C256.318 102.06 256.798 102.63 257.41 103.038C258.034 103.446 258.754 103.65 259.57 103.65C260.722 103.65 261.664 103.248 262.396 102.444C262.588 102.264 262.78 102.162 262.972 102.138C263.176 102.114 263.368 102.15 263.548 102.246L263.584 102.264C263.788 102.372 263.926 102.534 263.998 102.75C264.07 102.966 264.016 103.176 263.836 103.38C263.32 103.98 262.696 104.448 261.964 104.784C261.244 105.108 260.446 105.27 259.57 105.27ZM265.886 105C265.622 105 265.436 104.922 265.328 104.766C265.232 104.598 265.232 104.376 265.328 104.1L269.648 93.012C269.804 92.604 270.104 92.4 270.548 92.4H270.674C271.118 92.4 271.418 92.604 271.574 93.012L275.894 104.1C275.99 104.376 275.99 104.598 275.894 104.766C275.798 104.922 275.612 105 275.336 105H275.066C274.61 105 274.31 104.79 274.166 104.37L273.194 101.778H267.992L267.002 104.37C266.858 104.79 266.564 105 266.12 105H265.886ZM268.55 100.23H272.636L270.62 94.758L268.55 100.23ZM278.347 105C277.807 105 277.537 104.712 277.537 104.136V93.246C277.537 92.682 277.819 92.4 278.383 92.4H283.171C284.359 92.4 285.277 92.676 285.925 93.228C286.585 93.78 286.915 94.656 286.915 95.856C286.915 96.924 286.657 97.74 286.141 98.304C285.625 98.868 284.875 99.198 283.891 99.294L286.321 103.992C286.465 104.292 286.495 104.538 286.411 104.73C286.327 104.91 286.147 105 285.871 105H285.619C285.139 105 284.803 104.784 284.611 104.352L282.163 99.366H279.175V104.136C279.175 104.712 278.899 105 278.347 105ZM279.175 97.8H282.973C283.693 97.8 284.239 97.65 284.611 97.35C284.995 97.038 285.187 96.54 285.187 95.856C285.187 95.184 284.995 94.698 284.611 94.398C284.239 94.098 283.693 93.948 282.973 93.948H279.175V97.8ZM289.554 105C288.99 105 288.708 104.712 288.708 104.136V93.264C288.708 92.688 288.99 92.4 289.554 92.4H292.578C293.898 92.4 295.008 92.658 295.908 93.174C296.82 93.69 297.51 94.422 297.978 95.37C298.458 96.306 298.698 97.416 298.698 98.7C298.698 99.972 298.458 101.082 297.978 102.03C297.51 102.978 296.82 103.71 295.908 104.226C295.008 104.742 293.898 105 292.578 105H289.554ZM290.346 103.452H292.47C293.478 103.452 294.312 103.254 294.972 102.858C295.644 102.45 296.148 101.892 296.484 101.184C296.82 100.464 296.988 99.636 296.988 98.7C296.988 97.752 296.82 96.924 296.484 96.216C296.148 95.508 295.644 94.956 294.972 94.56C294.312 94.152 293.478 93.948 292.47 93.948H290.346V103.452ZM305.955 105C305.415 105 305.145 104.712 305.145 104.136V93.264C305.145 92.688 305.415 92.4 305.955 92.4H306.135C306.567 92.4 306.909 92.586 307.161 92.958L313.245 102.102V93.264C313.245 92.688 313.527 92.4 314.091 92.4C314.631 92.4 314.901 92.688 314.901 93.264V104.136C314.901 104.712 314.637 105 314.109 105H313.983C313.515 105 313.173 104.814 312.957 104.442L306.783 95.118V104.136C306.783 104.712 306.507 105 305.955 105ZM321.818 105.216C320.294 105.216 319.13 104.796 318.326 103.956C317.522 103.104 317.12 101.844 317.12 100.176V93.264C317.12 92.688 317.402 92.4 317.966 92.4C318.518 92.4 318.794 92.688 318.794 93.264V100.104C318.794 101.268 319.052 102.144 319.568 102.732C320.096 103.32 320.846 103.614 321.818 103.614C322.79 103.614 323.534 103.32 324.05 102.732C324.566 102.144 324.824 101.268 324.824 100.104V93.264C324.824 92.688 325.106 92.4 325.67 92.4C326.222 92.4 326.498 92.688 326.498 93.264V100.176C326.498 101.844 326.096 103.104 325.292 103.956C324.488 104.796 323.33 105.216 321.818 105.216ZM329.581 105C329.029 105 328.753 104.712 328.753 104.136V93.264C328.753 92.94 328.831 92.718 328.987 92.598C329.155 92.466 329.401 92.4 329.725 92.4C330.169 92.4 330.505 92.592 330.733 92.976L334.315 98.646L337.861 92.994C337.993 92.754 338.149 92.598 338.329 92.526C338.521 92.442 338.755 92.4 339.031 92.4C339.607 92.4 339.895 92.688 339.895 93.264V104.136C339.895 104.712 339.613 105 339.049 105C338.485 105 338.203 104.712 338.203 104.136V95.262L335.125 100.23C334.921 100.614 334.651 100.806 334.315 100.806C333.991 100.806 333.715 100.614 333.487 100.23L330.409 95.262V104.136C330.409 104.712 330.133 105 329.581 105ZM343.071 105C342.555 105 342.297 104.736 342.297 104.208V93.192C342.297 92.664 342.555 92.4 343.071 92.4H347.283C348.399 92.4 349.269 92.676 349.893 93.228C350.529 93.768 350.847 94.554 350.847 95.586C350.847 96.294 350.685 96.888 350.361 97.368C350.037 97.848 349.611 98.184 349.083 98.376C349.767 98.532 350.325 98.91 350.757 99.51C351.201 100.098 351.423 100.8 351.423 101.616C351.423 102.744 351.087 103.59 350.415 104.154C349.755 104.718 348.789 105 347.517 105H343.071ZM343.935 103.452H347.319C348.135 103.452 348.729 103.29 349.101 102.966C349.473 102.63 349.659 102.114 349.659 101.418C349.659 100.746 349.437 100.224 348.993 99.852C348.549 99.48 347.985 99.294 347.301 99.294H343.935V103.452ZM343.935 97.728H347.103C347.739 97.728 348.225 97.554 348.561 97.206C348.897 96.858 349.065 96.396 349.065 95.82C349.065 94.572 348.375 93.948 346.995 93.948H343.935V97.728ZM354.191 105C353.627 105 353.345 104.712 353.345 104.136V93.264C353.345 92.688 353.627 92.4 354.191 92.4H360.635C361.211 92.4 361.499 92.658 361.499 93.174C361.499 93.69 361.211 93.948 360.635 93.948H354.983V97.782H360.077C360.641 97.782 360.923 98.046 360.923 98.574C360.923 99.09 360.641 99.348 360.077 99.348H354.983V103.452H360.851C361.427 103.452 361.715 103.71 361.715 104.226C361.715 104.742 361.427 105 360.851 105H354.191ZM364.289 105C363.749 105 363.479 104.712 363.479 104.136V93.246C363.479 92.682 363.761 92.4 364.325 92.4H369.113C370.301 92.4 371.219 92.676 371.867 93.228C372.527 93.78 372.857 94.656 372.857 95.856C372.857 96.924 372.599 97.74 372.083 98.304C371.567 98.868 370.817 99.198 369.833 99.294L372.263 103.992C372.407 104.292 372.437 104.538 372.353 104.73C372.269 104.91 372.089 105 371.813 105H371.561C371.081 105 370.745 104.784 370.553 104.352L368.105 99.366H365.117V104.136C365.117 104.712 364.841 105 364.289 105ZM365.117 97.8H368.915C369.635 97.8 370.181 97.65 370.553 97.35C370.937 97.038 371.129 96.54 371.129 95.856C371.129 95.184 370.937 94.698 370.553 94.398C370.181 94.098 369.635 93.948 368.915 93.948H365.117V97.8Z" fill="black"/>
<rect x="52" width="88" height="763" fill="#222222"/>
</svg>
