<svg width="470" height="763" viewBox="0 0 470 763" fill="none" xmlns="http://www.w3.org/2000/svg">
<rect x="-6.10352e-05" width="470" height="763" rx="20" fill="#50DBB4"/>
<path d="M155.488 515.487C134.541 503.952 109.094 494.819 93.7326 472.388C78.816 450.607 68.5401 422.278 71.2853 395.971C75.7433 353.253 126.646 318.853 160.583 354.198C166.271 360.122 195.685 426.774 175.027 417.848C145.711 405.182 143.744 347.233 150.441 322.935C157.838 296.099 201.825 236.612 233.033 260.932C242.185 268.064 243.933 284.87 244.305 295.607C244.379 297.718 243.102 317.978 238.459 306.743C223.294 270.047 251.22 219.009 277.843 208.747C315.024 194.417 354.085 213.487 364.636 261.13" stroke="black" stroke-width="3" stroke-linecap="round"/>
<path d="M-6.10352e-05 429H470V743C470 754.046 461.046 763 450 763H19.9999C8.95424 763 -6.10352e-05 754.046 -6.10352e-05 743V429Z" fill="#2E3339"/>
<path d="M355.833 119.5C355.833 120.996 357.046 122.208 358.542 122.208C360.037 122.208 361.25 120.996 361.25 119.5C361.25 118.004 360.037 116.792 358.542 116.792C357.046 116.792 355.833 118.004 355.833 119.5Z" fill="black"/>
<path d="M372.083 119.5C372.083 115.995 370.724 112.626 368.292 110.102C367.792 109.585 367.108 109.287 366.39 109.275C365.671 109.262 364.977 109.535 364.459 110.034C363.942 110.534 363.645 111.218 363.632 111.937C363.619 112.655 363.892 113.35 364.392 113.867C365.8 115.405 366.581 117.415 366.581 119.5C366.581 121.585 365.8 123.595 364.392 125.133C363.892 125.651 363.619 126.345 363.632 127.064C363.645 127.782 363.942 128.466 364.459 128.966C364.977 129.465 365.671 129.738 366.39 129.725C367.108 129.713 367.792 129.415 368.292 128.898C370.724 126.374 372.083 123.005 372.083 119.5V119.5ZM385.625 119.5C385.623 116.229 384.962 112.992 383.683 109.981C382.403 106.971 380.531 104.249 378.177 101.977C377.916 101.73 377.608 101.537 377.272 101.408C376.936 101.28 376.578 101.219 376.218 101.229C375.859 101.239 375.504 101.32 375.176 101.467C374.848 101.614 374.551 101.824 374.304 102.085C373.805 102.613 373.536 103.318 373.556 104.044C373.566 104.404 373.647 104.758 373.794 105.087C373.941 105.415 374.151 105.711 374.412 105.958C376.247 107.727 377.707 109.847 378.704 112.192C379.7 114.538 380.214 117.06 380.214 119.608C380.214 122.157 379.7 124.679 378.704 127.024C377.707 129.37 376.247 131.49 374.412 133.258C374.157 133.509 373.953 133.808 373.814 134.138C373.674 134.468 373.601 134.823 373.6 135.181C373.602 135.711 373.759 136.228 374.052 136.669C374.344 137.11 374.76 137.455 375.247 137.663C375.734 137.87 376.271 137.93 376.792 137.836C377.312 137.741 377.794 137.496 378.177 137.131C380.544 134.847 382.424 132.107 383.704 129.077C384.984 126.047 385.637 122.789 385.625 119.5Z" fill="black"/>
<path d="M388.523 145.825C395.341 138.757 399.151 129.32 399.151 119.5C399.151 109.68 395.341 100.243 388.523 93.175C388.015 92.718 387.352 92.47 386.669 92.4808C385.986 92.4916 385.331 92.7605 384.838 93.2334C384.344 93.7064 384.048 94.3484 384.008 95.0308C383.968 95.7131 384.188 96.3853 384.623 96.9125C390.481 102.973 393.755 111.072 393.755 119.5C393.755 127.929 390.481 136.027 384.623 142.088C384.139 142.59 383.867 143.259 383.865 143.956C383.866 144.321 383.941 144.682 384.085 145.017C384.23 145.352 384.44 145.655 384.704 145.906C385.222 146.4 385.915 146.669 386.63 146.653C387.346 146.638 388.026 146.34 388.523 145.825V145.825Z" fill="black"/>
<path d="M58.5599 92.44C56.1546 92.44 54.1453 91.9267 52.5319 90.9C50.9186 89.8733 50.1119 88.5387 50.1119 86.896C50.1119 86.0453 50.3319 85.3853 50.7719 84.916C51.2413 84.4173 51.8573 84.168 52.6199 84.168C53.2066 84.168 53.7053 84.3147 54.1159 84.608C54.5266 84.9013 54.8199 85.312 54.9959 85.84C54.3506 86.544 54.0279 87.292 54.0279 88.084C54.0279 88.9933 54.4386 89.7853 55.2599 90.46C56.0813 91.1347 57.1813 91.472 58.5599 91.472C60.4079 91.472 61.9186 91.0613 63.0919 90.24C64.2653 89.3893 64.8519 88.26 64.8519 86.852C64.8519 86.0307 64.6026 85.4147 64.1039 85.004C63.6053 84.5933 62.6373 84.124 61.1999 83.596L54.5559 81.176C51.9453 80.2373 50.6399 78.492 50.6399 75.94C50.6399 73.8573 51.3586 72.156 52.7959 70.836C54.2333 69.4867 56.2133 68.812 58.7359 68.812C60.8186 68.812 62.5933 69.296 64.0599 70.264C65.5559 71.2027 66.3039 72.552 66.3039 74.312C66.3039 75.016 66.1133 75.588 65.7319 76.028C65.3506 76.4387 64.8519 76.644 64.2359 76.644C63.6199 76.644 63.1066 76.4827 62.6959 76.16C62.3146 75.808 62.1239 75.3387 62.1239 74.752C62.5053 74.4587 62.7693 74.1507 62.9159 73.828C63.0626 73.476 63.1359 73.0653 63.1359 72.596C63.1359 71.7747 62.7693 71.1 62.0359 70.572C61.3319 70.044 60.2319 69.78 58.7359 69.78C57.4453 69.78 56.3306 69.9853 55.3919 70.396C54.4826 70.7773 53.7933 71.2907 53.3239 71.936C52.8546 72.5813 52.6199 73.2413 52.6199 73.916C52.6199 74.62 52.8693 75.1773 53.3679 75.588C53.8959 75.9987 54.8493 76.4533 56.2279 76.952L62.3879 79.152C63.8253 79.68 64.9106 80.4133 65.6439 81.352C66.3773 82.2907 66.7439 83.508 66.7439 85.004C66.7439 87.1453 66.0693 88.92 64.7199 90.328C63.3706 91.736 61.3173 92.44 58.5599 92.44ZM78.3417 92.44C76.4057 92.44 74.8511 91.956 73.6777 90.988C72.5337 90.02 71.9617 88.48 71.9617 86.368V70.528L68.8377 70.088V69.208H71.9617V65.556L76.3617 64.456V69.208H82.0817V70.088L76.3617 70.528V86.28C76.3617 89.3893 77.4764 90.944 79.7057 90.944C80.1751 90.944 80.6151 90.8707 81.0257 90.724C81.4657 90.5773 81.8031 90.4307 82.0377 90.284C82.3017 90.1373 82.4631 90.0347 82.5217 89.976L83.0937 90.68C81.7737 91.8533 80.1897 92.44 78.3417 92.44ZM93.0676 92.44C90.9556 92.44 89.2836 91.912 88.0516 90.856C86.849 89.8 86.2476 88.2307 86.2476 86.148V70.528L83.1676 70.088V69.208H90.6476V86.06C90.6476 87.556 90.9556 88.7293 91.5716 89.58C92.1876 90.4307 93.141 90.856 94.4316 90.856C95.781 90.856 97.0716 90.416 98.3036 89.536C99.565 88.6267 100.68 87.512 101.648 86.192V70.528L98.5676 70.088V69.208H106.048V90.68L109.128 91.12V92H101.648V87.776C100.592 89.2427 99.3156 90.3867 97.8196 91.208C96.353 92.0293 94.769 92.44 93.0676 92.44ZM119.9 92.44C117.495 92.44 115.486 91.9267 113.872 90.9C112.259 89.8733 111.452 88.5387 111.452 86.896C111.452 86.0453 111.672 85.3853 112.112 84.916C112.582 84.4173 113.198 84.168 113.96 84.168C114.547 84.168 115.046 84.3147 115.456 84.608C115.867 84.9013 116.16 85.312 116.336 85.84C115.691 86.544 115.368 87.292 115.368 88.084C115.368 88.9933 115.779 89.7853 116.6 90.46C117.422 91.1347 118.522 91.472 119.9 91.472C121.748 91.472 123.259 91.0613 124.432 90.24C125.606 89.3893 126.192 88.26 126.192 86.852C126.192 86.0307 125.943 85.4147 125.444 85.004C124.946 84.5933 123.978 84.124 122.54 83.596L115.896 81.176C113.286 80.2373 111.98 78.492 111.98 75.94C111.98 73.8573 112.699 72.156 114.136 70.836C115.574 69.4867 117.554 68.812 120.076 68.812C122.159 68.812 123.934 69.296 125.4 70.264C126.896 71.2027 127.644 72.552 127.644 74.312C127.644 75.016 127.454 75.588 127.072 76.028C126.691 76.4387 126.192 76.644 125.576 76.644C124.96 76.644 124.447 76.4827 124.036 76.16C123.655 75.808 123.464 75.3387 123.464 74.752C123.846 74.4587 124.11 74.1507 124.256 73.828C124.403 73.476 124.476 73.0653 124.476 72.596C124.476 71.7747 124.11 71.1 123.376 70.572C122.672 70.044 121.572 69.78 120.076 69.78C118.786 69.78 117.671 69.9853 116.732 70.396C115.823 70.7773 115.134 71.2907 114.664 71.936C114.195 72.5813 113.96 73.2413 113.96 73.916C113.96 74.62 114.21 75.1773 114.708 75.588C115.236 75.9987 116.19 76.4533 117.568 76.952L123.728 79.152C125.166 79.68 126.251 80.4133 126.984 81.352C127.718 82.2907 128.084 83.508 128.084 85.004C128.084 87.1453 127.41 88.92 126.06 90.328C124.711 91.736 122.658 92.44 119.9 92.44ZM139.682 92.44C137.746 92.44 136.192 91.956 135.018 90.988C133.874 90.02 133.302 88.48 133.302 86.368V70.528L130.178 70.088V69.208H133.302V65.556L137.702 64.456V69.208H143.422V70.088L137.702 70.528V86.28C137.702 89.3893 138.817 90.944 141.046 90.944C141.516 90.944 141.956 90.8707 142.366 90.724C142.806 90.5773 143.144 90.4307 143.378 90.284C143.642 90.1373 143.804 90.0347 143.862 89.976L144.434 90.68C143.114 91.8533 141.53 92.44 139.682 92.44Z" fill="black"/>
<path d="M60.2647 502C59.2834 502 58.7927 501.488 58.7927 500.464V481.136C58.7927 480.56 58.9314 480.165 59.2087 479.952C59.5074 479.717 59.9447 479.6 60.5207 479.6C61.31 479.6 61.9074 479.941 62.3127 480.624L68.6807 490.704L74.9847 480.656C75.2194 480.229 75.4967 479.952 75.8167 479.824C76.158 479.675 76.574 479.6 77.0647 479.6C78.0887 479.6 78.6007 480.112 78.6007 481.136V500.464C78.6007 501.488 78.0994 502 77.0967 502C76.094 502 75.5927 501.488 75.5927 500.464V484.688L70.1207 493.52C69.758 494.203 69.278 494.544 68.6807 494.544C68.1047 494.544 67.614 494.203 67.2087 493.52L61.7367 484.688V500.464C61.7367 501.488 61.246 502 60.2647 502ZM89.0794 502.352C87.6288 502.352 86.3488 502.043 85.2394 501.424C84.1301 500.805 83.2661 499.899 82.6474 498.704C82.0288 497.488 81.7194 496.027 81.7194 494.32C81.7194 492.677 82.0288 491.259 82.6474 490.064C83.2661 488.848 84.1088 487.909 85.1754 487.248C86.2634 486.587 87.5114 486.256 88.9194 486.256C90.3274 486.256 91.5221 486.597 92.5034 487.28C93.5061 487.941 94.2634 488.795 94.7754 489.84C95.3088 490.885 95.5754 491.963 95.5754 493.072C95.5754 493.691 95.4474 494.107 95.1914 494.32C94.9354 494.512 94.5621 494.608 94.0714 494.608H84.5354C84.5781 496.315 85.0048 497.616 85.8154 498.512C86.6474 499.387 87.7461 499.824 89.1114 499.824C90.7328 499.824 91.9594 499.173 92.7914 497.872C93.1328 497.509 93.4528 497.275 93.7514 497.168C94.0501 497.04 94.3701 497.093 94.7114 497.328C95.0741 497.563 95.2768 497.861 95.3194 498.224C95.3834 498.587 95.2448 498.981 94.9034 499.408C94.1994 500.411 93.3568 501.157 92.3754 501.648C91.4154 502.117 90.3168 502.352 89.0794 502.352ZM84.6954 492.304H92.7594C92.5888 491.195 92.1621 490.299 91.4794 489.616C90.7968 488.933 89.9328 488.592 88.8874 488.592C87.7781 488.592 86.8608 488.912 86.1354 489.552C85.4101 490.171 84.9301 491.088 84.6954 492.304ZM100.07 502C99.1102 502 98.6302 501.488 98.6302 500.464V480.56C98.6302 479.557 99.1102 479.056 100.07 479.056C101.03 479.056 101.51 479.557 101.51 480.56V500.464C101.51 501.488 101.03 502 100.07 502ZM107.098 502C106.138 502 105.658 501.488 105.658 500.464V488.144C105.658 487.141 106.138 486.64 107.098 486.64C108.037 486.64 108.506 487.141 108.506 488.144V500.464C108.506 501.488 108.037 502 107.098 502ZM107.066 483.76C106.533 483.76 106.074 483.579 105.69 483.216C105.328 482.832 105.146 482.373 105.146 481.84C105.146 481.307 105.328 480.859 105.69 480.496C106.074 480.112 106.533 479.92 107.066 479.92C107.578 479.92 108.016 480.112 108.378 480.496C108.762 480.859 108.954 481.307 108.954 481.84C108.954 482.373 108.762 482.832 108.378 483.216C108.016 483.579 107.578 483.76 107.066 483.76ZM114.071 502C113.111 502 112.631 501.488 112.631 500.464V488.144C112.631 487.141 113.069 486.64 113.943 486.64C114.839 486.64 115.298 486.896 115.319 487.408L115.383 488.624C115.831 487.984 116.429 487.429 117.175 486.96C117.943 486.491 118.818 486.256 119.799 486.256C121.421 486.256 122.733 486.779 123.735 487.824C124.759 488.848 125.271 490.341 125.271 492.304V500.464C125.271 501.488 124.791 502 123.831 502C122.893 502 122.423 501.488 122.423 500.464V492.912C122.423 491.568 122.125 490.565 121.527 489.904C120.93 489.221 120.151 488.88 119.191 488.88C118.103 488.88 117.218 489.243 116.535 489.968C115.853 490.672 115.511 491.621 115.511 492.816V500.464C115.511 501.488 115.031 502 114.071 502ZM133.568 502.256C132.011 502.299 130.72 501.947 129.696 501.2C128.694 500.432 128.192 499.333 128.192 497.904C128.192 496.859 128.523 495.952 129.184 495.184C129.867 494.416 130.731 493.819 131.776 493.392C132.843 492.944 133.942 492.72 135.072 492.72C135.734 492.677 136.342 492.741 136.896 492.912C137.451 493.061 137.931 493.285 138.336 493.584V491.664C138.336 490.469 138.08 489.691 137.568 489.328C137.078 488.965 136.31 488.784 135.264 488.784C134.603 488.784 133.899 488.88 133.152 489.072C132.427 489.243 131.744 489.477 131.104 489.776C130.656 489.947 130.272 490.011 129.952 489.968C129.632 489.904 129.366 489.701 129.152 489.36C128.939 488.997 128.886 488.656 128.992 488.336C129.12 487.995 129.408 487.728 129.856 487.536C130.646 487.152 131.51 486.843 132.448 486.608C133.408 486.373 134.347 486.256 135.264 486.256C137.227 486.256 138.688 486.651 139.648 487.44C140.608 488.208 141.088 489.616 141.088 491.664V499.376C141.088 499.717 141.11 499.941 141.152 500.048C141.216 500.133 141.355 500.208 141.568 500.272C141.824 500.357 142.102 500.432 142.4 500.496C142.699 500.539 142.848 500.645 142.848 500.816C142.848 501.52 142.486 501.947 141.76 502.096C141.291 502.203 140.864 502.256 140.48 502.256C139.798 502.256 139.307 502.128 139.008 501.872C138.71 501.616 138.507 501.157 138.4 500.496C137.824 501.072 137.099 501.499 136.224 501.776C135.35 502.053 134.464 502.213 133.568 502.256ZM133.6 499.728C134.496 499.707 135.307 499.579 136.032 499.344C136.779 499.088 137.366 498.736 137.792 498.288C138.219 497.819 138.411 497.264 138.368 496.624C138.326 496.027 138.016 495.6 137.44 495.344C136.886 495.088 136.171 494.981 135.296 495.024C134.507 495.045 133.782 495.195 133.12 495.472C132.459 495.728 131.926 496.069 131.52 496.496C131.136 496.923 130.944 497.403 130.944 497.936C130.966 498.533 131.211 498.992 131.68 499.312C132.15 499.611 132.79 499.749 133.6 499.728ZM161.838 502.416C160.281 502.416 158.83 502.16 157.486 501.648C156.163 501.136 155.022 500.304 154.062 499.152C153.763 498.747 153.646 498.373 153.71 498.032C153.795 497.669 154.041 497.371 154.446 497.136C154.83 496.901 155.182 496.827 155.502 496.912C155.843 496.976 156.185 497.189 156.526 497.552C157.166 498.213 157.934 498.725 158.83 499.088C159.726 499.429 160.761 499.6 161.934 499.6C163.427 499.6 164.59 499.301 165.422 498.704C166.254 498.107 166.67 497.232 166.67 496.08C166.67 495.397 166.521 494.811 166.222 494.32C165.923 493.808 165.326 493.349 164.43 492.944C163.534 492.539 162.179 492.155 160.366 491.792C156.249 490.896 154.19 488.795 154.19 485.488C154.19 484.208 154.499 483.088 155.118 482.128C155.737 481.168 156.601 480.421 157.71 479.888C158.819 479.333 160.11 479.056 161.582 479.056C163.033 479.056 164.334 479.312 165.486 479.824C166.638 480.315 167.651 480.965 168.526 481.776C168.846 482.117 168.985 482.469 168.942 482.832C168.899 483.195 168.697 483.525 168.334 483.824C167.95 484.123 167.587 484.251 167.246 484.208C166.926 484.165 166.585 483.973 166.222 483.632C165.582 483.099 164.889 482.683 164.142 482.384C163.395 482.064 162.531 481.904 161.55 481.904C160.313 481.904 159.278 482.203 158.446 482.8C157.635 483.376 157.23 484.229 157.23 485.36C157.23 485.957 157.358 486.501 157.614 486.992C157.891 487.461 158.393 487.877 159.118 488.24C159.843 488.603 160.899 488.933 162.286 489.232C164.931 489.787 166.83 490.619 167.982 491.728C169.155 492.837 169.742 494.277 169.742 496.048C169.742 497.413 169.401 498.576 168.718 499.536C168.057 500.475 167.129 501.189 165.934 501.68C164.761 502.171 163.395 502.416 161.838 502.416ZM174.324 502C173.364 502 172.884 501.488 172.884 500.464V480.56C172.884 479.557 173.364 479.056 174.324 479.056C175.284 479.056 175.764 479.557 175.764 480.56V488.624C176.148 487.984 176.713 487.429 177.46 486.96C178.207 486.491 179.071 486.256 180.052 486.256C181.673 486.256 182.985 486.779 183.988 487.824C185.012 488.848 185.524 490.341 185.524 492.304V500.464C185.524 501.488 185.044 502 184.084 502C183.145 502 182.676 501.488 182.676 500.464V492.912C182.676 491.568 182.377 490.565 181.78 489.904C181.183 489.221 180.404 488.88 179.444 488.88C178.356 488.88 177.471 489.243 176.788 489.968C176.105 490.672 175.764 491.621 175.764 492.816V500.464C175.764 501.488 175.284 502 174.324 502ZM193.821 502.256C192.263 502.299 190.973 501.947 189.949 501.2C188.946 500.432 188.445 499.333 188.445 497.904C188.445 496.859 188.775 495.952 189.437 495.184C190.119 494.416 190.983 493.819 192.029 493.392C193.095 492.944 194.194 492.72 195.325 492.72C195.986 492.677 196.594 492.741 197.149 492.912C197.703 493.061 198.183 493.285 198.589 493.584V491.664C198.589 490.469 198.333 489.691 197.821 489.328C197.33 488.965 196.562 488.784 195.517 488.784C194.855 488.784 194.151 488.88 193.405 489.072C192.679 489.243 191.997 489.477 191.357 489.776C190.909 489.947 190.525 490.011 190.205 489.968C189.885 489.904 189.618 489.701 189.405 489.36C189.191 488.997 189.138 488.656 189.245 488.336C189.373 487.995 189.661 487.728 190.109 487.536C190.898 487.152 191.762 486.843 192.701 486.608C193.661 486.373 194.599 486.256 195.517 486.256C197.479 486.256 198.941 486.651 199.901 487.44C200.861 488.208 201.341 489.616 201.341 491.664V499.376C201.341 499.717 201.362 499.941 201.405 500.048C201.469 500.133 201.607 500.208 201.821 500.272C202.077 500.357 202.354 500.432 202.653 500.496C202.951 500.539 203.101 500.645 203.101 500.816C203.101 501.52 202.738 501.947 202.013 502.096C201.543 502.203 201.117 502.256 200.733 502.256C200.05 502.256 199.559 502.128 199.261 501.872C198.962 501.616 198.759 501.157 198.653 500.496C198.077 501.072 197.351 501.499 196.477 501.776C195.602 502.053 194.717 502.213 193.821 502.256ZM193.853 499.728C194.749 499.707 195.559 499.579 196.285 499.344C197.031 499.088 197.618 498.736 198.045 498.288C198.471 497.819 198.663 497.264 198.621 496.624C198.578 496.027 198.269 495.6 197.693 495.344C197.138 495.088 196.423 494.981 195.549 495.024C194.759 495.045 194.034 495.195 193.373 495.472C192.711 495.728 192.178 496.069 191.773 496.496C191.389 496.923 191.197 497.403 191.197 497.936C191.218 498.533 191.463 498.992 191.933 499.312C192.402 499.611 193.042 499.749 193.853 499.728ZM206.481 508.624C206.31 508.624 206.129 508.613 205.937 508.592C205.766 508.592 205.595 508.581 205.425 508.56C204.955 508.517 204.603 508.357 204.369 508.08C204.134 507.824 204.017 507.483 204.017 507.056C204.017 506.224 204.347 505.84 205.009 505.904C205.393 505.968 205.798 506 206.225 506C207.035 506 207.601 505.84 207.921 505.52C208.241 505.2 208.561 504.635 208.881 503.824L209.585 501.968L204.209 488.368C203.995 487.835 203.963 487.419 204.113 487.12C204.283 486.8 204.593 486.64 205.041 486.64H205.201C206.075 486.64 206.651 487.045 206.929 487.856L210.833 498.48L214.577 487.856C214.833 487.045 215.409 486.64 216.305 486.64C216.795 486.64 217.126 486.8 217.297 487.12C217.489 487.419 217.489 487.835 217.297 488.368L211.345 504.688C210.875 505.989 210.278 506.971 209.553 507.632C208.849 508.293 207.825 508.624 206.481 508.624ZM221.623 502C220.663 502 220.183 501.488 220.183 500.464V488.144C220.183 487.141 220.62 486.64 221.495 486.64C222.391 486.64 222.849 486.896 222.871 487.408L222.935 488.624C223.383 487.984 223.98 487.429 224.727 486.96C225.495 486.491 226.369 486.256 227.351 486.256C228.972 486.256 230.284 486.779 231.287 487.824C232.311 488.848 232.823 490.341 232.823 492.304V500.464C232.823 501.488 232.343 502 231.383 502C230.444 502 229.975 501.488 229.975 500.464V492.912C229.975 491.568 229.676 490.565 229.079 489.904C228.481 489.221 227.703 488.88 226.743 488.88C225.655 488.88 224.769 489.243 224.087 489.968C223.404 490.672 223.063 491.621 223.063 492.816V500.464C223.063 501.488 222.583 502 221.623 502ZM243.039 502.352C241.589 502.352 240.309 502.043 239.199 501.424C238.09 500.805 237.226 499.899 236.607 498.704C235.989 497.488 235.679 496.027 235.679 494.32C235.679 492.677 235.989 491.259 236.607 490.064C237.226 488.848 238.069 487.909 239.135 487.248C240.223 486.587 241.471 486.256 242.879 486.256C244.287 486.256 245.482 486.597 246.463 487.28C247.466 487.941 248.223 488.795 248.735 489.84C249.269 490.885 249.535 491.963 249.535 493.072C249.535 493.691 249.407 494.107 249.151 494.32C248.895 494.512 248.522 494.608 248.031 494.608H238.495C238.538 496.315 238.965 497.616 239.775 498.512C240.607 499.387 241.706 499.824 243.071 499.824C244.693 499.824 245.919 499.173 246.751 497.872C247.093 497.509 247.413 497.275 247.711 497.168C248.01 497.04 248.33 497.093 248.671 497.328C249.034 497.563 249.237 497.861 249.279 498.224C249.343 498.587 249.205 498.981 248.863 499.408C248.159 500.411 247.317 501.157 246.335 501.648C245.375 502.117 244.277 502.352 243.039 502.352ZM238.655 492.304H246.719C246.549 491.195 246.122 490.299 245.439 489.616C244.757 488.933 243.893 488.592 242.847 488.592C241.738 488.592 240.821 488.912 240.095 489.552C239.37 490.171 238.89 491.088 238.655 492.304Z" fill="white"/>
<path d="M50.9759 712C50.2239 712 49.8479 711.616 49.8479 710.848V696.352C49.8479 695.584 50.2239 695.2 50.9759 695.2H55.0079C56.7679 695.2 58.2479 695.544 59.4479 696.232C60.6639 696.92 61.5839 697.896 62.2079 699.16C62.8479 700.408 63.1679 701.888 63.1679 703.6C63.1679 705.296 62.8479 706.776 62.2079 708.04C61.5839 709.304 60.6639 710.28 59.4479 710.968C58.2479 711.656 56.7679 712 55.0079 712H50.9759ZM52.0319 709.936H54.8639C56.2079 709.936 57.3199 709.672 58.1999 709.144C59.0959 708.6 59.7679 707.856 60.2159 706.912C60.6639 705.952 60.8879 704.848 60.8879 703.6C60.8879 702.336 60.6639 701.232 60.2159 700.288C59.7679 699.344 59.0959 698.608 58.1999 698.08C57.3199 697.536 56.2079 697.264 54.8639 697.264H52.0319V709.936ZM70.1724 712.264C69.0844 712.264 68.1244 712.032 67.2924 711.568C66.4604 711.104 65.8124 710.424 65.3484 709.528C64.8844 708.616 64.6524 707.52 64.6524 706.24C64.6524 705.008 64.8844 703.944 65.3484 703.048C65.8124 702.136 66.4444 701.432 67.2444 700.936C68.0604 700.44 68.9964 700.192 70.0524 700.192C71.1084 700.192 72.0044 700.448 72.7404 700.96C73.4924 701.456 74.0604 702.096 74.4444 702.88C74.8444 703.664 75.0444 704.472 75.0444 705.304C75.0444 705.768 74.9484 706.08 74.7564 706.24C74.5644 706.384 74.2844 706.456 73.9164 706.456H66.7644C66.7964 707.736 67.1164 708.712 67.7244 709.384C68.3484 710.04 69.1724 710.368 70.1964 710.368C71.4124 710.368 72.3324 709.88 72.9564 708.904C73.2124 708.632 73.4524 708.456 73.6764 708.376C73.9004 708.28 74.1404 708.32 74.3964 708.496C74.6684 708.672 74.8204 708.896 74.8524 709.168C74.9004 709.44 74.7964 709.736 74.5404 710.056C74.0124 710.808 73.3804 711.368 72.6444 711.736C71.9244 712.088 71.1004 712.264 70.1724 712.264ZM66.8844 704.728H72.9324C72.8044 703.896 72.4844 703.224 71.9724 702.712C71.4604 702.2 70.8124 701.944 70.0284 701.944C69.1964 701.944 68.5084 702.184 67.9644 702.664C67.4204 703.128 67.0604 703.816 66.8844 704.728ZM82.9034 712.264C81.3514 712.264 80.1594 711.576 79.3274 710.2V711.136C79.3274 711.44 79.2314 711.664 79.0394 711.808C78.8474 711.936 78.5994 712 78.2954 712C77.6554 712 77.3354 711.616 77.3354 710.848V695.92C77.3354 695.168 77.6954 694.792 78.4154 694.792C79.1354 694.792 79.4954 695.168 79.4954 695.92V701.944C79.8954 701.384 80.3834 700.952 80.9594 700.648C81.5354 700.344 82.1834 700.192 82.9034 700.192C83.9594 700.192 84.8954 700.44 85.7114 700.936C86.5274 701.416 87.1674 702.112 87.6314 703.024C88.1114 703.92 88.3514 704.992 88.3514 706.24C88.3514 707.472 88.1114 708.544 87.6314 709.456C87.1674 710.352 86.5274 711.048 85.7114 711.544C84.8954 712.024 83.9594 712.264 82.9034 712.264ZM82.8314 710.296C83.8074 710.296 84.6154 709.936 85.2554 709.216C85.8954 708.496 86.2154 707.504 86.2154 706.24C86.2154 704.96 85.8954 703.96 85.2554 703.24C84.6154 702.52 83.8074 702.16 82.8314 702.16C81.8554 702.16 81.0474 702.52 80.4074 703.24C79.7834 703.96 79.4714 704.96 79.4714 706.24C79.4714 707.504 79.7834 708.496 80.4074 709.216C81.0474 709.936 81.8554 710.296 82.8314 710.296ZM91.9366 712C91.2166 712 90.8566 711.616 90.8566 710.848V701.608C90.8566 700.856 91.2166 700.48 91.9366 700.48C92.6406 700.48 92.9926 700.856 92.9926 701.608V710.848C92.9926 711.616 92.6406 712 91.9366 712ZM91.9126 698.32C91.5126 698.32 91.1686 698.184 90.8806 697.912C90.6086 697.624 90.4726 697.28 90.4726 696.88C90.4726 696.48 90.6086 696.144 90.8806 695.872C91.1686 695.584 91.5126 695.44 91.9126 695.44C92.2966 695.44 92.6246 695.584 92.8966 695.872C93.1846 696.144 93.3286 696.48 93.3286 696.88C93.3286 697.28 93.1846 697.624 92.8966 697.912C92.6246 698.184 92.2966 698.32 91.9126 698.32ZM100.694 712.264C99.6064 712.264 98.7824 712.056 98.2224 711.64C97.6624 711.208 97.3824 710.392 97.3824 709.192V702.352H96.1824C95.4304 702.352 95.0544 702.04 95.0544 701.416C95.0544 701.096 95.1344 700.864 95.2944 700.72C95.4704 700.56 95.7664 700.48 96.1824 700.48H97.3824V697.48C97.3824 696.728 97.7424 696.352 98.4624 696.352C99.1664 696.352 99.5184 696.728 99.5184 697.48V700.48H101.726C102.478 700.48 102.854 700.792 102.854 701.416C102.854 702.04 102.478 702.352 101.726 702.352H99.5184V708.736C99.5184 709.36 99.6544 709.784 99.9264 710.008C100.214 710.216 100.638 710.32 101.198 710.32C101.23 710.32 101.278 710.32 101.342 710.32C101.774 710.32 102.134 710.36 102.422 710.44C102.71 710.504 102.854 710.752 102.854 711.184C102.854 711.664 102.63 711.96 102.182 712.072C101.75 712.2 101.254 712.264 100.694 712.264ZM118.146 712.36C116.626 712.36 115.282 712 114.114 711.28C112.946 710.56 112.026 709.544 111.354 708.232C110.698 706.92 110.37 705.376 110.37 703.6C110.37 701.824 110.698 700.28 111.354 698.968C112.026 697.64 112.946 696.616 114.114 695.896C115.282 695.16 116.626 694.792 118.146 694.792C119.314 694.792 120.378 695.008 121.338 695.44C122.298 695.872 123.122 696.488 123.81 697.288C124.066 697.56 124.146 697.84 124.05 698.128C123.97 698.4 123.802 698.624 123.546 698.8L123.45 698.848C123.274 698.96 123.034 699.008 122.73 698.992C122.442 698.96 122.17 698.824 121.914 698.584C120.97 697.512 119.714 696.976 118.146 696.976C117.058 696.976 116.098 697.248 115.266 697.792C114.45 698.336 113.81 699.104 113.346 700.096C112.882 701.072 112.65 702.24 112.65 703.6C112.65 704.944 112.882 706.112 113.346 707.104C113.81 708.08 114.45 708.84 115.266 709.384C116.098 709.928 117.058 710.2 118.146 710.2C119.682 710.2 120.938 709.664 121.914 708.592C122.17 708.352 122.426 708.216 122.682 708.184C122.954 708.152 123.21 708.2 123.45 708.328L123.498 708.352C123.77 708.496 123.954 708.712 124.05 709C124.146 709.288 124.074 709.568 123.834 709.84C123.146 710.64 122.314 711.264 121.338 711.712C120.378 712.144 119.314 712.36 118.146 712.36ZM130.071 712.192C128.903 712.224 127.935 711.96 127.167 711.4C126.415 710.824 126.039 710 126.039 708.928C126.039 708.144 126.287 707.464 126.783 706.888C127.295 706.312 127.943 705.864 128.727 705.544C129.527 705.208 130.351 705.04 131.199 705.04C131.695 705.008 132.151 705.056 132.567 705.184C132.983 705.296 133.343 705.464 133.647 705.688V704.248C133.647 703.352 133.455 702.768 133.071 702.496C132.703 702.224 132.127 702.088 131.343 702.088C130.847 702.088 130.319 702.16 129.759 702.304C129.215 702.432 128.703 702.608 128.223 702.832C127.887 702.96 127.599 703.008 127.359 702.976C127.119 702.928 126.919 702.776 126.759 702.52C126.599 702.248 126.559 701.992 126.639 701.752C126.735 701.496 126.951 701.296 127.287 701.152C127.879 700.864 128.527 700.632 129.231 700.456C129.951 700.28 130.655 700.192 131.343 700.192C132.815 700.192 133.911 700.488 134.631 701.08C135.351 701.656 135.711 702.712 135.711 704.248V710.032C135.711 710.288 135.727 710.456 135.759 710.536C135.807 710.6 135.911 710.656 136.071 710.704C136.263 710.768 136.471 710.824 136.695 710.872C136.919 710.904 137.031 710.984 137.031 711.112C137.031 711.64 136.759 711.96 136.215 712.072C135.863 712.152 135.543 712.192 135.255 712.192C134.743 712.192 134.375 712.096 134.151 711.904C133.927 711.712 133.775 711.368 133.695 710.872C133.263 711.304 132.719 711.624 132.063 711.832C131.407 712.04 130.743 712.16 130.071 712.192ZM130.095 710.296C130.767 710.28 131.375 710.184 131.919 710.008C132.479 709.816 132.919 709.552 133.239 709.216C133.559 708.864 133.703 708.448 133.671 707.968C133.639 707.52 133.407 707.2 132.975 707.008C132.559 706.816 132.023 706.736 131.367 706.768C130.775 706.784 130.231 706.896 129.735 707.104C129.239 707.296 128.839 707.552 128.535 707.872C128.247 708.192 128.103 708.552 128.103 708.952C128.119 709.4 128.303 709.744 128.655 709.984C129.007 710.208 129.487 710.312 130.095 710.296ZM140.059 712C139.339 712 138.979 711.616 138.979 710.848V701.608C138.979 700.856 139.355 700.48 140.107 700.48C140.363 700.48 140.587 700.544 140.779 700.672C140.971 700.8 141.067 701.04 141.067 701.392V702.28C141.387 701.656 141.867 701.152 142.507 700.768C143.163 700.384 143.867 700.192 144.619 700.192C145.595 700.192 146.083 700.584 146.083 701.368C146.083 701.704 145.987 701.952 145.795 702.112C145.619 702.256 145.419 702.32 145.195 702.304C145.083 702.288 144.955 702.28 144.811 702.28C144.667 702.264 144.515 702.256 144.355 702.256C143.459 702.256 142.699 702.552 142.075 703.144C141.451 703.72 141.139 704.48 141.139 705.424V710.848C141.139 711.616 140.779 712 140.059 712ZM152.441 712.264C151.385 712.264 150.441 712.024 149.609 711.544C148.793 711.048 148.145 710.352 147.665 709.456C147.201 708.544 146.969 707.472 146.969 706.24C146.969 704.992 147.201 703.92 147.665 703.024C148.145 702.112 148.793 701.416 149.609 700.936C150.441 700.44 151.385 700.192 152.441 700.192C153.145 700.192 153.785 700.344 154.361 700.648C154.953 700.952 155.449 701.384 155.849 701.944V695.92C155.849 695.168 156.201 694.792 156.905 694.792C157.625 694.792 157.985 695.168 157.985 695.92V710.848C157.985 711.616 157.673 712 157.049 712C156.409 712 156.081 711.824 156.065 711.472L156.017 710.344C155.617 710.936 155.105 711.408 154.481 711.76C153.873 712.096 153.193 712.264 152.441 712.264ZM152.513 710.296C153.489 710.296 154.289 709.936 154.913 709.216C155.553 708.496 155.873 707.504 155.873 706.24C155.873 704.96 155.553 703.96 154.913 703.24C154.289 702.52 153.489 702.16 152.513 702.16C151.537 702.16 150.729 702.52 150.089 703.24C149.449 703.96 149.129 704.96 149.129 706.24C149.129 707.504 149.449 708.496 150.089 709.216C150.729 709.936 151.537 710.296 152.513 710.296Z" fill="white"/>
<circle cx="359.35" cy="704.35" r="25.85" fill="white" stroke="white"/>
<circle cx="386.65" cy="704.35" r="23.85" stroke="white" stroke-width="3"/>
</svg>
